G04 #@! TF.FileFunction,Soldermask,Bot*
%FSLAX46Y46*%
G04 Gerber Fmt 4.6, Leading zero omitted, Abs format (unit mm)*
G04 Created by KiCad (PCBNEW 4.0.7-e2-6376~61~ubuntu18.04.1) date Sat Feb 16 00:57:27 2019*
%MOMM*%
%LPD*%
G01*
G04 APERTURE LIST*
%ADD10C,0.100000*%
%ADD11O,2.100580X2.100580*%
%ADD12R,2.100580X2.100580*%
%ADD13C,1.201600*%
%ADD14C,2.501600*%
%ADD15O,2.501600X2.501600*%
%ADD16C,4.601600*%
%ADD17R,1.828800X1.828800*%
%ADD18O,1.828800X1.828800*%
G04 APERTURE END LIST*
D10*
D11*
X164690000Y-101310000D03*
D12*
X164690000Y-106390000D03*
D11*
X164690000Y-103850000D03*
D13*
X167230000Y-106390000D03*
X167230000Y-103850000D03*
X167230000Y-101310000D03*
D11*
X164690000Y-94950000D03*
D12*
X164690000Y-97490000D03*
D13*
X167230000Y-97490000D03*
X167230000Y-94950000D03*
D11*
X152050000Y-110150000D03*
D12*
X146970000Y-110150000D03*
D11*
X149510000Y-110150000D03*
D13*
X146970000Y-112690000D03*
X149510000Y-112690000D03*
X152050000Y-112690000D03*
D11*
X117754800Y-109979200D03*
D12*
X112674800Y-109979200D03*
D11*
X115214800Y-109979200D03*
D13*
X112674800Y-112519200D03*
X115214800Y-112519200D03*
X117754800Y-112519200D03*
D14*
X106832800Y-107109000D03*
D15*
X106832800Y-94409000D03*
D14*
X158790000Y-112590000D03*
D15*
X158790000Y-99890000D03*
D16*
X164891100Y-88993600D03*
X164891100Y-111993600D03*
X106891100Y-111993600D03*
D17*
X111491100Y-90293600D03*
D18*
X111491100Y-87753600D03*
X114031100Y-90293600D03*
X114031100Y-87753600D03*
X116571100Y-90293600D03*
X116571100Y-87753600D03*
X119111100Y-90293600D03*
X119111100Y-87753600D03*
X121651100Y-90293600D03*
X121651100Y-87753600D03*
X124191100Y-90293600D03*
X124191100Y-87753600D03*
X126731100Y-90293600D03*
X126731100Y-87753600D03*
X129271100Y-90293600D03*
X129271100Y-87753600D03*
X131811100Y-90293600D03*
X131811100Y-87753600D03*
X134351100Y-90293600D03*
X134351100Y-87753600D03*
X136891100Y-90293600D03*
X136891100Y-87753600D03*
X139431100Y-90293600D03*
X139431100Y-87753600D03*
X141971100Y-90293600D03*
X141971100Y-87753600D03*
X144511100Y-90293600D03*
X144511100Y-87753600D03*
X147051100Y-90293600D03*
X147051100Y-87753600D03*
X149591100Y-90293600D03*
X149591100Y-87753600D03*
X152131100Y-90293600D03*
X152131100Y-87753600D03*
X154671100Y-90293600D03*
X154671100Y-87753600D03*
X157211100Y-90293600D03*
X157211100Y-87753600D03*
X159751100Y-90293600D03*
X159751100Y-87753600D03*
D16*
X106891100Y-88993600D03*
M02*
