G04 #@! TF.FileFunction,Legend,Top*
%FSLAX46Y46*%
G04 Gerber Fmt 4.6, Leading zero omitted, Abs format (unit mm)*
G04 Created by KiCad (PCBNEW 4.0.7-e2-6376~61~ubuntu18.04.1) date Sat Sep 28 19:31:04 2019*
%MOMM*%
%LPD*%
G01*
G04 APERTURE LIST*
%ADD10C,0.100000*%
%ADD11C,0.120000*%
%ADD12C,0.150000*%
G04 APERTURE END LIST*
D10*
X159665000Y-102211428D02*
X159629286Y-102282857D01*
X159629286Y-102390000D01*
X159665000Y-102497143D01*
X159736429Y-102568571D01*
X159807857Y-102604286D01*
X159950714Y-102640000D01*
X160057857Y-102640000D01*
X160200714Y-102604286D01*
X160272143Y-102568571D01*
X160343571Y-102497143D01*
X160379286Y-102390000D01*
X160379286Y-102318571D01*
X160343571Y-102211428D01*
X160307857Y-102175714D01*
X160057857Y-102175714D01*
X160057857Y-102318571D01*
X160379286Y-101854286D02*
X159629286Y-101854286D01*
X160379286Y-101425714D01*
X159629286Y-101425714D01*
X160379286Y-101068572D02*
X159629286Y-101068572D01*
X159629286Y-100890000D01*
X159665000Y-100782857D01*
X159736429Y-100711429D01*
X159807857Y-100675714D01*
X159950714Y-100640000D01*
X160057857Y-100640000D01*
X160200714Y-100675714D01*
X160272143Y-100711429D01*
X160343571Y-100782857D01*
X160379286Y-100890000D01*
X160379286Y-101068572D01*
X159866429Y-104893571D02*
X159866429Y-104643571D01*
X160259286Y-104536428D02*
X160259286Y-104893571D01*
X159509286Y-104893571D01*
X159509286Y-104536428D01*
X160259286Y-104215000D02*
X159509286Y-104215000D01*
X160259286Y-103786428D01*
X159509286Y-103786428D01*
X160053571Y-108178572D02*
X160053571Y-107607143D01*
X160339286Y-107892857D02*
X159767857Y-107892857D01*
X159589286Y-106892858D02*
X159589286Y-107250001D01*
X159946429Y-107285715D01*
X159910714Y-107250001D01*
X159875000Y-107178572D01*
X159875000Y-107000001D01*
X159910714Y-106928572D01*
X159946429Y-106892858D01*
X160017857Y-106857143D01*
X160196429Y-106857143D01*
X160267857Y-106892858D01*
X160303571Y-106928572D01*
X160339286Y-107000001D01*
X160339286Y-107178572D01*
X160303571Y-107250001D01*
X160267857Y-107285715D01*
X159839286Y-106607143D02*
X160339286Y-106428572D01*
X159839286Y-106250000D01*
X116917857Y-114325000D02*
X117275000Y-114325000D01*
X116846429Y-114539286D02*
X117096429Y-113789286D01*
X117346429Y-114539286D01*
X117917857Y-114039286D02*
X117917857Y-114539286D01*
X117596428Y-114039286D02*
X117596428Y-114432143D01*
X117632143Y-114503571D01*
X117703571Y-114539286D01*
X117810714Y-114539286D01*
X117882143Y-114503571D01*
X117917857Y-114467857D01*
X118203571Y-114539286D02*
X118596428Y-114039286D01*
X118203571Y-114039286D02*
X118596428Y-114539286D01*
X118703571Y-114610714D02*
X119275000Y-114610714D01*
X119882143Y-114467857D02*
X119846429Y-114503571D01*
X119739286Y-114539286D01*
X119667857Y-114539286D01*
X119560714Y-114503571D01*
X119489286Y-114432143D01*
X119453571Y-114360714D01*
X119417857Y-114217857D01*
X119417857Y-114110714D01*
X119453571Y-113967857D01*
X119489286Y-113896429D01*
X119560714Y-113825000D01*
X119667857Y-113789286D01*
X119739286Y-113789286D01*
X119846429Y-113825000D01*
X119882143Y-113860714D01*
X115432143Y-114467857D02*
X115396429Y-114503571D01*
X115289286Y-114539286D01*
X115217857Y-114539286D01*
X115110714Y-114503571D01*
X115039286Y-114432143D01*
X115003571Y-114360714D01*
X114967857Y-114217857D01*
X114967857Y-114110714D01*
X115003571Y-113967857D01*
X115039286Y-113896429D01*
X115110714Y-113825000D01*
X115217857Y-113789286D01*
X115289286Y-113789286D01*
X115396429Y-113825000D01*
X115432143Y-113860714D01*
X112321429Y-114425000D02*
X112678572Y-114425000D01*
X112250001Y-114639286D02*
X112500001Y-113889286D01*
X112750001Y-114639286D01*
X149532143Y-114567857D02*
X149496429Y-114603571D01*
X149389286Y-114639286D01*
X149317857Y-114639286D01*
X149210714Y-114603571D01*
X149139286Y-114532143D01*
X149103571Y-114460714D01*
X149067857Y-114317857D01*
X149067857Y-114210714D01*
X149103571Y-114067857D01*
X149139286Y-113996429D01*
X149210714Y-113925000D01*
X149317857Y-113889286D01*
X149389286Y-113889286D01*
X149496429Y-113925000D01*
X149532143Y-113960714D01*
X150617857Y-114525000D02*
X150975000Y-114525000D01*
X150546429Y-114739286D02*
X150796429Y-113989286D01*
X151046429Y-114739286D01*
X151617857Y-114239286D02*
X151617857Y-114739286D01*
X151296428Y-114239286D02*
X151296428Y-114632143D01*
X151332143Y-114703571D01*
X151403571Y-114739286D01*
X151510714Y-114739286D01*
X151582143Y-114703571D01*
X151617857Y-114667857D01*
X151903571Y-114739286D02*
X152296428Y-114239286D01*
X151903571Y-114239286D02*
X152296428Y-114739286D01*
X152403571Y-114810714D02*
X152975000Y-114810714D01*
X153582143Y-114667857D02*
X153546429Y-114703571D01*
X153439286Y-114739286D01*
X153367857Y-114739286D01*
X153260714Y-114703571D01*
X153189286Y-114632143D01*
X153153571Y-114560714D01*
X153117857Y-114417857D01*
X153117857Y-114310714D01*
X153153571Y-114167857D01*
X153189286Y-114096429D01*
X153260714Y-114025000D01*
X153367857Y-113989286D01*
X153439286Y-113989286D01*
X153546429Y-114025000D01*
X153582143Y-114060714D01*
X146821429Y-114425000D02*
X147178572Y-114425000D01*
X146750001Y-114639286D02*
X147000001Y-113889286D01*
X147250001Y-114639286D01*
X161239286Y-96485714D02*
X161239286Y-96914286D01*
X161239286Y-96700000D02*
X160489286Y-96700000D01*
X160596429Y-96771429D01*
X160667857Y-96842857D01*
X160703571Y-96914286D01*
X160489286Y-96235714D02*
X160489286Y-95735714D01*
X161239286Y-96057143D01*
X160489286Y-95307142D02*
X160489286Y-95235714D01*
X160525000Y-95164285D01*
X160560714Y-95128571D01*
X160632143Y-95092857D01*
X160775000Y-95057142D01*
X160953571Y-95057142D01*
X161096429Y-95092857D01*
X161167857Y-95128571D01*
X161203571Y-95164285D01*
X161239286Y-95235714D01*
X161239286Y-95307142D01*
X161203571Y-95378571D01*
X161167857Y-95414285D01*
X161096429Y-95450000D01*
X160953571Y-95485714D01*
X160775000Y-95485714D01*
X160632143Y-95450000D01*
X160560714Y-95414285D01*
X160525000Y-95378571D01*
X160489286Y-95307142D01*
X160739286Y-94807142D02*
X161239286Y-94628571D01*
X160739286Y-94449999D01*
D11*
X128042700Y-99738300D02*
X128042700Y-100738300D01*
X129742700Y-100738300D02*
X129742700Y-99738300D01*
X130023900Y-99738300D02*
X130023900Y-100738300D01*
X131723900Y-100738300D02*
X131723900Y-99738300D01*
X129211840Y-105998640D02*
X129211840Y-104998640D01*
X127511840Y-104998640D02*
X127511840Y-105998640D01*
X108960000Y-95410000D02*
X109890000Y-95410000D01*
X112120000Y-95410000D02*
X111190000Y-95410000D01*
X112120000Y-95410000D02*
X112120000Y-93250000D01*
X108960000Y-95410000D02*
X108960000Y-93950000D01*
X112480000Y-95400000D02*
X113410000Y-95400000D01*
X115640000Y-95400000D02*
X114710000Y-95400000D01*
X115640000Y-95400000D02*
X115640000Y-93240000D01*
X112480000Y-95400000D02*
X112480000Y-93940000D01*
X124687000Y-112773320D02*
X124687000Y-111843320D01*
X124687000Y-109613320D02*
X124687000Y-110543320D01*
X124687000Y-109613320D02*
X122527000Y-109613320D01*
X124687000Y-112773320D02*
X123227000Y-112773320D01*
X132188240Y-104873240D02*
X132188240Y-106073240D01*
X130428240Y-106073240D02*
X130428240Y-104873240D01*
X124047760Y-106118960D02*
X124047760Y-104918960D01*
X125807760Y-104918960D02*
X125807760Y-106118960D01*
X126200000Y-112030000D02*
X126200000Y-110830000D01*
X127960000Y-110830000D02*
X127960000Y-112030000D01*
X129100000Y-111940000D02*
X129100000Y-110740000D01*
X130860000Y-110740000D02*
X130860000Y-111940000D01*
X119872000Y-111925400D02*
X119872000Y-110725400D01*
X121632000Y-110725400D02*
X121632000Y-111925400D01*
X124234700Y-99224000D02*
X124234700Y-101024000D01*
X127454700Y-101024000D02*
X127454700Y-98574000D01*
X132043200Y-93451800D02*
X132043200Y-94451800D01*
X133743200Y-94451800D02*
X133743200Y-93451800D01*
X117560000Y-94700000D02*
X117560000Y-93700000D01*
X115860000Y-93700000D02*
X115860000Y-94700000D01*
X144040000Y-93990000D02*
X144040000Y-94990000D01*
X145740000Y-94990000D02*
X145740000Y-93990000D01*
X134519700Y-99585900D02*
X134519700Y-100585900D01*
X136219700Y-100585900D02*
X136219700Y-99585900D01*
X136577100Y-99471600D02*
X136577100Y-100471600D01*
X138277100Y-100471600D02*
X138277100Y-99471600D01*
X133889780Y-105217080D02*
X133889780Y-106217080D01*
X135589780Y-106217080D02*
X135589780Y-105217080D01*
X136372880Y-95671920D02*
X137302880Y-95671920D01*
X139532880Y-95671920D02*
X138602880Y-95671920D01*
X139532880Y-95671920D02*
X139532880Y-93511920D01*
X136372880Y-95671920D02*
X136372880Y-94211920D01*
X140304800Y-95656680D02*
X141234800Y-95656680D01*
X143464800Y-95656680D02*
X142534800Y-95656680D01*
X143464800Y-95656680D02*
X143464800Y-93496680D01*
X140304800Y-95656680D02*
X140304800Y-94196680D01*
D12*
X161591200Y-99750440D02*
X161591200Y-107949560D01*
X161989980Y-99750440D02*
X161989980Y-107949560D01*
X167290960Y-99750440D02*
X167290960Y-107949560D01*
X167788800Y-107949560D02*
X167788800Y-99750440D01*
X167290960Y-102549520D02*
X167788800Y-102549520D01*
X167788800Y-107748900D02*
X167290960Y-107748900D01*
X167290960Y-99948560D02*
X167788800Y-99948560D01*
X167788800Y-105147940D02*
X167290960Y-105147940D01*
X167788800Y-99750440D02*
X161591200Y-99750440D01*
X161591200Y-107947020D02*
X167788800Y-107947020D01*
X167290960Y-93420920D02*
X167290960Y-99019080D01*
X167788800Y-98820960D02*
X167290960Y-98820960D01*
X167290960Y-93619040D02*
X167788800Y-93619040D01*
X167788800Y-96220000D02*
X167290960Y-96220000D01*
X161989980Y-99019080D02*
X161989980Y-93420920D01*
X167788800Y-99019080D02*
X167788800Y-93420920D01*
X167788800Y-93420920D02*
X161591200Y-93420920D01*
X161591200Y-93420920D02*
X161591200Y-99019080D01*
X161591200Y-99019080D02*
X167788800Y-99019080D01*
X153609560Y-107051200D02*
X145410440Y-107051200D01*
X153609560Y-107449980D02*
X145410440Y-107449980D01*
X153609560Y-112750960D02*
X145410440Y-112750960D01*
X145410440Y-113248800D02*
X153609560Y-113248800D01*
X150810480Y-112750960D02*
X150810480Y-113248800D01*
X145611100Y-113248800D02*
X145611100Y-112750960D01*
X153411440Y-112750960D02*
X153411440Y-113248800D01*
X148212060Y-113248800D02*
X148212060Y-112750960D01*
X153609560Y-113248800D02*
X153609560Y-107051200D01*
X145412980Y-107051200D02*
X145412980Y-113248800D01*
X119314360Y-106880400D02*
X111115240Y-106880400D01*
X119314360Y-107279180D02*
X111115240Y-107279180D01*
X119314360Y-112580160D02*
X111115240Y-112580160D01*
X111115240Y-113078000D02*
X119314360Y-113078000D01*
X116515280Y-112580160D02*
X116515280Y-113078000D01*
X111315900Y-113078000D02*
X111315900Y-112580160D01*
X119116240Y-112580160D02*
X119116240Y-113078000D01*
X113916860Y-113078000D02*
X113916860Y-112580160D01*
X119314360Y-113078000D02*
X119314360Y-106880400D01*
X111117780Y-106880400D02*
X111117780Y-113078000D01*
D11*
X117780000Y-105740000D02*
X117780000Y-106090000D01*
X117780000Y-106090000D02*
X116280000Y-106090000D01*
X117780000Y-101090000D02*
X117780000Y-104290000D01*
X116280000Y-99290000D02*
X117780000Y-99290000D01*
X117780000Y-99290000D02*
X117780000Y-99690000D01*
X146956720Y-99532560D02*
X146956720Y-99182560D01*
X146956720Y-99182560D02*
X148456720Y-99182560D01*
X146956720Y-104182560D02*
X146956720Y-100982560D01*
X148456720Y-105982560D02*
X146956720Y-105982560D01*
X146956720Y-105982560D02*
X146956720Y-105582560D01*
X143406800Y-112410100D02*
X143406800Y-111480100D01*
X143406800Y-109250100D02*
X143406800Y-110180100D01*
X143406800Y-109250100D02*
X141246800Y-109250100D01*
X143406800Y-112410100D02*
X141946800Y-112410100D01*
X126170000Y-93390000D02*
X126170000Y-94590000D01*
X124410000Y-94590000D02*
X124410000Y-93390000D01*
X157310000Y-95090000D02*
X157310000Y-93890000D01*
X159070000Y-93890000D02*
X159070000Y-95090000D01*
X138414000Y-111620600D02*
X138414000Y-110420600D01*
X140174000Y-110420600D02*
X140174000Y-111620600D01*
X135602000Y-110496800D02*
X135602000Y-111696800D01*
X133842000Y-111696800D02*
X133842000Y-110496800D01*
X137854980Y-105033260D02*
X137854980Y-106233260D01*
X136094980Y-106233260D02*
X136094980Y-105033260D01*
X136128000Y-111646000D02*
X136128000Y-110446000D01*
X137888000Y-110446000D02*
X137888000Y-111646000D01*
X155720000Y-109720000D02*
X155720000Y-110920000D01*
X153960000Y-110920000D02*
X153960000Y-109720000D01*
X146155920Y-95158480D02*
X146155920Y-93958480D01*
X147915920Y-93958480D02*
X147915920Y-95158480D01*
X148358100Y-95089900D02*
X148358100Y-93889900D01*
X150118100Y-93889900D02*
X150118100Y-95089900D01*
X152663400Y-95051800D02*
X152663400Y-93851800D01*
X154423400Y-93851800D02*
X154423400Y-95051800D01*
X154911300Y-95089900D02*
X154911300Y-93889900D01*
X156671300Y-93889900D02*
X156671300Y-95089900D01*
X119400000Y-93670000D02*
X119400000Y-94870000D01*
X117640000Y-94870000D02*
X117640000Y-93670000D01*
X121280000Y-93690000D02*
X121280000Y-94890000D01*
X119520000Y-94890000D02*
X119520000Y-93690000D01*
X123770000Y-93490000D02*
X123770000Y-94690000D01*
X122010000Y-94690000D02*
X122010000Y-93490000D01*
X128760000Y-93380000D02*
X128760000Y-94580000D01*
X127000000Y-94580000D02*
X127000000Y-93380000D01*
X131370000Y-93380000D02*
X131370000Y-94580000D01*
X129610000Y-94580000D02*
X129610000Y-93380000D01*
X152289800Y-94004200D02*
X152289800Y-95204200D01*
X150529800Y-95204200D02*
X150529800Y-94004200D01*
X138712700Y-99262100D02*
X138712700Y-101062100D01*
X141932700Y-101062100D02*
X141932700Y-98612100D01*
X105452800Y-105769000D02*
X104972800Y-105769000D01*
X104972800Y-105769000D02*
X104972800Y-95749000D01*
X104972800Y-95749000D02*
X105452800Y-95749000D01*
X108212800Y-105769000D02*
X108692800Y-105769000D01*
X108692800Y-105769000D02*
X108692800Y-95749000D01*
X108692800Y-95749000D02*
X108212800Y-95749000D01*
X157410000Y-111250000D02*
X156930000Y-111250000D01*
X156930000Y-111250000D02*
X156930000Y-101230000D01*
X156930000Y-101230000D02*
X157410000Y-101230000D01*
X160170000Y-111250000D02*
X160650000Y-111250000D01*
X160650000Y-111250000D02*
X160650000Y-101230000D01*
X160650000Y-101230000D02*
X160170000Y-101230000D01*
D12*
X166391100Y-115493600D02*
G75*
G03X168391100Y-113493600I0J2000000D01*
G01*
X168391100Y-87493600D02*
G75*
G03X166391100Y-85493600I-2000000J0D01*
G01*
X103391100Y-113493600D02*
G75*
G03X105391100Y-115493600I2000000J0D01*
G01*
X105491100Y-85493600D02*
G75*
G03X103391100Y-87393600I-100000J-2000000D01*
G01*
X103391100Y-87493600D02*
X103391100Y-113493600D01*
X168391100Y-87493600D02*
X168391100Y-113493600D01*
X105391100Y-115493600D02*
X166391100Y-115493600D01*
X105391100Y-85493600D02*
X166391100Y-85493600D01*
X128253334Y-103217143D02*
X128205715Y-103264762D01*
X128062858Y-103312381D01*
X127967620Y-103312381D01*
X127824762Y-103264762D01*
X127729524Y-103169524D01*
X127681905Y-103074286D01*
X127634286Y-102883810D01*
X127634286Y-102740952D01*
X127681905Y-102550476D01*
X127729524Y-102455238D01*
X127824762Y-102360000D01*
X127967620Y-102312381D01*
X128062858Y-102312381D01*
X128205715Y-102360000D01*
X128253334Y-102407619D01*
X128634286Y-102407619D02*
X128681905Y-102360000D01*
X128777143Y-102312381D01*
X129015239Y-102312381D01*
X129110477Y-102360000D01*
X129158096Y-102407619D01*
X129205715Y-102502857D01*
X129205715Y-102598095D01*
X129158096Y-102740952D01*
X128586667Y-103312381D01*
X129205715Y-103312381D01*
X132677143Y-100586666D02*
X132724762Y-100634285D01*
X132772381Y-100777142D01*
X132772381Y-100872380D01*
X132724762Y-101015238D01*
X132629524Y-101110476D01*
X132534286Y-101158095D01*
X132343810Y-101205714D01*
X132200952Y-101205714D01*
X132010476Y-101158095D01*
X131915238Y-101110476D01*
X131820000Y-101015238D01*
X131772381Y-100872380D01*
X131772381Y-100777142D01*
X131820000Y-100634285D01*
X131867619Y-100586666D01*
X131772381Y-100253333D02*
X131772381Y-99634285D01*
X132153333Y-99967619D01*
X132153333Y-99824761D01*
X132200952Y-99729523D01*
X132248571Y-99681904D01*
X132343810Y-99634285D01*
X132581905Y-99634285D01*
X132677143Y-99681904D01*
X132724762Y-99729523D01*
X132772381Y-99824761D01*
X132772381Y-100110476D01*
X132724762Y-100205714D01*
X132677143Y-100253333D01*
X128213334Y-108767143D02*
X128165715Y-108814762D01*
X128022858Y-108862381D01*
X127927620Y-108862381D01*
X127784762Y-108814762D01*
X127689524Y-108719524D01*
X127641905Y-108624286D01*
X127594286Y-108433810D01*
X127594286Y-108290952D01*
X127641905Y-108100476D01*
X127689524Y-108005238D01*
X127784762Y-107910000D01*
X127927620Y-107862381D01*
X128022858Y-107862381D01*
X128165715Y-107910000D01*
X128213334Y-107957619D01*
X128784762Y-108290952D02*
X128689524Y-108243333D01*
X128641905Y-108195714D01*
X128594286Y-108100476D01*
X128594286Y-108052857D01*
X128641905Y-107957619D01*
X128689524Y-107910000D01*
X128784762Y-107862381D01*
X128975239Y-107862381D01*
X129070477Y-107910000D01*
X129118096Y-107957619D01*
X129165715Y-108052857D01*
X129165715Y-108100476D01*
X129118096Y-108195714D01*
X129070477Y-108243333D01*
X128975239Y-108290952D01*
X128784762Y-108290952D01*
X128689524Y-108338571D01*
X128641905Y-108386190D01*
X128594286Y-108481429D01*
X128594286Y-108671905D01*
X128641905Y-108767143D01*
X128689524Y-108814762D01*
X128784762Y-108862381D01*
X128975239Y-108862381D01*
X129070477Y-108814762D01*
X129118096Y-108767143D01*
X129165715Y-108671905D01*
X129165715Y-108481429D01*
X129118096Y-108386190D01*
X129070477Y-108338571D01*
X128975239Y-108290952D01*
X109901905Y-97502381D02*
X109901905Y-96502381D01*
X110140000Y-96502381D01*
X110282858Y-96550000D01*
X110378096Y-96645238D01*
X110425715Y-96740476D01*
X110473334Y-96930952D01*
X110473334Y-97073810D01*
X110425715Y-97264286D01*
X110378096Y-97359524D01*
X110282858Y-97454762D01*
X110140000Y-97502381D01*
X109901905Y-97502381D01*
X111425715Y-97502381D02*
X110854286Y-97502381D01*
X111140000Y-97502381D02*
X111140000Y-96502381D01*
X111044762Y-96645238D01*
X110949524Y-96740476D01*
X110854286Y-96788095D01*
X113481905Y-97542381D02*
X113481905Y-96542381D01*
X113720000Y-96542381D01*
X113862858Y-96590000D01*
X113958096Y-96685238D01*
X114005715Y-96780476D01*
X114053334Y-96970952D01*
X114053334Y-97113810D01*
X114005715Y-97304286D01*
X113958096Y-97399524D01*
X113862858Y-97494762D01*
X113720000Y-97542381D01*
X113481905Y-97542381D01*
X114386667Y-96542381D02*
X115005715Y-96542381D01*
X114672381Y-96923333D01*
X114815239Y-96923333D01*
X114910477Y-96970952D01*
X114958096Y-97018571D01*
X115005715Y-97113810D01*
X115005715Y-97351905D01*
X114958096Y-97447143D01*
X114910477Y-97494762D01*
X114815239Y-97542381D01*
X114529524Y-97542381D01*
X114434286Y-97494762D01*
X114386667Y-97447143D01*
X123831762Y-109240939D02*
X123736524Y-109193320D01*
X123641286Y-109098082D01*
X123498429Y-108955225D01*
X123403190Y-108907606D01*
X123307952Y-108907606D01*
X123355571Y-109145701D02*
X123260333Y-109098082D01*
X123165095Y-109002844D01*
X123117476Y-108812368D01*
X123117476Y-108479034D01*
X123165095Y-108288558D01*
X123260333Y-108193320D01*
X123355571Y-108145701D01*
X123546048Y-108145701D01*
X123641286Y-108193320D01*
X123736524Y-108288558D01*
X123784143Y-108479034D01*
X123784143Y-108812368D01*
X123736524Y-109002844D01*
X123641286Y-109098082D01*
X123546048Y-109145701D01*
X123355571Y-109145701D01*
X124165095Y-108240939D02*
X124212714Y-108193320D01*
X124307952Y-108145701D01*
X124546048Y-108145701D01*
X124641286Y-108193320D01*
X124688905Y-108240939D01*
X124736524Y-108336177D01*
X124736524Y-108431415D01*
X124688905Y-108574272D01*
X124117476Y-109145701D01*
X124736524Y-109145701D01*
X133302381Y-105726666D02*
X132826190Y-106060000D01*
X133302381Y-106298095D02*
X132302381Y-106298095D01*
X132302381Y-105917142D01*
X132350000Y-105821904D01*
X132397619Y-105774285D01*
X132492857Y-105726666D01*
X132635714Y-105726666D01*
X132730952Y-105774285D01*
X132778571Y-105821904D01*
X132826190Y-105917142D01*
X132826190Y-106298095D01*
X132397619Y-105345714D02*
X132350000Y-105298095D01*
X132302381Y-105202857D01*
X132302381Y-104964761D01*
X132350000Y-104869523D01*
X132397619Y-104821904D01*
X132492857Y-104774285D01*
X132588095Y-104774285D01*
X132730952Y-104821904D01*
X133302381Y-105393333D01*
X133302381Y-104774285D01*
X123732381Y-105016666D02*
X123256190Y-105350000D01*
X123732381Y-105588095D02*
X122732381Y-105588095D01*
X122732381Y-105207142D01*
X122780000Y-105111904D01*
X122827619Y-105064285D01*
X122922857Y-105016666D01*
X123065714Y-105016666D01*
X123160952Y-105064285D01*
X123208571Y-105111904D01*
X123256190Y-105207142D01*
X123256190Y-105588095D01*
X123065714Y-104159523D02*
X123732381Y-104159523D01*
X122684762Y-104397619D02*
X123399048Y-104635714D01*
X123399048Y-104016666D01*
X129232381Y-111596666D02*
X128756190Y-111930000D01*
X129232381Y-112168095D02*
X128232381Y-112168095D01*
X128232381Y-111787142D01*
X128280000Y-111691904D01*
X128327619Y-111644285D01*
X128422857Y-111596666D01*
X128565714Y-111596666D01*
X128660952Y-111644285D01*
X128708571Y-111691904D01*
X128756190Y-111787142D01*
X128756190Y-112168095D01*
X128232381Y-110739523D02*
X128232381Y-110930000D01*
X128280000Y-111025238D01*
X128327619Y-111072857D01*
X128470476Y-111168095D01*
X128660952Y-111215714D01*
X129041905Y-111215714D01*
X129137143Y-111168095D01*
X129184762Y-111120476D01*
X129232381Y-111025238D01*
X129232381Y-110834761D01*
X129184762Y-110739523D01*
X129137143Y-110691904D01*
X129041905Y-110644285D01*
X128803810Y-110644285D01*
X128708571Y-110691904D01*
X128660952Y-110739523D01*
X128613333Y-110834761D01*
X128613333Y-111025238D01*
X128660952Y-111120476D01*
X128708571Y-111168095D01*
X128803810Y-111215714D01*
X132132381Y-111506666D02*
X131656190Y-111840000D01*
X132132381Y-112078095D02*
X131132381Y-112078095D01*
X131132381Y-111697142D01*
X131180000Y-111601904D01*
X131227619Y-111554285D01*
X131322857Y-111506666D01*
X131465714Y-111506666D01*
X131560952Y-111554285D01*
X131608571Y-111601904D01*
X131656190Y-111697142D01*
X131656190Y-112078095D01*
X131132381Y-111173333D02*
X131132381Y-110506666D01*
X132132381Y-110935238D01*
X120517143Y-108392381D02*
X120183809Y-107916190D01*
X119945714Y-108392381D02*
X119945714Y-107392381D01*
X120326667Y-107392381D01*
X120421905Y-107440000D01*
X120469524Y-107487619D01*
X120517143Y-107582857D01*
X120517143Y-107725714D01*
X120469524Y-107820952D01*
X120421905Y-107868571D01*
X120326667Y-107916190D01*
X119945714Y-107916190D01*
X121469524Y-108392381D02*
X120898095Y-108392381D01*
X121183809Y-108392381D02*
X121183809Y-107392381D01*
X121088571Y-107535238D01*
X120993333Y-107630476D01*
X120898095Y-107678095D01*
X121802857Y-107392381D02*
X122421905Y-107392381D01*
X122088571Y-107773333D01*
X122231429Y-107773333D01*
X122326667Y-107820952D01*
X122374286Y-107868571D01*
X122421905Y-107963810D01*
X122421905Y-108201905D01*
X122374286Y-108297143D01*
X122326667Y-108344762D01*
X122231429Y-108392381D01*
X121945714Y-108392381D01*
X121850476Y-108344762D01*
X121802857Y-108297143D01*
X122872381Y-99921905D02*
X123681905Y-99921905D01*
X123777143Y-99874286D01*
X123824762Y-99826667D01*
X123872381Y-99731429D01*
X123872381Y-99540952D01*
X123824762Y-99445714D01*
X123777143Y-99398095D01*
X123681905Y-99350476D01*
X122872381Y-99350476D01*
X123872381Y-98350476D02*
X123872381Y-98921905D01*
X123872381Y-98636191D02*
X122872381Y-98636191D01*
X123015238Y-98731429D01*
X123110476Y-98826667D01*
X123158095Y-98921905D01*
X133093334Y-97327143D02*
X133045715Y-97374762D01*
X132902858Y-97422381D01*
X132807620Y-97422381D01*
X132664762Y-97374762D01*
X132569524Y-97279524D01*
X132521905Y-97184286D01*
X132474286Y-96993810D01*
X132474286Y-96850952D01*
X132521905Y-96660476D01*
X132569524Y-96565238D01*
X132664762Y-96470000D01*
X132807620Y-96422381D01*
X132902858Y-96422381D01*
X133045715Y-96470000D01*
X133093334Y-96517619D01*
X134045715Y-97422381D02*
X133474286Y-97422381D01*
X133760000Y-97422381D02*
X133760000Y-96422381D01*
X133664762Y-96565238D01*
X133569524Y-96660476D01*
X133474286Y-96708095D01*
X117097143Y-97926666D02*
X117144762Y-97974285D01*
X117192381Y-98117142D01*
X117192381Y-98212380D01*
X117144762Y-98355238D01*
X117049524Y-98450476D01*
X116954286Y-98498095D01*
X116763810Y-98545714D01*
X116620952Y-98545714D01*
X116430476Y-98498095D01*
X116335238Y-98450476D01*
X116240000Y-98355238D01*
X116192381Y-98212380D01*
X116192381Y-98117142D01*
X116240000Y-97974285D01*
X116287619Y-97926666D01*
X116525714Y-97069523D02*
X117192381Y-97069523D01*
X116144762Y-97307619D02*
X116859048Y-97545714D01*
X116859048Y-96926666D01*
X143713334Y-97817143D02*
X143665715Y-97864762D01*
X143522858Y-97912381D01*
X143427620Y-97912381D01*
X143284762Y-97864762D01*
X143189524Y-97769524D01*
X143141905Y-97674286D01*
X143094286Y-97483810D01*
X143094286Y-97340952D01*
X143141905Y-97150476D01*
X143189524Y-97055238D01*
X143284762Y-96960000D01*
X143427620Y-96912381D01*
X143522858Y-96912381D01*
X143665715Y-96960000D01*
X143713334Y-97007619D01*
X144618096Y-96912381D02*
X144141905Y-96912381D01*
X144094286Y-97388571D01*
X144141905Y-97340952D01*
X144237143Y-97293333D01*
X144475239Y-97293333D01*
X144570477Y-97340952D01*
X144618096Y-97388571D01*
X144665715Y-97483810D01*
X144665715Y-97721905D01*
X144618096Y-97817143D01*
X144570477Y-97864762D01*
X144475239Y-97912381D01*
X144237143Y-97912381D01*
X144141905Y-97864762D01*
X144094286Y-97817143D01*
X134327143Y-100286666D02*
X134374762Y-100334285D01*
X134422381Y-100477142D01*
X134422381Y-100572380D01*
X134374762Y-100715238D01*
X134279524Y-100810476D01*
X134184286Y-100858095D01*
X133993810Y-100905714D01*
X133850952Y-100905714D01*
X133660476Y-100858095D01*
X133565238Y-100810476D01*
X133470000Y-100715238D01*
X133422381Y-100572380D01*
X133422381Y-100477142D01*
X133470000Y-100334285D01*
X133517619Y-100286666D01*
X133422381Y-99429523D02*
X133422381Y-99620000D01*
X133470000Y-99715238D01*
X133517619Y-99762857D01*
X133660476Y-99858095D01*
X133850952Y-99905714D01*
X134231905Y-99905714D01*
X134327143Y-99858095D01*
X134374762Y-99810476D01*
X134422381Y-99715238D01*
X134422381Y-99524761D01*
X134374762Y-99429523D01*
X134327143Y-99381904D01*
X134231905Y-99334285D01*
X133993810Y-99334285D01*
X133898571Y-99381904D01*
X133850952Y-99429523D01*
X133803333Y-99524761D01*
X133803333Y-99715238D01*
X133850952Y-99810476D01*
X133898571Y-99858095D01*
X133993810Y-99905714D01*
X137323334Y-103217143D02*
X137275715Y-103264762D01*
X137132858Y-103312381D01*
X137037620Y-103312381D01*
X136894762Y-103264762D01*
X136799524Y-103169524D01*
X136751905Y-103074286D01*
X136704286Y-102883810D01*
X136704286Y-102740952D01*
X136751905Y-102550476D01*
X136799524Y-102455238D01*
X136894762Y-102360000D01*
X137037620Y-102312381D01*
X137132858Y-102312381D01*
X137275715Y-102360000D01*
X137323334Y-102407619D01*
X137656667Y-102312381D02*
X138323334Y-102312381D01*
X137894762Y-103312381D01*
X134513334Y-103337143D02*
X134465715Y-103384762D01*
X134322858Y-103432381D01*
X134227620Y-103432381D01*
X134084762Y-103384762D01*
X133989524Y-103289524D01*
X133941905Y-103194286D01*
X133894286Y-103003810D01*
X133894286Y-102860952D01*
X133941905Y-102670476D01*
X133989524Y-102575238D01*
X134084762Y-102480000D01*
X134227620Y-102432381D01*
X134322858Y-102432381D01*
X134465715Y-102480000D01*
X134513334Y-102527619D01*
X134989524Y-103432381D02*
X135180000Y-103432381D01*
X135275239Y-103384762D01*
X135322858Y-103337143D01*
X135418096Y-103194286D01*
X135465715Y-103003810D01*
X135465715Y-102622857D01*
X135418096Y-102527619D01*
X135370477Y-102480000D01*
X135275239Y-102432381D01*
X135084762Y-102432381D01*
X134989524Y-102480000D01*
X134941905Y-102527619D01*
X134894286Y-102622857D01*
X134894286Y-102860952D01*
X134941905Y-102956190D01*
X134989524Y-103003810D01*
X135084762Y-103051429D01*
X135275239Y-103051429D01*
X135370477Y-103003810D01*
X135418096Y-102956190D01*
X135465715Y-102860952D01*
X137061905Y-97682381D02*
X137061905Y-96682381D01*
X137300000Y-96682381D01*
X137442858Y-96730000D01*
X137538096Y-96825238D01*
X137585715Y-96920476D01*
X137633334Y-97110952D01*
X137633334Y-97253810D01*
X137585715Y-97444286D01*
X137538096Y-97539524D01*
X137442858Y-97634762D01*
X137300000Y-97682381D01*
X137061905Y-97682381D01*
X138014286Y-96777619D02*
X138061905Y-96730000D01*
X138157143Y-96682381D01*
X138395239Y-96682381D01*
X138490477Y-96730000D01*
X138538096Y-96777619D01*
X138585715Y-96872857D01*
X138585715Y-96968095D01*
X138538096Y-97110952D01*
X137966667Y-97682381D01*
X138585715Y-97682381D01*
X140631905Y-97732381D02*
X140631905Y-96732381D01*
X140870000Y-96732381D01*
X141012858Y-96780000D01*
X141108096Y-96875238D01*
X141155715Y-96970476D01*
X141203334Y-97160952D01*
X141203334Y-97303810D01*
X141155715Y-97494286D01*
X141108096Y-97589524D01*
X141012858Y-97684762D01*
X140870000Y-97732381D01*
X140631905Y-97732381D01*
X142060477Y-97065714D02*
X142060477Y-97732381D01*
X141822381Y-96684762D02*
X141584286Y-97399048D01*
X142203334Y-97399048D01*
X166452381Y-109333333D02*
X167166667Y-109333333D01*
X167309524Y-109380953D01*
X167404762Y-109476191D01*
X167452381Y-109619048D01*
X167452381Y-109714286D01*
X167452381Y-108333333D02*
X167452381Y-108904762D01*
X167452381Y-108619048D02*
X166452381Y-108619048D01*
X166595238Y-108714286D01*
X166690476Y-108809524D01*
X166738095Y-108904762D01*
X166652381Y-92833333D02*
X167366667Y-92833333D01*
X167509524Y-92880953D01*
X167604762Y-92976191D01*
X167652381Y-93119048D01*
X167652381Y-93214286D01*
X166747619Y-92404762D02*
X166700000Y-92357143D01*
X166652381Y-92261905D01*
X166652381Y-92023809D01*
X166700000Y-91928571D01*
X166747619Y-91880952D01*
X166842857Y-91833333D01*
X166938095Y-91833333D01*
X167080952Y-91880952D01*
X167652381Y-92452381D01*
X167652381Y-91833333D01*
X143936667Y-113532381D02*
X143936667Y-114246667D01*
X143889047Y-114389524D01*
X143793809Y-114484762D01*
X143650952Y-114532381D01*
X143555714Y-114532381D01*
X144317619Y-113532381D02*
X144936667Y-113532381D01*
X144603333Y-113913333D01*
X144746191Y-113913333D01*
X144841429Y-113960952D01*
X144889048Y-114008571D01*
X144936667Y-114103810D01*
X144936667Y-114341905D01*
X144889048Y-114437143D01*
X144841429Y-114484762D01*
X144746191Y-114532381D01*
X144460476Y-114532381D01*
X144365238Y-114484762D01*
X144317619Y-114437143D01*
X109866667Y-113332381D02*
X109866667Y-114046667D01*
X109819047Y-114189524D01*
X109723809Y-114284762D01*
X109580952Y-114332381D01*
X109485714Y-114332381D01*
X110771429Y-113665714D02*
X110771429Y-114332381D01*
X110533333Y-113284762D02*
X110295238Y-113999048D01*
X110914286Y-113999048D01*
X109894762Y-108257619D02*
X109799524Y-108210000D01*
X109704286Y-108114762D01*
X109561429Y-107971905D01*
X109466190Y-107924286D01*
X109370952Y-107924286D01*
X109418571Y-108162381D02*
X109323333Y-108114762D01*
X109228095Y-108019524D01*
X109180476Y-107829048D01*
X109180476Y-107495714D01*
X109228095Y-107305238D01*
X109323333Y-107210000D01*
X109418571Y-107162381D01*
X109609048Y-107162381D01*
X109704286Y-107210000D01*
X109799524Y-107305238D01*
X109847143Y-107495714D01*
X109847143Y-107829048D01*
X109799524Y-108019524D01*
X109704286Y-108114762D01*
X109609048Y-108162381D01*
X109418571Y-108162381D01*
X110799524Y-108162381D02*
X110228095Y-108162381D01*
X110513809Y-108162381D02*
X110513809Y-107162381D01*
X110418571Y-107305238D01*
X110323333Y-107400476D01*
X110228095Y-107448095D01*
X156454762Y-99337619D02*
X156359524Y-99290000D01*
X156264286Y-99194762D01*
X156121429Y-99051905D01*
X156026190Y-99004286D01*
X155930952Y-99004286D01*
X155978571Y-99242381D02*
X155883333Y-99194762D01*
X155788095Y-99099524D01*
X155740476Y-98909048D01*
X155740476Y-98575714D01*
X155788095Y-98385238D01*
X155883333Y-98290000D01*
X155978571Y-98242381D01*
X156169048Y-98242381D01*
X156264286Y-98290000D01*
X156359524Y-98385238D01*
X156407143Y-98575714D01*
X156407143Y-98909048D01*
X156359524Y-99099524D01*
X156264286Y-99194762D01*
X156169048Y-99242381D01*
X155978571Y-99242381D01*
X156740476Y-98242381D02*
X157359524Y-98242381D01*
X157026190Y-98623333D01*
X157169048Y-98623333D01*
X157264286Y-98670952D01*
X157311905Y-98718571D01*
X157359524Y-98813810D01*
X157359524Y-99051905D01*
X157311905Y-99147143D01*
X157264286Y-99194762D01*
X157169048Y-99242381D01*
X156883333Y-99242381D01*
X156788095Y-99194762D01*
X156740476Y-99147143D01*
X142551562Y-108877719D02*
X142456324Y-108830100D01*
X142361086Y-108734862D01*
X142218229Y-108592005D01*
X142122990Y-108544386D01*
X142027752Y-108544386D01*
X142075371Y-108782481D02*
X141980133Y-108734862D01*
X141884895Y-108639624D01*
X141837276Y-108449148D01*
X141837276Y-108115814D01*
X141884895Y-107925338D01*
X141980133Y-107830100D01*
X142075371Y-107782481D01*
X142265848Y-107782481D01*
X142361086Y-107830100D01*
X142456324Y-107925338D01*
X142503943Y-108115814D01*
X142503943Y-108449148D01*
X142456324Y-108639624D01*
X142361086Y-108734862D01*
X142265848Y-108782481D01*
X142075371Y-108782481D01*
X143361086Y-108115814D02*
X143361086Y-108782481D01*
X143122990Y-107734862D02*
X142884895Y-108449148D01*
X143503943Y-108449148D01*
X125203334Y-97482381D02*
X124870000Y-97006190D01*
X124631905Y-97482381D02*
X124631905Y-96482381D01*
X125012858Y-96482381D01*
X125108096Y-96530000D01*
X125155715Y-96577619D01*
X125203334Y-96672857D01*
X125203334Y-96815714D01*
X125155715Y-96910952D01*
X125108096Y-96958571D01*
X125012858Y-97006190D01*
X124631905Y-97006190D01*
X126155715Y-97482381D02*
X125584286Y-97482381D01*
X125870000Y-97482381D02*
X125870000Y-96482381D01*
X125774762Y-96625238D01*
X125679524Y-96720476D01*
X125584286Y-96768095D01*
X158813334Y-98072381D02*
X158480000Y-97596190D01*
X158241905Y-98072381D02*
X158241905Y-97072381D01*
X158622858Y-97072381D01*
X158718096Y-97120000D01*
X158765715Y-97167619D01*
X158813334Y-97262857D01*
X158813334Y-97405714D01*
X158765715Y-97500952D01*
X158718096Y-97548571D01*
X158622858Y-97596190D01*
X158241905Y-97596190D01*
X159718096Y-97072381D02*
X159241905Y-97072381D01*
X159194286Y-97548571D01*
X159241905Y-97500952D01*
X159337143Y-97453333D01*
X159575239Y-97453333D01*
X159670477Y-97500952D01*
X159718096Y-97548571D01*
X159765715Y-97643810D01*
X159765715Y-97881905D01*
X159718096Y-97977143D01*
X159670477Y-98024762D01*
X159575239Y-98072381D01*
X159337143Y-98072381D01*
X159241905Y-98024762D01*
X159194286Y-97977143D01*
X139753334Y-108652381D02*
X139420000Y-108176190D01*
X139181905Y-108652381D02*
X139181905Y-107652381D01*
X139562858Y-107652381D01*
X139658096Y-107700000D01*
X139705715Y-107747619D01*
X139753334Y-107842857D01*
X139753334Y-107985714D01*
X139705715Y-108080952D01*
X139658096Y-108128571D01*
X139562858Y-108176190D01*
X139181905Y-108176190D01*
X140324762Y-108080952D02*
X140229524Y-108033333D01*
X140181905Y-107985714D01*
X140134286Y-107890476D01*
X140134286Y-107842857D01*
X140181905Y-107747619D01*
X140229524Y-107700000D01*
X140324762Y-107652381D01*
X140515239Y-107652381D01*
X140610477Y-107700000D01*
X140658096Y-107747619D01*
X140705715Y-107842857D01*
X140705715Y-107890476D01*
X140658096Y-107985714D01*
X140610477Y-108033333D01*
X140515239Y-108080952D01*
X140324762Y-108080952D01*
X140229524Y-108128571D01*
X140181905Y-108176190D01*
X140134286Y-108271429D01*
X140134286Y-108461905D01*
X140181905Y-108557143D01*
X140229524Y-108604762D01*
X140324762Y-108652381D01*
X140515239Y-108652381D01*
X140610477Y-108604762D01*
X140658096Y-108557143D01*
X140705715Y-108461905D01*
X140705715Y-108271429D01*
X140658096Y-108176190D01*
X140610477Y-108128571D01*
X140515239Y-108080952D01*
X133474381Y-111263466D02*
X132998190Y-111596800D01*
X133474381Y-111834895D02*
X132474381Y-111834895D01*
X132474381Y-111453942D01*
X132522000Y-111358704D01*
X132569619Y-111311085D01*
X132664857Y-111263466D01*
X132807714Y-111263466D01*
X132902952Y-111311085D01*
X132950571Y-111358704D01*
X132998190Y-111453942D01*
X132998190Y-111834895D01*
X133474381Y-110787276D02*
X133474381Y-110596800D01*
X133426762Y-110501561D01*
X133379143Y-110453942D01*
X133236286Y-110358704D01*
X133045810Y-110311085D01*
X132664857Y-110311085D01*
X132569619Y-110358704D01*
X132522000Y-110406323D01*
X132474381Y-110501561D01*
X132474381Y-110692038D01*
X132522000Y-110787276D01*
X132569619Y-110834895D01*
X132664857Y-110882514D01*
X132902952Y-110882514D01*
X132998190Y-110834895D01*
X133045810Y-110787276D01*
X133093429Y-110692038D01*
X133093429Y-110501561D01*
X133045810Y-110406323D01*
X132998190Y-110358704D01*
X132902952Y-110311085D01*
X139242381Y-106612857D02*
X138766190Y-106946191D01*
X139242381Y-107184286D02*
X138242381Y-107184286D01*
X138242381Y-106803333D01*
X138290000Y-106708095D01*
X138337619Y-106660476D01*
X138432857Y-106612857D01*
X138575714Y-106612857D01*
X138670952Y-106660476D01*
X138718571Y-106708095D01*
X138766190Y-106803333D01*
X138766190Y-107184286D01*
X139242381Y-105660476D02*
X139242381Y-106231905D01*
X139242381Y-105946191D02*
X138242381Y-105946191D01*
X138385238Y-106041429D01*
X138480476Y-106136667D01*
X138528095Y-106231905D01*
X138242381Y-105041429D02*
X138242381Y-104946190D01*
X138290000Y-104850952D01*
X138337619Y-104803333D01*
X138432857Y-104755714D01*
X138623333Y-104708095D01*
X138861429Y-104708095D01*
X139051905Y-104755714D01*
X139147143Y-104803333D01*
X139194762Y-104850952D01*
X139242381Y-104946190D01*
X139242381Y-105041429D01*
X139194762Y-105136667D01*
X139147143Y-105184286D01*
X139051905Y-105231905D01*
X138861429Y-105279524D01*
X138623333Y-105279524D01*
X138432857Y-105231905D01*
X138337619Y-105184286D01*
X138290000Y-105136667D01*
X138242381Y-105041429D01*
X136757143Y-114772381D02*
X136423809Y-114296190D01*
X136185714Y-114772381D02*
X136185714Y-113772381D01*
X136566667Y-113772381D01*
X136661905Y-113820000D01*
X136709524Y-113867619D01*
X136757143Y-113962857D01*
X136757143Y-114105714D01*
X136709524Y-114200952D01*
X136661905Y-114248571D01*
X136566667Y-114296190D01*
X136185714Y-114296190D01*
X137709524Y-114772381D02*
X137138095Y-114772381D01*
X137423809Y-114772381D02*
X137423809Y-113772381D01*
X137328571Y-113915238D01*
X137233333Y-114010476D01*
X137138095Y-114058095D01*
X138090476Y-113867619D02*
X138138095Y-113820000D01*
X138233333Y-113772381D01*
X138471429Y-113772381D01*
X138566667Y-113820000D01*
X138614286Y-113867619D01*
X138661905Y-113962857D01*
X138661905Y-114058095D01*
X138614286Y-114200952D01*
X138042857Y-114772381D01*
X138661905Y-114772381D01*
X154857143Y-114452381D02*
X154523809Y-113976190D01*
X154285714Y-114452381D02*
X154285714Y-113452381D01*
X154666667Y-113452381D01*
X154761905Y-113500000D01*
X154809524Y-113547619D01*
X154857143Y-113642857D01*
X154857143Y-113785714D01*
X154809524Y-113880952D01*
X154761905Y-113928571D01*
X154666667Y-113976190D01*
X154285714Y-113976190D01*
X155809524Y-114452381D02*
X155238095Y-114452381D01*
X155523809Y-114452381D02*
X155523809Y-113452381D01*
X155428571Y-113595238D01*
X155333333Y-113690476D01*
X155238095Y-113738095D01*
X156666667Y-113785714D02*
X156666667Y-114452381D01*
X156428571Y-113404762D02*
X156190476Y-114119048D01*
X156809524Y-114119048D01*
X145707143Y-98022381D02*
X145373809Y-97546190D01*
X145135714Y-98022381D02*
X145135714Y-97022381D01*
X145516667Y-97022381D01*
X145611905Y-97070000D01*
X145659524Y-97117619D01*
X145707143Y-97212857D01*
X145707143Y-97355714D01*
X145659524Y-97450952D01*
X145611905Y-97498571D01*
X145516667Y-97546190D01*
X145135714Y-97546190D01*
X146659524Y-98022381D02*
X146088095Y-98022381D01*
X146373809Y-98022381D02*
X146373809Y-97022381D01*
X146278571Y-97165238D01*
X146183333Y-97260476D01*
X146088095Y-97308095D01*
X147564286Y-97022381D02*
X147088095Y-97022381D01*
X147040476Y-97498571D01*
X147088095Y-97450952D01*
X147183333Y-97403333D01*
X147421429Y-97403333D01*
X147516667Y-97450952D01*
X147564286Y-97498571D01*
X147611905Y-97593810D01*
X147611905Y-97831905D01*
X147564286Y-97927143D01*
X147516667Y-97974762D01*
X147421429Y-98022381D01*
X147183333Y-98022381D01*
X147088095Y-97974762D01*
X147040476Y-97927143D01*
X149117143Y-98022381D02*
X148783809Y-97546190D01*
X148545714Y-98022381D02*
X148545714Y-97022381D01*
X148926667Y-97022381D01*
X149021905Y-97070000D01*
X149069524Y-97117619D01*
X149117143Y-97212857D01*
X149117143Y-97355714D01*
X149069524Y-97450952D01*
X149021905Y-97498571D01*
X148926667Y-97546190D01*
X148545714Y-97546190D01*
X150069524Y-98022381D02*
X149498095Y-98022381D01*
X149783809Y-98022381D02*
X149783809Y-97022381D01*
X149688571Y-97165238D01*
X149593333Y-97260476D01*
X149498095Y-97308095D01*
X150926667Y-97022381D02*
X150736190Y-97022381D01*
X150640952Y-97070000D01*
X150593333Y-97117619D01*
X150498095Y-97260476D01*
X150450476Y-97450952D01*
X150450476Y-97831905D01*
X150498095Y-97927143D01*
X150545714Y-97974762D01*
X150640952Y-98022381D01*
X150831429Y-98022381D01*
X150926667Y-97974762D01*
X150974286Y-97927143D01*
X151021905Y-97831905D01*
X151021905Y-97593810D01*
X150974286Y-97498571D01*
X150926667Y-97450952D01*
X150831429Y-97403333D01*
X150640952Y-97403333D01*
X150545714Y-97450952D01*
X150498095Y-97498571D01*
X150450476Y-97593810D01*
X152637143Y-98072381D02*
X152303809Y-97596190D01*
X152065714Y-98072381D02*
X152065714Y-97072381D01*
X152446667Y-97072381D01*
X152541905Y-97120000D01*
X152589524Y-97167619D01*
X152637143Y-97262857D01*
X152637143Y-97405714D01*
X152589524Y-97500952D01*
X152541905Y-97548571D01*
X152446667Y-97596190D01*
X152065714Y-97596190D01*
X153589524Y-98072381D02*
X153018095Y-98072381D01*
X153303809Y-98072381D02*
X153303809Y-97072381D01*
X153208571Y-97215238D01*
X153113333Y-97310476D01*
X153018095Y-97358095D01*
X153922857Y-97072381D02*
X154589524Y-97072381D01*
X154160952Y-98072381D01*
X155297143Y-97992381D02*
X154963809Y-97516190D01*
X154725714Y-97992381D02*
X154725714Y-96992381D01*
X155106667Y-96992381D01*
X155201905Y-97040000D01*
X155249524Y-97087619D01*
X155297143Y-97182857D01*
X155297143Y-97325714D01*
X155249524Y-97420952D01*
X155201905Y-97468571D01*
X155106667Y-97516190D01*
X154725714Y-97516190D01*
X156249524Y-97992381D02*
X155678095Y-97992381D01*
X155963809Y-97992381D02*
X155963809Y-96992381D01*
X155868571Y-97135238D01*
X155773333Y-97230476D01*
X155678095Y-97278095D01*
X156820952Y-97420952D02*
X156725714Y-97373333D01*
X156678095Y-97325714D01*
X156630476Y-97230476D01*
X156630476Y-97182857D01*
X156678095Y-97087619D01*
X156725714Y-97040000D01*
X156820952Y-96992381D01*
X157011429Y-96992381D01*
X157106667Y-97040000D01*
X157154286Y-97087619D01*
X157201905Y-97182857D01*
X157201905Y-97230476D01*
X157154286Y-97325714D01*
X157106667Y-97373333D01*
X157011429Y-97420952D01*
X156820952Y-97420952D01*
X156725714Y-97468571D01*
X156678095Y-97516190D01*
X156630476Y-97611429D01*
X156630476Y-97801905D01*
X156678095Y-97897143D01*
X156725714Y-97944762D01*
X156820952Y-97992381D01*
X157011429Y-97992381D01*
X157106667Y-97944762D01*
X157154286Y-97897143D01*
X157201905Y-97801905D01*
X157201905Y-97611429D01*
X157154286Y-97516190D01*
X157106667Y-97468571D01*
X157011429Y-97420952D01*
X119092381Y-98572857D02*
X118616190Y-98906191D01*
X119092381Y-99144286D02*
X118092381Y-99144286D01*
X118092381Y-98763333D01*
X118140000Y-98668095D01*
X118187619Y-98620476D01*
X118282857Y-98572857D01*
X118425714Y-98572857D01*
X118520952Y-98620476D01*
X118568571Y-98668095D01*
X118616190Y-98763333D01*
X118616190Y-99144286D01*
X119092381Y-97620476D02*
X119092381Y-98191905D01*
X119092381Y-97906191D02*
X118092381Y-97906191D01*
X118235238Y-98001429D01*
X118330476Y-98096667D01*
X118378095Y-98191905D01*
X119092381Y-97144286D02*
X119092381Y-96953810D01*
X119044762Y-96858571D01*
X118997143Y-96810952D01*
X118854286Y-96715714D01*
X118663810Y-96668095D01*
X118282857Y-96668095D01*
X118187619Y-96715714D01*
X118140000Y-96763333D01*
X118092381Y-96858571D01*
X118092381Y-97049048D01*
X118140000Y-97144286D01*
X118187619Y-97191905D01*
X118282857Y-97239524D01*
X118520952Y-97239524D01*
X118616190Y-97191905D01*
X118663810Y-97144286D01*
X118711429Y-97049048D01*
X118711429Y-96858571D01*
X118663810Y-96763333D01*
X118616190Y-96715714D01*
X118520952Y-96668095D01*
X120852381Y-98532857D02*
X120376190Y-98866191D01*
X120852381Y-99104286D02*
X119852381Y-99104286D01*
X119852381Y-98723333D01*
X119900000Y-98628095D01*
X119947619Y-98580476D01*
X120042857Y-98532857D01*
X120185714Y-98532857D01*
X120280952Y-98580476D01*
X120328571Y-98628095D01*
X120376190Y-98723333D01*
X120376190Y-99104286D01*
X119947619Y-98151905D02*
X119900000Y-98104286D01*
X119852381Y-98009048D01*
X119852381Y-97770952D01*
X119900000Y-97675714D01*
X119947619Y-97628095D01*
X120042857Y-97580476D01*
X120138095Y-97580476D01*
X120280952Y-97628095D01*
X120852381Y-98199524D01*
X120852381Y-97580476D01*
X119852381Y-96961429D02*
X119852381Y-96866190D01*
X119900000Y-96770952D01*
X119947619Y-96723333D01*
X120042857Y-96675714D01*
X120233333Y-96628095D01*
X120471429Y-96628095D01*
X120661905Y-96675714D01*
X120757143Y-96723333D01*
X120804762Y-96770952D01*
X120852381Y-96866190D01*
X120852381Y-96961429D01*
X120804762Y-97056667D01*
X120757143Y-97104286D01*
X120661905Y-97151905D01*
X120471429Y-97199524D01*
X120233333Y-97199524D01*
X120042857Y-97151905D01*
X119947619Y-97104286D01*
X119900000Y-97056667D01*
X119852381Y-96961429D01*
X122027143Y-97582381D02*
X121693809Y-97106190D01*
X121455714Y-97582381D02*
X121455714Y-96582381D01*
X121836667Y-96582381D01*
X121931905Y-96630000D01*
X121979524Y-96677619D01*
X122027143Y-96772857D01*
X122027143Y-96915714D01*
X121979524Y-97010952D01*
X121931905Y-97058571D01*
X121836667Y-97106190D01*
X121455714Y-97106190D01*
X122408095Y-96677619D02*
X122455714Y-96630000D01*
X122550952Y-96582381D01*
X122789048Y-96582381D01*
X122884286Y-96630000D01*
X122931905Y-96677619D01*
X122979524Y-96772857D01*
X122979524Y-96868095D01*
X122931905Y-97010952D01*
X122360476Y-97582381D01*
X122979524Y-97582381D01*
X123931905Y-97582381D02*
X123360476Y-97582381D01*
X123646190Y-97582381D02*
X123646190Y-96582381D01*
X123550952Y-96725238D01*
X123455714Y-96820476D01*
X123360476Y-96868095D01*
X127027143Y-97562381D02*
X126693809Y-97086190D01*
X126455714Y-97562381D02*
X126455714Y-96562381D01*
X126836667Y-96562381D01*
X126931905Y-96610000D01*
X126979524Y-96657619D01*
X127027143Y-96752857D01*
X127027143Y-96895714D01*
X126979524Y-96990952D01*
X126931905Y-97038571D01*
X126836667Y-97086190D01*
X126455714Y-97086190D01*
X127408095Y-96657619D02*
X127455714Y-96610000D01*
X127550952Y-96562381D01*
X127789048Y-96562381D01*
X127884286Y-96610000D01*
X127931905Y-96657619D01*
X127979524Y-96752857D01*
X127979524Y-96848095D01*
X127931905Y-96990952D01*
X127360476Y-97562381D01*
X127979524Y-97562381D01*
X128360476Y-96657619D02*
X128408095Y-96610000D01*
X128503333Y-96562381D01*
X128741429Y-96562381D01*
X128836667Y-96610000D01*
X128884286Y-96657619D01*
X128931905Y-96752857D01*
X128931905Y-96848095D01*
X128884286Y-96990952D01*
X128312857Y-97562381D01*
X128931905Y-97562381D01*
X129787143Y-97522381D02*
X129453809Y-97046190D01*
X129215714Y-97522381D02*
X129215714Y-96522381D01*
X129596667Y-96522381D01*
X129691905Y-96570000D01*
X129739524Y-96617619D01*
X129787143Y-96712857D01*
X129787143Y-96855714D01*
X129739524Y-96950952D01*
X129691905Y-96998571D01*
X129596667Y-97046190D01*
X129215714Y-97046190D01*
X130168095Y-96617619D02*
X130215714Y-96570000D01*
X130310952Y-96522381D01*
X130549048Y-96522381D01*
X130644286Y-96570000D01*
X130691905Y-96617619D01*
X130739524Y-96712857D01*
X130739524Y-96808095D01*
X130691905Y-96950952D01*
X130120476Y-97522381D01*
X130739524Y-97522381D01*
X131072857Y-96522381D02*
X131691905Y-96522381D01*
X131358571Y-96903333D01*
X131501429Y-96903333D01*
X131596667Y-96950952D01*
X131644286Y-96998571D01*
X131691905Y-97093810D01*
X131691905Y-97331905D01*
X131644286Y-97427143D01*
X131596667Y-97474762D01*
X131501429Y-97522381D01*
X131215714Y-97522381D01*
X131120476Y-97474762D01*
X131072857Y-97427143D01*
X150847143Y-92082381D02*
X150513809Y-91606190D01*
X150275714Y-92082381D02*
X150275714Y-91082381D01*
X150656667Y-91082381D01*
X150751905Y-91130000D01*
X150799524Y-91177619D01*
X150847143Y-91272857D01*
X150847143Y-91415714D01*
X150799524Y-91510952D01*
X150751905Y-91558571D01*
X150656667Y-91606190D01*
X150275714Y-91606190D01*
X151228095Y-91177619D02*
X151275714Y-91130000D01*
X151370952Y-91082381D01*
X151609048Y-91082381D01*
X151704286Y-91130000D01*
X151751905Y-91177619D01*
X151799524Y-91272857D01*
X151799524Y-91368095D01*
X151751905Y-91510952D01*
X151180476Y-92082381D01*
X151799524Y-92082381D01*
X152656667Y-91415714D02*
X152656667Y-92082381D01*
X152418571Y-91034762D02*
X152180476Y-91749048D01*
X152799524Y-91749048D01*
X139628095Y-102662381D02*
X139628095Y-103471905D01*
X139675714Y-103567143D01*
X139723333Y-103614762D01*
X139818571Y-103662381D01*
X140009048Y-103662381D01*
X140104286Y-103614762D01*
X140151905Y-103567143D01*
X140199524Y-103471905D01*
X140199524Y-102662381D01*
X140580476Y-102662381D02*
X141199524Y-102662381D01*
X140866190Y-103043333D01*
X141009048Y-103043333D01*
X141104286Y-103090952D01*
X141151905Y-103138571D01*
X141199524Y-103233810D01*
X141199524Y-103471905D01*
X141151905Y-103567143D01*
X141104286Y-103614762D01*
X141009048Y-103662381D01*
X140723333Y-103662381D01*
X140628095Y-103614762D01*
X140580476Y-103567143D01*
X107292381Y-97616666D02*
X106816190Y-97950000D01*
X107292381Y-98188095D02*
X106292381Y-98188095D01*
X106292381Y-97807142D01*
X106340000Y-97711904D01*
X106387619Y-97664285D01*
X106482857Y-97616666D01*
X106625714Y-97616666D01*
X106720952Y-97664285D01*
X106768571Y-97711904D01*
X106816190Y-97807142D01*
X106816190Y-98188095D01*
X106292381Y-97283333D02*
X106292381Y-96664285D01*
X106673333Y-96997619D01*
X106673333Y-96854761D01*
X106720952Y-96759523D01*
X106768571Y-96711904D01*
X106863810Y-96664285D01*
X107101905Y-96664285D01*
X107197143Y-96711904D01*
X107244762Y-96759523D01*
X107292381Y-96854761D01*
X107292381Y-97140476D01*
X107244762Y-97235714D01*
X107197143Y-97283333D01*
X159522381Y-110032857D02*
X159046190Y-110366191D01*
X159522381Y-110604286D02*
X158522381Y-110604286D01*
X158522381Y-110223333D01*
X158570000Y-110128095D01*
X158617619Y-110080476D01*
X158712857Y-110032857D01*
X158855714Y-110032857D01*
X158950952Y-110080476D01*
X158998571Y-110128095D01*
X159046190Y-110223333D01*
X159046190Y-110604286D01*
X159522381Y-109080476D02*
X159522381Y-109651905D01*
X159522381Y-109366191D02*
X158522381Y-109366191D01*
X158665238Y-109461429D01*
X158760476Y-109556667D01*
X158808095Y-109651905D01*
X159522381Y-108128095D02*
X159522381Y-108699524D01*
X159522381Y-108413810D02*
X158522381Y-108413810D01*
X158665238Y-108509048D01*
X158760476Y-108604286D01*
X158808095Y-108699524D01*
X108368095Y-91512381D02*
X108368095Y-92321905D01*
X108415714Y-92417143D01*
X108463333Y-92464762D01*
X108558571Y-92512381D01*
X108749048Y-92512381D01*
X108844286Y-92464762D01*
X108891905Y-92417143D01*
X108939524Y-92321905D01*
X108939524Y-91512381D01*
X109368095Y-91607619D02*
X109415714Y-91560000D01*
X109510952Y-91512381D01*
X109749048Y-91512381D01*
X109844286Y-91560000D01*
X109891905Y-91607619D01*
X109939524Y-91702857D01*
X109939524Y-91798095D01*
X109891905Y-91940952D01*
X109320476Y-92512381D01*
X109939524Y-92512381D01*
M02*
