G04 #@! TF.FileFunction,Copper,L1,Top,Signal*
%FSLAX46Y46*%
G04 Gerber Fmt 4.6, Leading zero omitted, Abs format (unit mm)*
G04 Created by KiCad (PCBNEW 4.0.7-e2-6376~61~ubuntu18.04.1) date Sat Sep 28 19:31:04 2019*
%MOMM*%
%LPD*%
G01*
G04 APERTURE LIST*
%ADD10C,0.100000*%
%ADD11R,1.250000X1.500000*%
%ADD12R,0.800000X0.900000*%
%ADD13R,0.900000X0.800000*%
%ADD14R,1.300000X1.500000*%
%ADD15R,0.650000X1.560000*%
%ADD16O,1.998980X1.998980*%
%ADD17R,1.998980X1.998980*%
%ADD18R,3.500000X2.000000*%
%ADD19R,7.000000X7.000000*%
%ADD20C,2.400000*%
%ADD21O,2.400000X2.400000*%
%ADD22C,4.500000*%
%ADD23R,1.727200X1.727200*%
%ADD24O,1.727200X1.727200*%
%ADD25C,0.685800*%
%ADD26C,0.381000*%
%ADD27C,0.750000*%
%ADD28C,1.000000*%
G04 APERTURE END LIST*
D10*
D11*
X128892700Y-101488300D03*
X128892700Y-98988300D03*
X130873900Y-101488300D03*
X130873900Y-98988300D03*
X128361840Y-104248640D03*
X128361840Y-106748640D03*
D12*
X111490000Y-93650000D03*
X109590000Y-93650000D03*
X110540000Y-95650000D03*
X115010000Y-93640000D03*
X113110000Y-93640000D03*
X114060000Y-95640000D03*
D13*
X122927000Y-110243320D03*
X122927000Y-112143320D03*
X124927000Y-111193320D03*
D14*
X131308240Y-106823240D03*
X131308240Y-104123240D03*
X124927760Y-104168960D03*
X124927760Y-106868960D03*
X127080000Y-110080000D03*
X127080000Y-112780000D03*
X129980000Y-109990000D03*
X129980000Y-112690000D03*
X120752000Y-109975400D03*
X120752000Y-112675400D03*
D15*
X126794700Y-98774000D03*
X125844700Y-98774000D03*
X124894700Y-98774000D03*
X124894700Y-101474000D03*
X126794700Y-101474000D03*
D11*
X132893200Y-95201800D03*
X132893200Y-92701800D03*
X116710000Y-92950000D03*
X116710000Y-95450000D03*
X144890000Y-95740000D03*
X144890000Y-93240000D03*
X135369700Y-101335900D03*
X135369700Y-98835900D03*
X137427100Y-101221600D03*
X137427100Y-98721600D03*
X134739780Y-106967080D03*
X134739780Y-104467080D03*
D12*
X138902880Y-93911920D03*
X137002880Y-93911920D03*
X137952880Y-95911920D03*
X142834800Y-93896680D03*
X140934800Y-93896680D03*
X141884800Y-95896680D03*
D16*
X164690000Y-101310000D03*
D17*
X164690000Y-106390000D03*
D16*
X164690000Y-103850000D03*
X164690000Y-94950000D03*
D17*
X164690000Y-97490000D03*
D16*
X152050000Y-110150000D03*
D17*
X146970000Y-110150000D03*
D16*
X149510000Y-110150000D03*
X117754800Y-109979200D03*
D17*
X112674800Y-109979200D03*
D16*
X115214800Y-109979200D03*
D18*
X120080000Y-104990000D03*
X120080000Y-100410000D03*
D19*
X112680000Y-102690000D03*
D18*
X144656720Y-100282560D03*
X144656720Y-104862560D03*
D19*
X152056720Y-102582560D03*
D13*
X141646800Y-109880100D03*
X141646800Y-111780100D03*
X143646800Y-110830100D03*
D14*
X125290000Y-95340000D03*
X125290000Y-92640000D03*
X158190000Y-93140000D03*
X158190000Y-95840000D03*
X139294000Y-109670600D03*
X139294000Y-112370600D03*
X134722000Y-112446800D03*
X134722000Y-109746800D03*
X136974980Y-106983260D03*
X136974980Y-104283260D03*
X137008000Y-109696000D03*
X137008000Y-112396000D03*
X154840000Y-111670000D03*
X154840000Y-108970000D03*
X147035920Y-93208480D03*
X147035920Y-95908480D03*
X149238100Y-93139900D03*
X149238100Y-95839900D03*
X153543400Y-93101800D03*
X153543400Y-95801800D03*
X155791300Y-93139900D03*
X155791300Y-95839900D03*
X118520000Y-95620000D03*
X118520000Y-92920000D03*
X120400000Y-95640000D03*
X120400000Y-92940000D03*
X122890000Y-95440000D03*
X122890000Y-92740000D03*
X127880000Y-95330000D03*
X127880000Y-92630000D03*
X130490000Y-95330000D03*
X130490000Y-92630000D03*
X151409800Y-95954200D03*
X151409800Y-93254200D03*
D15*
X141272700Y-98812100D03*
X140322700Y-98812100D03*
X139372700Y-98812100D03*
X139372700Y-101512100D03*
X141272700Y-101512100D03*
D20*
X106832800Y-107109000D03*
D21*
X106832800Y-94409000D03*
D20*
X158790000Y-112590000D03*
D21*
X158790000Y-99890000D03*
D22*
X164891100Y-88993600D03*
X164891100Y-111993600D03*
X106891100Y-111993600D03*
D23*
X111491100Y-90293600D03*
D24*
X111491100Y-87753600D03*
X114031100Y-90293600D03*
X114031100Y-87753600D03*
X116571100Y-90293600D03*
X116571100Y-87753600D03*
X119111100Y-90293600D03*
X119111100Y-87753600D03*
X121651100Y-90293600D03*
X121651100Y-87753600D03*
X124191100Y-90293600D03*
X124191100Y-87753600D03*
X126731100Y-90293600D03*
X126731100Y-87753600D03*
X129271100Y-90293600D03*
X129271100Y-87753600D03*
X131811100Y-90293600D03*
X131811100Y-87753600D03*
X134351100Y-90293600D03*
X134351100Y-87753600D03*
X136891100Y-90293600D03*
X136891100Y-87753600D03*
X139431100Y-90293600D03*
X139431100Y-87753600D03*
X141971100Y-90293600D03*
X141971100Y-87753600D03*
X144511100Y-90293600D03*
X144511100Y-87753600D03*
X147051100Y-90293600D03*
X147051100Y-87753600D03*
X149591100Y-90293600D03*
X149591100Y-87753600D03*
X152131100Y-90293600D03*
X152131100Y-87753600D03*
X154671100Y-90293600D03*
X154671100Y-87753600D03*
X157211100Y-90293600D03*
X157211100Y-87753600D03*
X159751100Y-90293600D03*
X159751100Y-87753600D03*
D22*
X106891100Y-88993600D03*
D25*
X115350000Y-96770000D03*
X123840640Y-97655120D03*
X126599080Y-95526600D03*
X156380000Y-109510000D03*
X115010000Y-94530000D03*
X111510000Y-94700000D03*
X166192600Y-108937800D03*
X142824600Y-112062000D03*
X140132200Y-97431600D03*
X135382400Y-97507800D03*
X142824600Y-94840800D03*
X139883280Y-93834960D03*
X134061600Y-93774000D03*
X121580040Y-94988120D03*
X125118260Y-100106220D03*
X132253120Y-98871780D03*
X122933860Y-113205000D03*
X119177200Y-112646200D03*
X134963300Y-92277940D03*
X160390000Y-106490000D03*
X160290000Y-102290000D03*
X160890000Y-97790000D03*
X160690000Y-92290000D03*
X143390000Y-92290000D03*
X139690000Y-92190000D03*
X135636400Y-88917520D03*
X147955400Y-97888800D03*
X146279000Y-97812600D03*
X140767200Y-96491800D03*
X142977000Y-96568000D03*
X112960000Y-95930000D03*
X113050000Y-97620000D03*
X122301400Y-97822760D03*
X123657760Y-100505000D03*
X124907440Y-102836720D03*
X126736240Y-103588560D03*
X129769000Y-107302040D03*
X128534560Y-109694720D03*
X141300600Y-97507800D03*
X136677800Y-102791000D03*
X143205600Y-98092000D03*
X142113400Y-100149400D03*
X140233800Y-101876600D03*
X140233800Y-104061000D03*
X157150200Y-102714800D03*
X157150200Y-105153200D03*
X131369200Y-96669600D03*
X138506600Y-105000800D03*
X140840000Y-106260000D03*
X142500000Y-108310000D03*
X146890000Y-106720000D03*
X120071280Y-94401380D03*
X130090000Y-93980000D03*
X148650000Y-107870000D03*
X157260000Y-107370000D03*
X125776120Y-109649000D03*
X126461920Y-106829600D03*
X123383440Y-107286800D03*
X124876960Y-110113820D03*
X143993000Y-102994200D03*
X143866000Y-106855000D03*
X138608200Y-108226600D03*
X133477400Y-108379000D03*
X138176400Y-110995200D03*
X142570600Y-110842800D03*
X150241400Y-97152200D03*
X137846200Y-97203000D03*
X135890400Y-94688400D03*
X124079400Y-94815400D03*
X129057800Y-96695000D03*
X129794400Y-103095800D03*
X145390000Y-102968800D03*
X144700000Y-109010000D03*
D26*
X110540000Y-95650000D02*
X111102540Y-96087940D01*
X111102540Y-96087940D02*
X111785800Y-96771200D01*
X111785800Y-96771200D02*
X115350000Y-96770000D01*
X125989480Y-97319840D02*
X125687220Y-97319840D01*
X124894700Y-97871060D02*
X124894700Y-98774000D01*
X125128420Y-97637340D02*
X124894700Y-97871060D01*
X125369720Y-97637340D02*
X125128420Y-97637340D01*
X125687220Y-97319840D02*
X125369720Y-97637340D01*
X128275480Y-97523040D02*
X125989480Y-97319840D01*
X125989480Y-97319840D02*
X125928520Y-97380800D01*
X132893200Y-95201800D02*
X132893200Y-96420680D01*
X132146440Y-97523040D02*
X128275480Y-97523040D01*
X128275480Y-97523040D02*
X128214520Y-97523040D01*
X132893200Y-96420680D02*
X132146440Y-97523040D01*
X124894700Y-98774000D02*
X124894700Y-98709180D01*
X124894700Y-98709180D02*
X123840640Y-97655120D01*
X126599080Y-95526600D02*
X126585400Y-95540280D01*
X126585400Y-95540280D02*
X125290000Y-95340000D01*
X154840000Y-108970000D02*
X156350000Y-109540000D01*
X156350000Y-109540000D02*
X156380000Y-109510000D01*
X115010000Y-93640000D02*
X115010000Y-94530000D01*
X115930000Y-95450000D02*
X116710000Y-95450000D01*
X115010000Y-94530000D02*
X115930000Y-95450000D01*
X111490000Y-93650000D02*
X111490000Y-94680000D01*
X111490000Y-94680000D02*
X111510000Y-94700000D01*
X164998800Y-110127800D02*
X165002600Y-110127800D01*
X165002600Y-110127800D02*
X166192600Y-108937800D01*
X141646800Y-111780100D02*
X142789800Y-112027200D01*
X142789800Y-112027200D02*
X142824600Y-112062000D01*
X140322700Y-98812100D02*
X140119500Y-97444300D01*
X140119500Y-97444300D02*
X140132200Y-97431600D01*
X137427100Y-98721600D02*
X135420500Y-97545900D01*
X135420500Y-97545900D02*
X135382400Y-97507800D01*
X137427100Y-98721600D02*
X135484000Y-98721600D01*
X135484000Y-98721600D02*
X135369700Y-98835900D01*
X142834800Y-93896680D02*
X142834800Y-94830600D01*
X142834800Y-94830600D02*
X142824600Y-94840800D01*
X142834800Y-93896680D02*
X144233320Y-93896680D01*
X144233320Y-93896680D02*
X144890000Y-93240000D01*
X138902880Y-93911920D02*
X139806320Y-93911920D01*
X139806320Y-93911920D02*
X139883280Y-93834960D01*
X132893200Y-92701800D02*
X132893200Y-92737680D01*
X132893200Y-92737680D02*
X134061600Y-93774000D01*
X121651100Y-90293600D02*
X121630780Y-94937380D01*
X121630780Y-94937380D02*
X121580040Y-94988120D01*
X125844700Y-98774000D02*
X125844700Y-99471220D01*
X125844700Y-99471220D02*
X125209700Y-100106220D01*
X125209700Y-100106220D02*
X125118260Y-100106220D01*
X128892700Y-98988300D02*
X130873900Y-98988300D01*
X130873900Y-98988300D02*
X130990420Y-98871780D01*
X130990420Y-98871780D02*
X132253120Y-98871780D01*
X122927000Y-112143320D02*
X122927000Y-113198140D01*
X122927000Y-113198140D02*
X122933860Y-113205000D01*
X134351100Y-87753600D02*
X134351100Y-87896380D01*
X134351100Y-87753600D02*
X134351100Y-88109860D01*
X134351100Y-88109860D02*
X133076080Y-89384880D01*
X133076080Y-89384880D02*
X133076080Y-92518920D01*
X133076080Y-92518920D02*
X132893200Y-92701800D01*
X120975520Y-112675400D02*
X119214020Y-112683020D01*
X119214020Y-112683020D02*
X119177200Y-112646200D01*
X164998800Y-112827800D02*
X163631000Y-112827800D01*
D27*
X133510420Y-101488300D02*
X133510420Y-97921820D01*
X134963300Y-96468940D02*
X134963300Y-92277940D01*
X133510420Y-97921820D02*
X134963300Y-96468940D01*
X141272700Y-101512100D02*
X141272700Y-102536960D01*
X137427100Y-102201720D02*
X137427100Y-101221600D01*
X138399920Y-103174540D02*
X137427100Y-102201720D01*
X140635120Y-103174540D02*
X138399920Y-103174540D01*
X141272700Y-102536960D02*
X140635120Y-103174540D01*
X135369700Y-101335900D02*
X137312800Y-101335900D01*
X137312800Y-101335900D02*
X137427100Y-101221600D01*
X130873900Y-101488300D02*
X133510420Y-101488300D01*
X133510420Y-101488300D02*
X135217300Y-101488300D01*
X135217300Y-101488300D02*
X135369700Y-101335900D01*
X126794700Y-101474000D02*
X128878400Y-101474000D01*
X128878400Y-101474000D02*
X128892700Y-101488300D01*
X128892700Y-101488300D02*
X130873900Y-101488300D01*
D28*
X160490000Y-96890000D02*
X160490000Y-97390000D01*
X160390000Y-102390000D02*
X160390000Y-106490000D01*
X160290000Y-102290000D02*
X160390000Y-102390000D01*
X160490000Y-97390000D02*
X160890000Y-97790000D01*
X160490000Y-96890000D02*
X160490000Y-96990000D01*
X160590000Y-96790000D02*
X160490000Y-96890000D01*
X160590000Y-92390000D02*
X160590000Y-96790000D01*
X160690000Y-92290000D02*
X160590000Y-92390000D01*
X139790000Y-92290000D02*
X143390000Y-92290000D01*
X139690000Y-92190000D02*
X139790000Y-92290000D01*
X114031100Y-87753600D02*
X111491100Y-87753600D01*
D26*
X116710000Y-92950000D02*
X116410000Y-92950000D01*
X116410000Y-92950000D02*
X115781700Y-92321700D01*
X115781700Y-92321700D02*
X112006551Y-92321700D01*
X140934800Y-93896680D02*
X140934800Y-94292200D01*
X140934800Y-94292200D02*
X140335400Y-94891600D01*
X140335400Y-94891600D02*
X137982560Y-94891600D01*
X137982560Y-94891600D02*
X137002880Y-93911920D01*
X137002880Y-93911920D02*
X137002880Y-92661440D01*
X135636400Y-91294960D02*
X135636400Y-88917520D01*
X137002880Y-92661440D02*
X135636400Y-91294960D01*
X111491100Y-90293600D02*
X111491100Y-90690500D01*
X111491100Y-90293600D02*
X111491100Y-92224540D01*
X112006551Y-92321700D02*
X113110000Y-93640000D01*
X111506280Y-92209360D02*
X112006551Y-92321700D01*
X111491100Y-92224540D02*
X111506280Y-92209360D01*
X111491100Y-90293600D02*
X111491100Y-90974980D01*
X111491100Y-90974980D02*
X110152540Y-92313540D01*
X110152540Y-92313540D02*
X109610000Y-93720000D01*
X158190000Y-93140000D02*
X158827600Y-93140000D01*
X158827600Y-93140000D02*
X159537800Y-93850200D01*
X159537800Y-93850200D02*
X159537800Y-97050600D01*
X159537800Y-97050600D02*
X159207600Y-97380800D01*
X159207600Y-97380800D02*
X155169000Y-97380800D01*
X155169000Y-97380800D02*
X154661000Y-97888800D01*
X154661000Y-97888800D02*
X147955400Y-97888800D01*
X146279000Y-97812600D02*
X144890000Y-96423600D01*
X144890000Y-96423600D02*
X144890000Y-95740000D01*
X144890000Y-95740000D02*
X143805000Y-95740000D01*
X140576700Y-96301300D02*
X138570100Y-96301300D01*
X140767200Y-96491800D02*
X140576700Y-96301300D01*
X143805000Y-95740000D02*
X142977000Y-96568000D01*
X137952880Y-95911920D02*
X138180720Y-95911920D01*
X138180720Y-95911920D02*
X138570100Y-96301300D01*
X138570100Y-96301300D02*
X139372700Y-97103900D01*
X139372700Y-97103900D02*
X139372700Y-98812100D01*
X128361840Y-104248640D02*
X128361840Y-103527600D01*
X128361840Y-103527600D02*
X127711600Y-102877360D01*
X126794700Y-100055380D02*
X126794700Y-98774000D01*
X126756560Y-100093520D02*
X126794700Y-100055380D01*
X126106320Y-100093520D02*
X126756560Y-100093520D01*
X125801520Y-100398320D02*
X126106320Y-100093520D01*
X125801520Y-102450640D02*
X125801520Y-100398320D01*
X126228240Y-102877360D02*
X125801520Y-102450640D01*
X127711600Y-102877360D02*
X126228240Y-102877360D01*
X131308240Y-104123240D02*
X128502480Y-104108000D01*
X128502480Y-104108000D02*
X128361840Y-104248640D01*
X118400000Y-97648378D02*
X113078378Y-97648378D01*
X113250000Y-95640000D02*
X114060000Y-95640000D01*
X112960000Y-95930000D02*
X113250000Y-95640000D01*
X113078378Y-97648378D02*
X113050000Y-97620000D01*
X124894700Y-101474000D02*
X124626760Y-101474000D01*
X124626760Y-101474000D02*
X123657760Y-100505000D01*
X118411783Y-97648378D02*
X118400000Y-97648378D01*
X118400000Y-97648378D02*
X118398145Y-97648378D01*
X118533703Y-97770298D02*
X118411783Y-97648378D01*
X122255680Y-97777040D02*
X118533703Y-97770298D01*
X122301400Y-97822760D02*
X122255680Y-97777040D01*
X128361840Y-106748640D02*
X128361840Y-105905040D01*
X124894700Y-102823980D02*
X124894700Y-101474000D01*
X124907440Y-102836720D02*
X124894700Y-102823980D01*
X127162960Y-104015280D02*
X126736240Y-103588560D01*
X127162960Y-105417360D02*
X127162960Y-104015280D01*
X127264560Y-105518960D02*
X127162960Y-105417360D01*
X127975760Y-105518960D02*
X127264560Y-105518960D01*
X128361840Y-105905040D02*
X127975760Y-105518960D01*
X127084220Y-112850660D02*
X127776380Y-112850660D01*
X129769000Y-107302040D02*
X128361840Y-107002320D01*
X128504080Y-112122960D02*
X128534560Y-109694720D01*
X127776380Y-112850660D02*
X128504080Y-112122960D01*
X128361840Y-107002320D02*
X128361840Y-106748640D01*
X134739780Y-106967080D02*
X134046680Y-106967080D01*
X141272700Y-97535700D02*
X141272700Y-98812100D01*
X141300600Y-97507800D02*
X141272700Y-97535700D01*
X134188600Y-102791000D02*
X136677800Y-102791000D01*
X133604400Y-103375200D02*
X134188600Y-102791000D01*
X133604400Y-106524800D02*
X133604400Y-103375200D01*
X134046680Y-106967080D02*
X133604400Y-106524800D01*
X134722000Y-109746800D02*
X134722000Y-106984860D01*
X134722000Y-106984860D02*
X134739780Y-106967080D01*
X139372700Y-101512100D02*
X139372700Y-101162900D01*
X139372700Y-101162900D02*
X140386200Y-100149400D01*
X141884800Y-96771200D02*
X141884800Y-95896680D01*
X143205600Y-98092000D02*
X141884800Y-96771200D01*
X140386200Y-100149400D02*
X142113400Y-100149400D01*
X136974980Y-104283260D02*
X140011540Y-104283260D01*
X139869300Y-101512100D02*
X139372700Y-101512100D01*
X140233800Y-101876600D02*
X139869300Y-101512100D01*
X140011540Y-104283260D02*
X140233800Y-104061000D01*
X134739780Y-104467080D02*
X136791160Y-104467080D01*
X136791160Y-104467080D02*
X136974980Y-104283260D01*
X157150200Y-102714800D02*
X157150200Y-105153200D01*
X138506600Y-105331000D02*
X138506600Y-105000800D01*
X140840000Y-106260000D02*
X138506600Y-105331000D01*
X131369200Y-96669600D02*
X130454800Y-95247200D01*
X145332600Y-108277400D02*
X142500000Y-108310000D01*
X146890000Y-106720000D02*
X145332600Y-108277400D01*
X130454800Y-95247200D02*
X130454800Y-95187500D01*
X120190000Y-94520100D02*
X120190000Y-95640000D01*
X120071280Y-94401380D02*
X120190000Y-94520100D01*
X130454800Y-95187500D02*
X130454800Y-94083880D01*
X130454800Y-94083880D02*
X130090000Y-93980000D01*
X158790000Y-112590000D02*
X158790000Y-112710000D01*
X158790000Y-112710000D02*
X156910000Y-114590000D01*
X156090000Y-114590000D02*
X110134800Y-114590000D01*
X156910000Y-114590000D02*
X156090000Y-114590000D01*
X162390000Y-109390000D02*
X161990000Y-109390000D01*
X164890000Y-97490000D02*
X163090000Y-97490000D01*
X162390000Y-98590000D02*
X162390000Y-109390000D01*
X163090000Y-97490000D02*
X162390000Y-98590000D01*
X161990000Y-109390000D02*
X158790000Y-112590000D01*
X110134800Y-114590000D02*
X110134800Y-113103400D01*
X110388800Y-110665000D02*
X106832800Y-107109000D01*
X110388800Y-112849400D02*
X110388800Y-110665000D01*
X110134800Y-113103400D02*
X110388800Y-112849400D01*
X110134800Y-114590000D02*
X110090000Y-114590000D01*
X164890000Y-97490000D02*
X164690000Y-94950000D01*
X154840000Y-111670000D02*
X154140000Y-112240000D01*
X154140000Y-112240000D02*
X152050000Y-110150000D01*
X146970000Y-110150000D02*
X146970000Y-109550000D01*
X146970000Y-109550000D02*
X148650000Y-107870000D01*
X158621200Y-101895600D02*
X158610000Y-100290000D01*
X158480000Y-106980000D02*
X158621200Y-101895600D01*
X157480400Y-107464600D02*
X158480000Y-106980000D01*
X157310800Y-107420800D02*
X157480400Y-107464600D01*
X157260000Y-107370000D02*
X157310800Y-107420800D01*
X149510000Y-110150000D02*
X151830000Y-102809280D01*
X151830000Y-102809280D02*
X152056720Y-102582560D01*
X117754800Y-109979200D02*
X120968540Y-109982380D01*
X120968540Y-109982380D02*
X120975520Y-109975400D01*
X115214800Y-109979200D02*
X113433000Y-103247420D01*
X113433000Y-103247420D02*
X112873040Y-102687460D01*
X112951320Y-99324340D02*
X114068600Y-99324340D01*
X113649500Y-104924420D02*
X112908600Y-104183520D01*
X131308240Y-106823240D02*
X131308240Y-107390940D01*
X131308240Y-107390940D02*
X130467500Y-108231680D01*
X130467500Y-108231680D02*
X123116740Y-108231680D01*
X123116740Y-108231680D02*
X121470040Y-106584980D01*
X121470040Y-106584980D02*
X120273040Y-104987460D01*
X127084220Y-110150660D02*
X126775620Y-110150660D01*
X126775620Y-110150660D02*
X125776120Y-109649000D01*
X126461920Y-106829600D02*
X126482240Y-106809280D01*
X126482240Y-106809280D02*
X126533040Y-104523280D01*
X126533040Y-104523280D02*
X126178720Y-104168960D01*
X126178720Y-104168960D02*
X124927760Y-104168960D01*
X124927760Y-104168960D02*
X124927760Y-104076240D01*
X124927760Y-104076240D02*
X120273040Y-101182840D01*
X120273040Y-101182840D02*
X120273040Y-100407460D01*
X122927000Y-110243320D02*
X123129480Y-110243320D01*
X123129480Y-110243320D02*
X124777900Y-108917480D01*
X124777900Y-108917480D02*
X128719980Y-108917480D01*
X128719980Y-108917480D02*
X129273700Y-109011460D01*
X129273700Y-109011460D02*
X129987440Y-110122720D01*
X123383440Y-107286800D02*
X124927760Y-106961680D01*
X124927760Y-106961680D02*
X124927760Y-106868960D01*
X124927000Y-111193320D02*
X124916840Y-110153700D01*
X124916840Y-110153700D02*
X124876960Y-110113820D01*
X134722000Y-112446800D02*
X133405000Y-112446800D01*
X144656720Y-102330480D02*
X144656720Y-100282560D01*
X143993000Y-102994200D02*
X144656720Y-102330480D01*
X142621400Y-106855000D02*
X143866000Y-106855000D01*
X141249800Y-108226600D02*
X142621400Y-106855000D01*
X138608200Y-108226600D02*
X141249800Y-108226600D01*
X133477400Y-112374400D02*
X133477400Y-108379000D01*
X133405000Y-112446800D02*
X133477400Y-112374400D01*
X136974980Y-106983260D02*
X136974980Y-109662980D01*
X136974980Y-109662980D02*
X137008000Y-109696000D01*
X136974980Y-106983260D02*
X140892940Y-107262660D01*
X143013640Y-105141960D02*
X144656720Y-104862560D01*
X140892940Y-107262660D02*
X143013640Y-105141960D01*
X139294000Y-109670600D02*
X140458600Y-109670600D01*
X140668100Y-109880100D02*
X141646800Y-109880100D01*
X140458600Y-109670600D02*
X140668100Y-109880100D01*
X143646800Y-110830100D02*
X142583300Y-110830100D01*
X138176400Y-110995200D02*
X137008000Y-112163600D01*
X142583300Y-110830100D02*
X142570600Y-110842800D01*
X137008000Y-112163600D02*
X137008000Y-112396000D01*
X122890000Y-95440000D02*
X123454800Y-95440000D01*
X123454800Y-95440000D02*
X124079400Y-94815400D01*
X150241400Y-97152200D02*
X151409800Y-95983800D01*
X135915800Y-95653600D02*
X137846200Y-97203000D01*
X135915800Y-94713800D02*
X135915800Y-95653600D01*
X135890400Y-94688400D02*
X135915800Y-94713800D01*
X151409800Y-95983800D02*
X151409800Y-95954200D01*
X122890000Y-95440000D02*
X122890000Y-95374880D01*
X122890000Y-95374880D02*
X125290000Y-92974880D01*
X125290000Y-92974880D02*
X125290000Y-92640000D01*
X153543400Y-95801800D02*
X155753200Y-95801800D01*
X155753200Y-95801800D02*
X155791400Y-95840000D01*
X155791400Y-95840000D02*
X158190000Y-95840000D01*
X132766200Y-102740200D02*
X130150000Y-102740200D01*
X129057800Y-96695000D02*
X128699660Y-96184460D01*
X128699660Y-96184460D02*
X127902100Y-96184460D01*
X130150000Y-102740200D02*
X129794400Y-103095800D01*
X130532280Y-112822720D02*
X132766200Y-110588800D01*
X132766200Y-110588800D02*
X132766200Y-102740200D01*
X132766200Y-102740200D02*
X132766200Y-102689400D01*
X129987440Y-112822720D02*
X130532280Y-112822720D01*
X118320000Y-95600000D02*
X118320000Y-96800000D01*
X118320000Y-96800000D02*
X118947798Y-96799400D01*
X125517871Y-96800377D02*
X127902100Y-96184460D01*
X118947798Y-96799400D02*
X125517871Y-96800377D01*
X127902100Y-96184460D02*
X127902100Y-95111300D01*
X144501000Y-112849400D02*
X144501000Y-111959000D01*
X140440800Y-112370600D02*
X140919600Y-112849400D01*
X140919600Y-112849400D02*
X144501000Y-112849400D01*
X145390000Y-102968800D02*
X146152000Y-102206800D01*
X146152000Y-102206800D02*
X146634600Y-102206800D01*
X146634600Y-102206800D02*
X147168000Y-101673400D01*
X147168000Y-96040560D02*
X147168000Y-101673400D01*
X140440800Y-112370600D02*
X139294000Y-112370600D01*
X144700000Y-111760000D02*
X144700000Y-109010000D01*
X144501000Y-111959000D02*
X144700000Y-111760000D01*
X147168000Y-96040560D02*
X147035920Y-95908480D01*
X149238100Y-95839900D02*
X147104500Y-95839900D01*
X147104500Y-95839900D02*
X147035920Y-95908480D01*
X147051100Y-90293600D02*
X147051100Y-93193300D01*
X147051100Y-93193300D02*
X147035920Y-93208480D01*
X147035920Y-90308780D02*
X147051100Y-90293600D01*
X149591100Y-90293600D02*
X149591100Y-91617600D01*
X149238100Y-91970600D02*
X149238100Y-93139900D01*
X149591100Y-91617600D02*
X149238100Y-91970600D01*
X149514960Y-90369740D02*
X149591100Y-90293600D01*
X152131100Y-90293600D02*
X152171200Y-90293600D01*
X152171200Y-90293600D02*
X153543400Y-91665800D01*
X153543400Y-91665800D02*
X153543400Y-93101800D01*
X152202280Y-90364780D02*
X152131100Y-90293600D01*
X154671100Y-90293600D02*
X154671100Y-90720860D01*
X154671100Y-90720860D02*
X155791300Y-91841060D01*
X155791300Y-91841060D02*
X155791300Y-93139900D01*
X154661000Y-90303700D02*
X154671100Y-90293600D01*
X119111100Y-87753600D02*
X119111100Y-87960000D01*
X119111100Y-87960000D02*
X117866560Y-89204540D01*
X117866560Y-89204540D02*
X117870000Y-91480000D01*
X117870000Y-91480000D02*
X118340000Y-92820000D01*
X120190000Y-92940000D02*
X120190000Y-91552160D01*
X120396400Y-89008300D02*
X121651100Y-87753600D01*
X120396400Y-91345760D02*
X120396400Y-89008300D01*
X120190000Y-91552160D02*
X120396400Y-91345760D01*
X122890000Y-92740000D02*
X122890000Y-89054700D01*
X122890000Y-89054700D02*
X124191100Y-87753600D01*
X122289500Y-93123100D02*
X122358080Y-93191680D01*
X129271100Y-87753600D02*
X129271100Y-88201300D01*
X129271100Y-88201300D02*
X128016400Y-89456000D01*
X128016400Y-89456000D02*
X128016400Y-92297000D01*
X128016400Y-92297000D02*
X127902100Y-92411300D01*
X131811100Y-87753600D02*
X131811100Y-88114940D01*
X131811100Y-88114940D02*
X130515760Y-89410280D01*
X130515760Y-89410280D02*
X130515760Y-92426540D01*
X130515760Y-92426540D02*
X130454800Y-92487500D01*
X151409800Y-93254200D02*
X151409800Y-91841060D01*
X150853540Y-89016040D02*
X149591100Y-87753600D01*
X150853540Y-91284800D02*
X150853540Y-89016040D01*
X151409800Y-91841060D02*
X150853540Y-91284800D01*
M02*
