M48
;DRILL file {KiCad 4.0.7-e2-6376~61~ubuntu18.04.1} date Sat Apr  6 21:02:17 2019
;FORMAT={-:-/ absolute / inch / decimal}
FMAT,2
INCH,TZ
T1C0.016
T2C0.040
T3C0.043
T4C0.047
T5C0.108
T6C0.043
%
G90
G05
M72
T1
X4.3902Y-3.7283
X4.4472Y-3.7768
X4.4508Y-3.8433
X4.528Y-3.7217
X4.5413Y-3.8098
X4.692Y-4.4349
X4.7272Y-3.7166
X4.7866Y-3.7397
X4.815Y-3.8513
X4.8399Y-4.4569
X4.8576Y-4.2239
X4.8684Y-3.9569
X4.8756Y-3.8447
X4.885Y-3.7329
X4.9164Y-4.3352
X4.9176Y-4.0487
X4.9259Y-3.9412
X4.9518Y-4.3169
X4.9788Y-4.2059
X4.9842Y-3.7609
X4.9896Y-4.0783
X5.0604Y-4.3187
X5.081Y-3.8069
X5.109Y-4.2245
X5.11Y-4.0589
X5.1217Y-3.7
X5.172Y-3.8059
X5.2068Y-3.8926
X5.255Y-4.2669
X5.278Y-3.6919
X5.3135Y-3.633
X5.33Y-3.8389
X5.34Y-3.5007
X5.35Y-3.7279
X5.381Y-4.0469
X5.427Y-3.8269
X5.44Y-4.3699
X5.453Y-4.1339
X5.457Y-4.2609
X5.4996Y-3.6295
X5.5072Y-3.6943
X5.517Y-3.8359
X5.521Y-4.0109
X5.521Y-4.0969
X5.542Y-3.7989
X5.5449Y-4.1835
X5.563Y-3.8389
X5.595Y-3.9429
X5.6102Y-4.2642
X5.613Y-4.3639
X5.623Y-3.7339
X5.623Y-4.4119
X5.629Y-3.8019
X5.638Y-3.8619
X5.6453Y-3.6335
X5.664Y-4.2069
X5.669Y-4.0549
X5.6969Y-4.2917
X5.724Y-4.0539
X5.759Y-3.8509
X5.7831Y-4.2016
X5.825Y-3.8539
X5.8524Y-4.2469
X5.915Y-3.8249
X6.1567Y-4.3114
X6.187Y-4.0439
X6.187Y-4.1399
X6.1913Y-4.2272
X6.3106Y-4.0272
X6.3146Y-4.1925
X6.3264Y-3.6335
X6.3343Y-3.85
X6.543Y-4.2889
T2
X4.3894Y-3.4549
X4.3894Y-3.5549
X4.4894Y-3.4549
X4.4894Y-3.5549
X4.5894Y-3.4549
X4.5894Y-3.5549
X4.6894Y-3.4549
X4.6894Y-3.5549
X4.7894Y-3.4549
X4.7894Y-3.5549
X4.8894Y-3.4549
X4.8894Y-3.5549
X4.9894Y-3.4549
X4.9894Y-3.5549
X5.0894Y-3.4549
X5.0894Y-3.5549
X5.1894Y-3.4549
X5.1894Y-3.5549
X5.2894Y-3.4549
X5.2894Y-3.5549
X5.3894Y-3.4549
X5.3894Y-3.5549
X5.4894Y-3.4549
X5.4894Y-3.5549
X5.5894Y-3.4549
X5.5894Y-3.5549
X5.6894Y-3.4549
X5.6894Y-3.5549
X5.7894Y-3.4549
X5.7894Y-3.5549
X5.8894Y-3.4549
X5.8894Y-3.5549
X5.9894Y-3.4549
X5.9894Y-3.5549
X6.0894Y-3.4549
X6.0894Y-3.5549
X6.1894Y-3.4549
X6.1894Y-3.5549
X6.2894Y-3.4549
X6.2894Y-3.5549
T3
X4.436Y-4.3299
X4.536Y-4.3299
X4.636Y-4.3299
X5.7862Y-4.3366
X5.8862Y-4.3366
X5.9862Y-4.3366
X6.4839Y-3.7382
X6.4839Y-3.8382
X6.4839Y-3.9886
X6.4839Y-4.0886
X6.4839Y-4.1886
T4
X4.206Y-3.7169
X4.206Y-4.2169
X6.2516Y-3.9327
X6.2516Y-4.4327
T5
X4.2083Y-3.5037
X4.2083Y-4.4092
X6.4918Y-3.5037
X6.4918Y-4.4092
T6
X4.436Y-4.4299
X4.536Y-4.4299
X4.636Y-4.4299
X5.7862Y-4.4366
X5.8862Y-4.4366
X5.9862Y-4.4366
X6.5839Y-3.7382
X6.5839Y-3.8382
X6.5839Y-3.9886
X6.5839Y-4.0886
X6.5839Y-4.1886
T0
M30
