G04 #@! TF.FileFunction,Legend,Bot*
%FSLAX46Y46*%
G04 Gerber Fmt 4.6, Leading zero omitted, Abs format (unit mm)*
G04 Created by KiCad (PCBNEW 4.0.7-e2-6376~61~ubuntu18.04.1) date Sat Sep 28 19:31:04 2019*
%MOMM*%
%LPD*%
G01*
G04 APERTURE LIST*
%ADD10C,0.100000*%
%ADD11C,0.200000*%
%ADD12C,0.300000*%
%ADD13C,0.010000*%
%ADD14C,0.002540*%
G04 APERTURE END LIST*
D10*
D11*
X121775715Y-105042381D02*
X121775715Y-104042381D01*
X121442381Y-104756667D01*
X121109048Y-104042381D01*
X121109048Y-105042381D01*
X120204286Y-105042381D02*
X120204286Y-104518571D01*
X120251905Y-104423333D01*
X120347143Y-104375714D01*
X120537620Y-104375714D01*
X120632858Y-104423333D01*
X120204286Y-104994762D02*
X120299524Y-105042381D01*
X120537620Y-105042381D01*
X120632858Y-104994762D01*
X120680477Y-104899524D01*
X120680477Y-104804286D01*
X120632858Y-104709048D01*
X120537620Y-104661429D01*
X120299524Y-104661429D01*
X120204286Y-104613810D01*
X119728096Y-105042381D02*
X119728096Y-104375714D01*
X119728096Y-104566190D02*
X119680477Y-104470952D01*
X119632858Y-104423333D01*
X119537620Y-104375714D01*
X119442381Y-104375714D01*
X119109048Y-105042381D02*
X119109048Y-104042381D01*
X119013810Y-104661429D02*
X118728095Y-105042381D01*
X118728095Y-104375714D02*
X119109048Y-104756667D01*
X117585238Y-104994762D02*
X117442381Y-105042381D01*
X117204285Y-105042381D01*
X117109047Y-104994762D01*
X117061428Y-104947143D01*
X117013809Y-104851905D01*
X117013809Y-104756667D01*
X117061428Y-104661429D01*
X117109047Y-104613810D01*
X117204285Y-104566190D01*
X117394762Y-104518571D01*
X117490000Y-104470952D01*
X117537619Y-104423333D01*
X117585238Y-104328095D01*
X117585238Y-104232857D01*
X117537619Y-104137619D01*
X117490000Y-104090000D01*
X117394762Y-104042381D01*
X117156666Y-104042381D01*
X117013809Y-104090000D01*
X116585238Y-105042381D02*
X116585238Y-104375714D01*
X116585238Y-104470952D02*
X116537619Y-104423333D01*
X116442381Y-104375714D01*
X116299523Y-104375714D01*
X116204285Y-104423333D01*
X116156666Y-104518571D01*
X116156666Y-105042381D01*
X116156666Y-104518571D02*
X116109047Y-104423333D01*
X116013809Y-104375714D01*
X115870952Y-104375714D01*
X115775714Y-104423333D01*
X115728095Y-104518571D01*
X115728095Y-105042381D01*
X115251905Y-105042381D02*
X115251905Y-104375714D01*
X115251905Y-104042381D02*
X115299524Y-104090000D01*
X115251905Y-104137619D01*
X115204286Y-104090000D01*
X115251905Y-104042381D01*
X115251905Y-104137619D01*
X114918572Y-104375714D02*
X114537620Y-104375714D01*
X114775715Y-104042381D02*
X114775715Y-104899524D01*
X114728096Y-104994762D01*
X114632858Y-105042381D01*
X114537620Y-105042381D01*
X114204286Y-105042381D02*
X114204286Y-104042381D01*
X113775714Y-105042381D02*
X113775714Y-104518571D01*
X113823333Y-104423333D01*
X113918571Y-104375714D01*
X114061429Y-104375714D01*
X114156667Y-104423333D01*
X114204286Y-104470952D01*
X112585238Y-104137619D02*
X112537619Y-104090000D01*
X112442381Y-104042381D01*
X112204285Y-104042381D01*
X112109047Y-104090000D01*
X112061428Y-104137619D01*
X112013809Y-104232857D01*
X112013809Y-104328095D01*
X112061428Y-104470952D01*
X112632857Y-105042381D01*
X112013809Y-105042381D01*
X111394762Y-104042381D02*
X111299523Y-104042381D01*
X111204285Y-104090000D01*
X111156666Y-104137619D01*
X111109047Y-104232857D01*
X111061428Y-104423333D01*
X111061428Y-104661429D01*
X111109047Y-104851905D01*
X111156666Y-104947143D01*
X111204285Y-104994762D01*
X111299523Y-105042381D01*
X111394762Y-105042381D01*
X111490000Y-104994762D01*
X111537619Y-104947143D01*
X111585238Y-104851905D01*
X111632857Y-104661429D01*
X111632857Y-104423333D01*
X111585238Y-104232857D01*
X111537619Y-104137619D01*
X111490000Y-104090000D01*
X111394762Y-104042381D01*
X110109047Y-105042381D02*
X110680476Y-105042381D01*
X110394762Y-105042381D02*
X110394762Y-104042381D01*
X110490000Y-104185238D01*
X110585238Y-104280476D01*
X110680476Y-104328095D01*
X109632857Y-105042381D02*
X109442381Y-105042381D01*
X109347142Y-104994762D01*
X109299523Y-104947143D01*
X109204285Y-104804286D01*
X109156666Y-104613810D01*
X109156666Y-104232857D01*
X109204285Y-104137619D01*
X109251904Y-104090000D01*
X109347142Y-104042381D01*
X109537619Y-104042381D01*
X109632857Y-104090000D01*
X109680476Y-104137619D01*
X109728095Y-104232857D01*
X109728095Y-104470952D01*
X109680476Y-104566190D01*
X109632857Y-104613810D01*
X109537619Y-104661429D01*
X109347142Y-104661429D01*
X109251904Y-104613810D01*
X109204285Y-104566190D01*
X109156666Y-104470952D01*
X123728095Y-101705714D02*
X123537619Y-102372381D01*
X123347142Y-101896190D01*
X123156666Y-102372381D01*
X122966190Y-101705714D01*
X122680476Y-101705714D02*
X122490000Y-102372381D01*
X122299523Y-101896190D01*
X122109047Y-102372381D01*
X121918571Y-101705714D01*
X121632857Y-101705714D02*
X121442381Y-102372381D01*
X121251904Y-101896190D01*
X121061428Y-102372381D01*
X120870952Y-101705714D01*
X120490000Y-102277143D02*
X120442381Y-102324762D01*
X120490000Y-102372381D01*
X120537619Y-102324762D01*
X120490000Y-102277143D01*
X120490000Y-102372381D01*
X120061429Y-102324762D02*
X119966191Y-102372381D01*
X119775715Y-102372381D01*
X119680476Y-102324762D01*
X119632857Y-102229524D01*
X119632857Y-102181905D01*
X119680476Y-102086667D01*
X119775715Y-102039048D01*
X119918572Y-102039048D01*
X120013810Y-101991429D01*
X120061429Y-101896190D01*
X120061429Y-101848571D01*
X120013810Y-101753333D01*
X119918572Y-101705714D01*
X119775715Y-101705714D01*
X119680476Y-101753333D01*
X118775714Y-101705714D02*
X118775714Y-102372381D01*
X119204286Y-101705714D02*
X119204286Y-102229524D01*
X119156667Y-102324762D01*
X119061429Y-102372381D01*
X118918571Y-102372381D01*
X118823333Y-102324762D01*
X118775714Y-102277143D01*
X118299524Y-102372381D02*
X118299524Y-101705714D01*
X118299524Y-101896190D02*
X118251905Y-101800952D01*
X118204286Y-101753333D01*
X118109048Y-101705714D01*
X118013809Y-101705714D01*
X117823333Y-101705714D02*
X117442381Y-101705714D01*
X117680476Y-102372381D02*
X117680476Y-101515238D01*
X117632857Y-101420000D01*
X117537619Y-101372381D01*
X117442381Y-101372381D01*
X117109047Y-101705714D02*
X117109047Y-102372381D01*
X117109047Y-101800952D02*
X117061428Y-101753333D01*
X116966190Y-101705714D01*
X116823332Y-101705714D01*
X116728094Y-101753333D01*
X116680475Y-101848571D01*
X116680475Y-102372381D01*
X115775713Y-102324762D02*
X115870951Y-102372381D01*
X116061428Y-102372381D01*
X116156666Y-102324762D01*
X116204285Y-102277143D01*
X116251904Y-102181905D01*
X116251904Y-101896190D01*
X116204285Y-101800952D01*
X116156666Y-101753333D01*
X116061428Y-101705714D01*
X115870951Y-101705714D01*
X115775713Y-101753333D01*
X115347142Y-102372381D02*
X115347142Y-101705714D01*
X115347142Y-101372381D02*
X115394761Y-101420000D01*
X115347142Y-101467619D01*
X115299523Y-101420000D01*
X115347142Y-101372381D01*
X115347142Y-101467619D01*
X114870952Y-102372381D02*
X114870952Y-101705714D01*
X114870952Y-101896190D02*
X114823333Y-101800952D01*
X114775714Y-101753333D01*
X114680476Y-101705714D01*
X114585237Y-101705714D01*
X113823332Y-102324762D02*
X113918570Y-102372381D01*
X114109047Y-102372381D01*
X114204285Y-102324762D01*
X114251904Y-102277143D01*
X114299523Y-102181905D01*
X114299523Y-101896190D01*
X114251904Y-101800952D01*
X114204285Y-101753333D01*
X114109047Y-101705714D01*
X113918570Y-101705714D01*
X113823332Y-101753333D01*
X112966189Y-101705714D02*
X112966189Y-102372381D01*
X113394761Y-101705714D02*
X113394761Y-102229524D01*
X113347142Y-102324762D01*
X113251904Y-102372381D01*
X113109046Y-102372381D01*
X113013808Y-102324762D01*
X112966189Y-102277143D01*
X112489999Y-102372381D02*
X112489999Y-101705714D01*
X112489999Y-101372381D02*
X112537618Y-101420000D01*
X112489999Y-101467619D01*
X112442380Y-101420000D01*
X112489999Y-101372381D01*
X112489999Y-101467619D01*
X112156666Y-101705714D02*
X111775714Y-101705714D01*
X112013809Y-101372381D02*
X112013809Y-102229524D01*
X111966190Y-102324762D01*
X111870952Y-102372381D01*
X111775714Y-102372381D01*
X111442380Y-102277143D02*
X111394761Y-102324762D01*
X111442380Y-102372381D01*
X111489999Y-102324762D01*
X111442380Y-102277143D01*
X111442380Y-102372381D01*
X110537618Y-102324762D02*
X110632856Y-102372381D01*
X110823333Y-102372381D01*
X110918571Y-102324762D01*
X110966190Y-102277143D01*
X111013809Y-102181905D01*
X111013809Y-101896190D01*
X110966190Y-101800952D01*
X110918571Y-101753333D01*
X110823333Y-101705714D01*
X110632856Y-101705714D01*
X110537618Y-101753333D01*
X109966190Y-102372381D02*
X110061428Y-102324762D01*
X110109047Y-102277143D01*
X110156666Y-102181905D01*
X110156666Y-101896190D01*
X110109047Y-101800952D01*
X110061428Y-101753333D01*
X109966190Y-101705714D01*
X109823332Y-101705714D01*
X109728094Y-101753333D01*
X109680475Y-101800952D01*
X109632856Y-101896190D01*
X109632856Y-102181905D01*
X109680475Y-102277143D01*
X109728094Y-102324762D01*
X109823332Y-102372381D01*
X109966190Y-102372381D01*
X109204285Y-102372381D02*
X109204285Y-101705714D01*
X109204285Y-101800952D02*
X109156666Y-101753333D01*
X109061428Y-101705714D01*
X108918570Y-101705714D01*
X108823332Y-101753333D01*
X108775713Y-101848571D01*
X108775713Y-102372381D01*
X108775713Y-101848571D02*
X108728094Y-101753333D01*
X108632856Y-101705714D01*
X108489999Y-101705714D01*
X108394761Y-101753333D01*
X108347142Y-101848571D01*
X108347142Y-102372381D01*
D12*
X144197142Y-114868571D02*
X144197142Y-113368571D01*
X143339999Y-114868571D01*
X143339999Y-113368571D01*
X142625713Y-114868571D02*
X142625713Y-113868571D01*
X142625713Y-113368571D02*
X142697142Y-113440000D01*
X142625713Y-113511429D01*
X142554285Y-113440000D01*
X142625713Y-113368571D01*
X142625713Y-113511429D01*
X142054284Y-114868571D02*
X141268570Y-113868571D01*
X142054284Y-113868571D02*
X141268570Y-114868571D01*
X140697141Y-114868571D02*
X140697141Y-113868571D01*
X140697141Y-113368571D02*
X140768570Y-113440000D01*
X140697141Y-113511429D01*
X140625713Y-113440000D01*
X140697141Y-113368571D01*
X140697141Y-113511429D01*
X139411427Y-114797143D02*
X139554284Y-114868571D01*
X139839998Y-114868571D01*
X139982855Y-114797143D01*
X140054284Y-114654286D01*
X140054284Y-114082857D01*
X139982855Y-113940000D01*
X139839998Y-113868571D01*
X139554284Y-113868571D01*
X139411427Y-113940000D01*
X139339998Y-114082857D01*
X139339998Y-114225714D01*
X140054284Y-114368571D01*
X138197141Y-114082857D02*
X137982855Y-114154286D01*
X137911427Y-114225714D01*
X137839998Y-114368571D01*
X137839998Y-114582857D01*
X137911427Y-114725714D01*
X137982855Y-114797143D01*
X138125713Y-114868571D01*
X138697141Y-114868571D01*
X138697141Y-113368571D01*
X138197141Y-113368571D01*
X138054284Y-113440000D01*
X137982855Y-113511429D01*
X137911427Y-113654286D01*
X137911427Y-113797143D01*
X137982855Y-113940000D01*
X138054284Y-114011429D01*
X138197141Y-114082857D01*
X138697141Y-114082857D01*
X136554284Y-114868571D02*
X136554284Y-114082857D01*
X136625713Y-113940000D01*
X136768570Y-113868571D01*
X137054284Y-113868571D01*
X137197141Y-113940000D01*
X136554284Y-114797143D02*
X136697141Y-114868571D01*
X137054284Y-114868571D01*
X137197141Y-114797143D01*
X137268570Y-114654286D01*
X137268570Y-114511429D01*
X137197141Y-114368571D01*
X137054284Y-114297143D01*
X136697141Y-114297143D01*
X136554284Y-114225714D01*
X135839998Y-114868571D02*
X135839998Y-113868571D01*
X135839998Y-114154286D02*
X135768570Y-114011429D01*
X135697141Y-113940000D01*
X135554284Y-113868571D01*
X135411427Y-113868571D01*
X134125713Y-113440000D02*
X134268570Y-113368571D01*
X134482856Y-113368571D01*
X134697141Y-113440000D01*
X134839999Y-113582857D01*
X134911427Y-113725714D01*
X134982856Y-114011429D01*
X134982856Y-114225714D01*
X134911427Y-114511429D01*
X134839999Y-114654286D01*
X134697141Y-114797143D01*
X134482856Y-114868571D01*
X134339999Y-114868571D01*
X134125713Y-114797143D01*
X134054284Y-114725714D01*
X134054284Y-114225714D01*
X134339999Y-114225714D01*
X133411427Y-114868571D02*
X133411427Y-113868571D01*
X133411427Y-114154286D02*
X133339999Y-114011429D01*
X133268570Y-113940000D01*
X133125713Y-113868571D01*
X132982856Y-113868571D01*
X131839999Y-114868571D02*
X131839999Y-114082857D01*
X131911428Y-113940000D01*
X132054285Y-113868571D01*
X132339999Y-113868571D01*
X132482856Y-113940000D01*
X131839999Y-114797143D02*
X131982856Y-114868571D01*
X132339999Y-114868571D01*
X132482856Y-114797143D01*
X132554285Y-114654286D01*
X132554285Y-114511429D01*
X132482856Y-114368571D01*
X132339999Y-114297143D01*
X131982856Y-114297143D01*
X131839999Y-114225714D01*
X131125713Y-113868571D02*
X131125713Y-115368571D01*
X131125713Y-113940000D02*
X130982856Y-113868571D01*
X130697142Y-113868571D01*
X130554285Y-113940000D01*
X130482856Y-114011429D01*
X130411427Y-114154286D01*
X130411427Y-114582857D01*
X130482856Y-114725714D01*
X130554285Y-114797143D01*
X130697142Y-114868571D01*
X130982856Y-114868571D01*
X131125713Y-114797143D01*
X129768570Y-114868571D02*
X129768570Y-113368571D01*
X129125713Y-114868571D02*
X129125713Y-114082857D01*
X129197142Y-113940000D01*
X129339999Y-113868571D01*
X129554284Y-113868571D01*
X129697142Y-113940000D01*
X129768570Y-114011429D01*
X128411427Y-114868571D02*
X128411427Y-113368571D01*
X128411427Y-114082857D02*
X127554284Y-114082857D01*
X127554284Y-114868571D02*
X127554284Y-113368571D01*
X126197141Y-114868571D02*
X126197141Y-114082857D01*
X126268570Y-113940000D01*
X126411427Y-113868571D01*
X126697141Y-113868571D01*
X126839998Y-113940000D01*
X126197141Y-114797143D02*
X126339998Y-114868571D01*
X126697141Y-114868571D01*
X126839998Y-114797143D01*
X126911427Y-114654286D01*
X126911427Y-114511429D01*
X126839998Y-114368571D01*
X126697141Y-114297143D01*
X126339998Y-114297143D01*
X126197141Y-114225714D01*
X125697141Y-113868571D02*
X125125712Y-113868571D01*
X125482855Y-113368571D02*
X125482855Y-114654286D01*
X125411427Y-114797143D01*
X125268569Y-114868571D01*
X125125712Y-114868571D01*
X122625712Y-114868571D02*
X123125712Y-114154286D01*
X123482855Y-114868571D02*
X123482855Y-113368571D01*
X122911427Y-113368571D01*
X122768569Y-113440000D01*
X122697141Y-113511429D01*
X122625712Y-113654286D01*
X122625712Y-113868571D01*
X122697141Y-114011429D01*
X122768569Y-114082857D01*
X122911427Y-114154286D01*
X123482855Y-114154286D01*
X121411427Y-114797143D02*
X121554284Y-114868571D01*
X121839998Y-114868571D01*
X121982855Y-114797143D01*
X122054284Y-114654286D01*
X122054284Y-114082857D01*
X121982855Y-113940000D01*
X121839998Y-113868571D01*
X121554284Y-113868571D01*
X121411427Y-113940000D01*
X121339998Y-114082857D01*
X121339998Y-114225714D01*
X122054284Y-114368571D01*
X120839998Y-113868571D02*
X120482855Y-114868571D01*
X120125713Y-113868571D01*
X119625713Y-113511429D02*
X119554284Y-113440000D01*
X119411427Y-113368571D01*
X119054284Y-113368571D01*
X118911427Y-113440000D01*
X118839998Y-113511429D01*
X118768570Y-113654286D01*
X118768570Y-113797143D01*
X118839998Y-114011429D01*
X119697141Y-114868571D01*
X118768570Y-114868571D01*
X118482856Y-115011429D02*
X117339999Y-115011429D01*
X116197142Y-114868571D02*
X117054285Y-114868571D01*
X116625713Y-114868571D02*
X116625713Y-113368571D01*
X116768570Y-113582857D01*
X116911428Y-113725714D01*
X117054285Y-113797143D01*
X115482857Y-114868571D02*
X115197142Y-114868571D01*
X115054285Y-114797143D01*
X114982857Y-114725714D01*
X114839999Y-114511429D01*
X114768571Y-114225714D01*
X114768571Y-113654286D01*
X114839999Y-113511429D01*
X114911428Y-113440000D01*
X115054285Y-113368571D01*
X115339999Y-113368571D01*
X115482857Y-113440000D01*
X115554285Y-113511429D01*
X115625714Y-113654286D01*
X115625714Y-114011429D01*
X115554285Y-114154286D01*
X115482857Y-114225714D01*
X115339999Y-114297143D01*
X115054285Y-114297143D01*
X114911428Y-114225714D01*
X114839999Y-114154286D01*
X114768571Y-114011429D01*
X114268571Y-113368571D02*
X113340000Y-113368571D01*
X113840000Y-113940000D01*
X113625714Y-113940000D01*
X113482857Y-114011429D01*
X113411428Y-114082857D01*
X113340000Y-114225714D01*
X113340000Y-114582857D01*
X113411428Y-114725714D01*
X113482857Y-114797143D01*
X113625714Y-114868571D01*
X114054286Y-114868571D01*
X114197143Y-114797143D01*
X114268571Y-114725714D01*
X112625715Y-114868571D02*
X112340000Y-114868571D01*
X112197143Y-114797143D01*
X112125715Y-114725714D01*
X111982857Y-114511429D01*
X111911429Y-114225714D01*
X111911429Y-113654286D01*
X111982857Y-113511429D01*
X112054286Y-113440000D01*
X112197143Y-113368571D01*
X112482857Y-113368571D01*
X112625715Y-113440000D01*
X112697143Y-113511429D01*
X112768572Y-113654286D01*
X112768572Y-114011429D01*
X112697143Y-114154286D01*
X112625715Y-114225714D01*
X112482857Y-114297143D01*
X112197143Y-114297143D01*
X112054286Y-114225714D01*
X111982857Y-114154286D01*
X111911429Y-114011429D01*
D13*
G36*
X123243583Y-103268083D02*
X123170366Y-103270580D01*
X123103919Y-103275378D01*
X123048170Y-103282501D01*
X123028714Y-103286229D01*
X122996100Y-103295099D01*
X122952646Y-103309393D01*
X122902895Y-103327460D01*
X122851391Y-103347651D01*
X122802700Y-103368306D01*
X122767805Y-103384814D01*
X122727419Y-103405489D01*
X122685181Y-103428286D01*
X122644733Y-103451162D01*
X122609715Y-103472073D01*
X122583769Y-103488975D01*
X122573116Y-103497180D01*
X122561875Y-103506962D01*
X122542348Y-103523653D01*
X122523577Y-103539567D01*
X122432911Y-103626192D01*
X122349820Y-103725696D01*
X122276782Y-103834811D01*
X122222544Y-103936712D01*
X122175116Y-104047547D01*
X122140581Y-104152220D01*
X122118030Y-104254377D01*
X122106553Y-104357664D01*
X122104711Y-104408548D01*
X122103815Y-104449096D01*
X122102417Y-104483951D01*
X122100711Y-104509327D01*
X122098946Y-104521307D01*
X122099011Y-104534077D01*
X122101572Y-104537010D01*
X122105436Y-104547297D01*
X122107397Y-104568597D01*
X122107407Y-104582316D01*
X122108318Y-104608572D01*
X122111948Y-104628330D01*
X122114420Y-104633513D01*
X122119337Y-104646464D01*
X122118274Y-104650710D01*
X122117212Y-104664241D01*
X122121039Y-104690466D01*
X122128963Y-104726127D01*
X122140196Y-104767964D01*
X122153947Y-104812718D01*
X122166091Y-104848047D01*
X122205984Y-104945802D01*
X122254974Y-105045865D01*
X122308935Y-105139962D01*
X122321436Y-105159614D01*
X122362780Y-105215838D01*
X122415197Y-105275758D01*
X122474652Y-105335418D01*
X122537114Y-105390863D01*
X122598547Y-105438136D01*
X122620536Y-105452974D01*
X122678381Y-105487629D01*
X122744786Y-105523059D01*
X122814242Y-105556610D01*
X122881240Y-105585626D01*
X122940269Y-105607451D01*
X122942400Y-105608141D01*
X123048446Y-105635439D01*
X123163291Y-105652801D01*
X123281787Y-105659896D01*
X123398784Y-105656388D01*
X123497372Y-105644097D01*
X123587612Y-105623292D01*
X123686563Y-105591473D01*
X123791068Y-105549703D01*
X123832699Y-105530923D01*
X123922965Y-105484108D01*
X124002587Y-105431873D01*
X124076933Y-105370915D01*
X124102526Y-105347840D01*
X124123513Y-105328928D01*
X124136560Y-105317182D01*
X124138776Y-105315193D01*
X124180815Y-105272505D01*
X124225960Y-105217852D01*
X124271460Y-105155158D01*
X124314564Y-105088344D01*
X124352521Y-105021335D01*
X124371086Y-104983941D01*
X124395202Y-104930920D01*
X124413811Y-104885816D01*
X124428626Y-104843360D01*
X124441363Y-104798284D01*
X124453736Y-104745321D01*
X124462835Y-104702018D01*
X124472649Y-104650893D01*
X124479281Y-104606883D01*
X124483299Y-104563960D01*
X124484996Y-104522715D01*
X124287384Y-104522715D01*
X124285649Y-104558038D01*
X124281615Y-104592777D01*
X124274889Y-104632368D01*
X124268419Y-104665634D01*
X124257558Y-104718622D01*
X124248138Y-104759515D01*
X124238632Y-104792889D01*
X124227512Y-104823321D01*
X124213250Y-104855387D01*
X124194320Y-104893663D01*
X124188495Y-104905099D01*
X124147726Y-104980351D01*
X124107616Y-105043962D01*
X124064736Y-105100721D01*
X124015656Y-105155421D01*
X123992800Y-105178508D01*
X123896213Y-105261967D01*
X123789048Y-105332548D01*
X123672330Y-105389713D01*
X123547079Y-105432920D01*
X123480033Y-105449453D01*
X123415993Y-105459284D01*
X123341799Y-105464307D01*
X123263531Y-105464527D01*
X123187269Y-105459949D01*
X123119094Y-105450579D01*
X123111733Y-105449130D01*
X123062181Y-105438416D01*
X123018979Y-105427400D01*
X122979018Y-105414795D01*
X122939183Y-105399315D01*
X122896365Y-105379675D01*
X122847451Y-105354588D01*
X122789330Y-105322767D01*
X122743433Y-105296895D01*
X122674134Y-105249679D01*
X122605666Y-105188188D01*
X122539988Y-105115044D01*
X122479063Y-105032869D01*
X122424850Y-104944282D01*
X122379310Y-104851906D01*
X122347213Y-104767234D01*
X122326751Y-104698478D01*
X122312845Y-104637082D01*
X122304697Y-104577104D01*
X122301506Y-104512600D01*
X122302476Y-104437626D01*
X122302566Y-104435004D01*
X122304809Y-104386019D01*
X122307913Y-104338980D01*
X122311515Y-104298422D01*
X122315250Y-104268877D01*
X122316363Y-104262741D01*
X122341630Y-104168687D01*
X122378665Y-104071599D01*
X122425289Y-103975584D01*
X122479323Y-103884746D01*
X122538588Y-103803193D01*
X122591619Y-103744069D01*
X122651118Y-103691626D01*
X122722608Y-103639477D01*
X122801486Y-103590308D01*
X122883149Y-103546804D01*
X122962993Y-103511650D01*
X123027066Y-103490041D01*
X123084841Y-103477355D01*
X123153353Y-103467715D01*
X123227421Y-103461408D01*
X123301864Y-103458718D01*
X123371501Y-103459932D01*
X123431153Y-103465335D01*
X123442495Y-103467127D01*
X123474986Y-103472464D01*
X123505845Y-103477039D01*
X123518133Y-103478639D01*
X123556966Y-103486972D01*
X123606409Y-103503270D01*
X123663041Y-103526021D01*
X123723443Y-103553709D01*
X123784192Y-103584822D01*
X123841868Y-103617845D01*
X123864026Y-103631709D01*
X123948508Y-103695443D01*
X124027198Y-103773162D01*
X124098447Y-103862433D01*
X124160608Y-103960822D01*
X124212032Y-104065897D01*
X124251072Y-104175225D01*
X124263216Y-104221134D01*
X124269747Y-104249458D01*
X124274525Y-104273344D01*
X124277971Y-104296702D01*
X124280504Y-104323441D01*
X124282546Y-104357473D01*
X124284518Y-104402707D01*
X124285525Y-104428567D01*
X124287211Y-104481371D01*
X124287384Y-104522715D01*
X124484996Y-104522715D01*
X124485269Y-104516098D01*
X124485758Y-104458200D01*
X124484022Y-104374679D01*
X124478995Y-104306042D01*
X124472009Y-104259234D01*
X124465052Y-104224232D01*
X124459025Y-104193063D01*
X124455049Y-104171538D01*
X124454608Y-104168960D01*
X124448013Y-104144410D01*
X124441397Y-104128743D01*
X124435616Y-104115277D01*
X124435964Y-104111067D01*
X124436153Y-104103890D01*
X124430910Y-104084716D01*
X124421538Y-104057085D01*
X124409343Y-104024535D01*
X124395630Y-103990606D01*
X124381704Y-103958836D01*
X124373515Y-103941734D01*
X124304319Y-103817966D01*
X124227205Y-103708088D01*
X124140521Y-103610256D01*
X124042616Y-103522630D01*
X123931840Y-103443368D01*
X123920099Y-103435899D01*
X123870142Y-103407479D01*
X123809196Y-103377477D01*
X123742582Y-103348143D01*
X123675623Y-103321730D01*
X123613640Y-103300490D01*
X123573759Y-103289343D01*
X123525603Y-103280667D01*
X123464579Y-103274180D01*
X123394617Y-103269906D01*
X123319642Y-103267866D01*
X123243583Y-103268083D01*
X123243583Y-103268083D01*
G37*
X123243583Y-103268083D02*
X123170366Y-103270580D01*
X123103919Y-103275378D01*
X123048170Y-103282501D01*
X123028714Y-103286229D01*
X122996100Y-103295099D01*
X122952646Y-103309393D01*
X122902895Y-103327460D01*
X122851391Y-103347651D01*
X122802700Y-103368306D01*
X122767805Y-103384814D01*
X122727419Y-103405489D01*
X122685181Y-103428286D01*
X122644733Y-103451162D01*
X122609715Y-103472073D01*
X122583769Y-103488975D01*
X122573116Y-103497180D01*
X122561875Y-103506962D01*
X122542348Y-103523653D01*
X122523577Y-103539567D01*
X122432911Y-103626192D01*
X122349820Y-103725696D01*
X122276782Y-103834811D01*
X122222544Y-103936712D01*
X122175116Y-104047547D01*
X122140581Y-104152220D01*
X122118030Y-104254377D01*
X122106553Y-104357664D01*
X122104711Y-104408548D01*
X122103815Y-104449096D01*
X122102417Y-104483951D01*
X122100711Y-104509327D01*
X122098946Y-104521307D01*
X122099011Y-104534077D01*
X122101572Y-104537010D01*
X122105436Y-104547297D01*
X122107397Y-104568597D01*
X122107407Y-104582316D01*
X122108318Y-104608572D01*
X122111948Y-104628330D01*
X122114420Y-104633513D01*
X122119337Y-104646464D01*
X122118274Y-104650710D01*
X122117212Y-104664241D01*
X122121039Y-104690466D01*
X122128963Y-104726127D01*
X122140196Y-104767964D01*
X122153947Y-104812718D01*
X122166091Y-104848047D01*
X122205984Y-104945802D01*
X122254974Y-105045865D01*
X122308935Y-105139962D01*
X122321436Y-105159614D01*
X122362780Y-105215838D01*
X122415197Y-105275758D01*
X122474652Y-105335418D01*
X122537114Y-105390863D01*
X122598547Y-105438136D01*
X122620536Y-105452974D01*
X122678381Y-105487629D01*
X122744786Y-105523059D01*
X122814242Y-105556610D01*
X122881240Y-105585626D01*
X122940269Y-105607451D01*
X122942400Y-105608141D01*
X123048446Y-105635439D01*
X123163291Y-105652801D01*
X123281787Y-105659896D01*
X123398784Y-105656388D01*
X123497372Y-105644097D01*
X123587612Y-105623292D01*
X123686563Y-105591473D01*
X123791068Y-105549703D01*
X123832699Y-105530923D01*
X123922965Y-105484108D01*
X124002587Y-105431873D01*
X124076933Y-105370915D01*
X124102526Y-105347840D01*
X124123513Y-105328928D01*
X124136560Y-105317182D01*
X124138776Y-105315193D01*
X124180815Y-105272505D01*
X124225960Y-105217852D01*
X124271460Y-105155158D01*
X124314564Y-105088344D01*
X124352521Y-105021335D01*
X124371086Y-104983941D01*
X124395202Y-104930920D01*
X124413811Y-104885816D01*
X124428626Y-104843360D01*
X124441363Y-104798284D01*
X124453736Y-104745321D01*
X124462835Y-104702018D01*
X124472649Y-104650893D01*
X124479281Y-104606883D01*
X124483299Y-104563960D01*
X124484996Y-104522715D01*
X124287384Y-104522715D01*
X124285649Y-104558038D01*
X124281615Y-104592777D01*
X124274889Y-104632368D01*
X124268419Y-104665634D01*
X124257558Y-104718622D01*
X124248138Y-104759515D01*
X124238632Y-104792889D01*
X124227512Y-104823321D01*
X124213250Y-104855387D01*
X124194320Y-104893663D01*
X124188495Y-104905099D01*
X124147726Y-104980351D01*
X124107616Y-105043962D01*
X124064736Y-105100721D01*
X124015656Y-105155421D01*
X123992800Y-105178508D01*
X123896213Y-105261967D01*
X123789048Y-105332548D01*
X123672330Y-105389713D01*
X123547079Y-105432920D01*
X123480033Y-105449453D01*
X123415993Y-105459284D01*
X123341799Y-105464307D01*
X123263531Y-105464527D01*
X123187269Y-105459949D01*
X123119094Y-105450579D01*
X123111733Y-105449130D01*
X123062181Y-105438416D01*
X123018979Y-105427400D01*
X122979018Y-105414795D01*
X122939183Y-105399315D01*
X122896365Y-105379675D01*
X122847451Y-105354588D01*
X122789330Y-105322767D01*
X122743433Y-105296895D01*
X122674134Y-105249679D01*
X122605666Y-105188188D01*
X122539988Y-105115044D01*
X122479063Y-105032869D01*
X122424850Y-104944282D01*
X122379310Y-104851906D01*
X122347213Y-104767234D01*
X122326751Y-104698478D01*
X122312845Y-104637082D01*
X122304697Y-104577104D01*
X122301506Y-104512600D01*
X122302476Y-104437626D01*
X122302566Y-104435004D01*
X122304809Y-104386019D01*
X122307913Y-104338980D01*
X122311515Y-104298422D01*
X122315250Y-104268877D01*
X122316363Y-104262741D01*
X122341630Y-104168687D01*
X122378665Y-104071599D01*
X122425289Y-103975584D01*
X122479323Y-103884746D01*
X122538588Y-103803193D01*
X122591619Y-103744069D01*
X122651118Y-103691626D01*
X122722608Y-103639477D01*
X122801486Y-103590308D01*
X122883149Y-103546804D01*
X122962993Y-103511650D01*
X123027066Y-103490041D01*
X123084841Y-103477355D01*
X123153353Y-103467715D01*
X123227421Y-103461408D01*
X123301864Y-103458718D01*
X123371501Y-103459932D01*
X123431153Y-103465335D01*
X123442495Y-103467127D01*
X123474986Y-103472464D01*
X123505845Y-103477039D01*
X123518133Y-103478639D01*
X123556966Y-103486972D01*
X123606409Y-103503270D01*
X123663041Y-103526021D01*
X123723443Y-103553709D01*
X123784192Y-103584822D01*
X123841868Y-103617845D01*
X123864026Y-103631709D01*
X123948508Y-103695443D01*
X124027198Y-103773162D01*
X124098447Y-103862433D01*
X124160608Y-103960822D01*
X124212032Y-104065897D01*
X124251072Y-104175225D01*
X124263216Y-104221134D01*
X124269747Y-104249458D01*
X124274525Y-104273344D01*
X124277971Y-104296702D01*
X124280504Y-104323441D01*
X124282546Y-104357473D01*
X124284518Y-104402707D01*
X124285525Y-104428567D01*
X124287211Y-104481371D01*
X124287384Y-104522715D01*
X124484996Y-104522715D01*
X124485269Y-104516098D01*
X124485758Y-104458200D01*
X124484022Y-104374679D01*
X124478995Y-104306042D01*
X124472009Y-104259234D01*
X124465052Y-104224232D01*
X124459025Y-104193063D01*
X124455049Y-104171538D01*
X124454608Y-104168960D01*
X124448013Y-104144410D01*
X124441397Y-104128743D01*
X124435616Y-104115277D01*
X124435964Y-104111067D01*
X124436153Y-104103890D01*
X124430910Y-104084716D01*
X124421538Y-104057085D01*
X124409343Y-104024535D01*
X124395630Y-103990606D01*
X124381704Y-103958836D01*
X124373515Y-103941734D01*
X124304319Y-103817966D01*
X124227205Y-103708088D01*
X124140521Y-103610256D01*
X124042616Y-103522630D01*
X123931840Y-103443368D01*
X123920099Y-103435899D01*
X123870142Y-103407479D01*
X123809196Y-103377477D01*
X123742582Y-103348143D01*
X123675623Y-103321730D01*
X123613640Y-103300490D01*
X123573759Y-103289343D01*
X123525603Y-103280667D01*
X123464579Y-103274180D01*
X123394617Y-103269906D01*
X123319642Y-103267866D01*
X123243583Y-103268083D01*
G36*
X123183135Y-103793796D02*
X123134612Y-103800873D01*
X123045540Y-103827702D01*
X122963831Y-103869263D01*
X122890978Y-103924407D01*
X122828473Y-103991981D01*
X122777809Y-104070837D01*
X122773491Y-104079220D01*
X122758002Y-104110889D01*
X122746433Y-104136398D01*
X122740260Y-104152376D01*
X122739808Y-104156034D01*
X122749451Y-104159577D01*
X122771174Y-104166067D01*
X122800633Y-104174330D01*
X122833485Y-104183193D01*
X122865384Y-104191483D01*
X122891988Y-104198028D01*
X122908533Y-104201584D01*
X122921601Y-104201620D01*
X122932564Y-104194357D01*
X122944910Y-104176631D01*
X122954104Y-104160264D01*
X122998488Y-104094911D01*
X123053292Y-104042814D01*
X123118037Y-104004270D01*
X123192242Y-103979577D01*
X123261656Y-103969748D01*
X123325697Y-103969527D01*
X123385726Y-103976852D01*
X123437696Y-103990951D01*
X123477107Y-104010738D01*
X123494026Y-104021567D01*
X123504285Y-104026385D01*
X123504526Y-104026400D01*
X123517324Y-104032518D01*
X123537486Y-104048732D01*
X123561907Y-104071830D01*
X123587477Y-104098601D01*
X123611091Y-104125835D01*
X123629640Y-104150320D01*
X123638106Y-104164427D01*
X123660014Y-104211677D01*
X123672812Y-104245622D01*
X123676136Y-104259234D01*
X123679719Y-104277254D01*
X123685653Y-104303909D01*
X123689079Y-104318500D01*
X123694803Y-104354884D01*
X123698212Y-104403131D01*
X123699362Y-104458335D01*
X123698310Y-104515593D01*
X123695113Y-104570002D01*
X123689827Y-104616656D01*
X123685362Y-104640234D01*
X123671535Y-104693916D01*
X123657921Y-104735462D01*
X123642637Y-104769537D01*
X123623800Y-104800807D01*
X123616091Y-104811852D01*
X123565802Y-104867958D01*
X123505349Y-104910612D01*
X123435036Y-104939675D01*
X123355165Y-104955007D01*
X123300930Y-104957555D01*
X123217511Y-104949765D01*
X123141041Y-104927326D01*
X123072804Y-104891014D01*
X123014083Y-104841609D01*
X122966159Y-104779887D01*
X122945397Y-104742073D01*
X122931807Y-104712495D01*
X122921761Y-104688101D01*
X122917118Y-104673459D01*
X122917000Y-104672223D01*
X122912654Y-104664158D01*
X122898233Y-104662194D01*
X122871665Y-104666365D01*
X122842916Y-104673435D01*
X122818477Y-104679437D01*
X122802332Y-104682438D01*
X122798466Y-104682233D01*
X122791569Y-104683232D01*
X122774295Y-104689385D01*
X122766716Y-104692464D01*
X122746401Y-104700536D01*
X122734160Y-104704611D01*
X122732850Y-104704732D01*
X122723730Y-104704545D01*
X122722098Y-104716902D01*
X122727914Y-104742968D01*
X122731204Y-104753951D01*
X122741935Y-104784429D01*
X122755652Y-104817863D01*
X122770568Y-104850543D01*
X122784897Y-104878758D01*
X122796851Y-104898801D01*
X122804643Y-104906961D01*
X122804938Y-104906992D01*
X122812984Y-104913442D01*
X122826047Y-104929656D01*
X122832333Y-104938659D01*
X122852089Y-104964283D01*
X122874123Y-104987596D01*
X122878523Y-104991518D01*
X122901432Y-105011382D01*
X122922874Y-105030587D01*
X122923917Y-105031546D01*
X122943285Y-105046486D01*
X122960277Y-105055400D01*
X122973443Y-105062687D01*
X122976266Y-105067631D01*
X122983831Y-105074415D01*
X123004163Y-105084420D01*
X123033716Y-105096320D01*
X123068945Y-105108792D01*
X123106306Y-105120509D01*
X123142254Y-105130146D01*
X123145600Y-105130936D01*
X123177983Y-105136103D01*
X123221884Y-105139937D01*
X123271927Y-105142285D01*
X123322737Y-105142991D01*
X123368940Y-105141904D01*
X123405161Y-105138869D01*
X123408066Y-105138446D01*
X123450729Y-105129587D01*
X123499191Y-105115941D01*
X123547362Y-105099526D01*
X123589151Y-105082365D01*
X123611266Y-105071035D01*
X123688033Y-105016985D01*
X123758057Y-104949653D01*
X123795158Y-104904450D01*
X123815182Y-104876956D01*
X123830570Y-104854438D01*
X123838979Y-104840388D01*
X123839866Y-104837847D01*
X123843317Y-104827228D01*
X123852342Y-104806131D01*
X123864316Y-104780530D01*
X123876284Y-104754562D01*
X123884000Y-104735328D01*
X123885795Y-104727084D01*
X123886263Y-104718014D01*
X123890566Y-104697668D01*
X123895720Y-104677940D01*
X123903358Y-104639610D01*
X123909085Y-104588864D01*
X123912802Y-104530124D01*
X123914411Y-104467811D01*
X123913813Y-104406345D01*
X123910909Y-104350148D01*
X123905601Y-104303640D01*
X123904246Y-104295907D01*
X123896231Y-104257983D01*
X123887256Y-104222422D01*
X123878952Y-104195535D01*
X123877018Y-104190537D01*
X123867616Y-104165969D01*
X123861279Y-104145695D01*
X123860587Y-104142618D01*
X123850943Y-104115790D01*
X123831999Y-104080804D01*
X123806344Y-104041560D01*
X123776566Y-104001956D01*
X123745256Y-103965894D01*
X123738840Y-103959249D01*
X123674576Y-103904420D01*
X123598591Y-103858852D01*
X123509249Y-103821598D01*
X123488500Y-103814698D01*
X123439499Y-103803098D01*
X123379175Y-103795001D01*
X123312816Y-103790614D01*
X123245707Y-103790144D01*
X123183135Y-103793796D01*
X123183135Y-103793796D01*
G37*
X123183135Y-103793796D02*
X123134612Y-103800873D01*
X123045540Y-103827702D01*
X122963831Y-103869263D01*
X122890978Y-103924407D01*
X122828473Y-103991981D01*
X122777809Y-104070837D01*
X122773491Y-104079220D01*
X122758002Y-104110889D01*
X122746433Y-104136398D01*
X122740260Y-104152376D01*
X122739808Y-104156034D01*
X122749451Y-104159577D01*
X122771174Y-104166067D01*
X122800633Y-104174330D01*
X122833485Y-104183193D01*
X122865384Y-104191483D01*
X122891988Y-104198028D01*
X122908533Y-104201584D01*
X122921601Y-104201620D01*
X122932564Y-104194357D01*
X122944910Y-104176631D01*
X122954104Y-104160264D01*
X122998488Y-104094911D01*
X123053292Y-104042814D01*
X123118037Y-104004270D01*
X123192242Y-103979577D01*
X123261656Y-103969748D01*
X123325697Y-103969527D01*
X123385726Y-103976852D01*
X123437696Y-103990951D01*
X123477107Y-104010738D01*
X123494026Y-104021567D01*
X123504285Y-104026385D01*
X123504526Y-104026400D01*
X123517324Y-104032518D01*
X123537486Y-104048732D01*
X123561907Y-104071830D01*
X123587477Y-104098601D01*
X123611091Y-104125835D01*
X123629640Y-104150320D01*
X123638106Y-104164427D01*
X123660014Y-104211677D01*
X123672812Y-104245622D01*
X123676136Y-104259234D01*
X123679719Y-104277254D01*
X123685653Y-104303909D01*
X123689079Y-104318500D01*
X123694803Y-104354884D01*
X123698212Y-104403131D01*
X123699362Y-104458335D01*
X123698310Y-104515593D01*
X123695113Y-104570002D01*
X123689827Y-104616656D01*
X123685362Y-104640234D01*
X123671535Y-104693916D01*
X123657921Y-104735462D01*
X123642637Y-104769537D01*
X123623800Y-104800807D01*
X123616091Y-104811852D01*
X123565802Y-104867958D01*
X123505349Y-104910612D01*
X123435036Y-104939675D01*
X123355165Y-104955007D01*
X123300930Y-104957555D01*
X123217511Y-104949765D01*
X123141041Y-104927326D01*
X123072804Y-104891014D01*
X123014083Y-104841609D01*
X122966159Y-104779887D01*
X122945397Y-104742073D01*
X122931807Y-104712495D01*
X122921761Y-104688101D01*
X122917118Y-104673459D01*
X122917000Y-104672223D01*
X122912654Y-104664158D01*
X122898233Y-104662194D01*
X122871665Y-104666365D01*
X122842916Y-104673435D01*
X122818477Y-104679437D01*
X122802332Y-104682438D01*
X122798466Y-104682233D01*
X122791569Y-104683232D01*
X122774295Y-104689385D01*
X122766716Y-104692464D01*
X122746401Y-104700536D01*
X122734160Y-104704611D01*
X122732850Y-104704732D01*
X122723730Y-104704545D01*
X122722098Y-104716902D01*
X122727914Y-104742968D01*
X122731204Y-104753951D01*
X122741935Y-104784429D01*
X122755652Y-104817863D01*
X122770568Y-104850543D01*
X122784897Y-104878758D01*
X122796851Y-104898801D01*
X122804643Y-104906961D01*
X122804938Y-104906992D01*
X122812984Y-104913442D01*
X122826047Y-104929656D01*
X122832333Y-104938659D01*
X122852089Y-104964283D01*
X122874123Y-104987596D01*
X122878523Y-104991518D01*
X122901432Y-105011382D01*
X122922874Y-105030587D01*
X122923917Y-105031546D01*
X122943285Y-105046486D01*
X122960277Y-105055400D01*
X122973443Y-105062687D01*
X122976266Y-105067631D01*
X122983831Y-105074415D01*
X123004163Y-105084420D01*
X123033716Y-105096320D01*
X123068945Y-105108792D01*
X123106306Y-105120509D01*
X123142254Y-105130146D01*
X123145600Y-105130936D01*
X123177983Y-105136103D01*
X123221884Y-105139937D01*
X123271927Y-105142285D01*
X123322737Y-105142991D01*
X123368940Y-105141904D01*
X123405161Y-105138869D01*
X123408066Y-105138446D01*
X123450729Y-105129587D01*
X123499191Y-105115941D01*
X123547362Y-105099526D01*
X123589151Y-105082365D01*
X123611266Y-105071035D01*
X123688033Y-105016985D01*
X123758057Y-104949653D01*
X123795158Y-104904450D01*
X123815182Y-104876956D01*
X123830570Y-104854438D01*
X123838979Y-104840388D01*
X123839866Y-104837847D01*
X123843317Y-104827228D01*
X123852342Y-104806131D01*
X123864316Y-104780530D01*
X123876284Y-104754562D01*
X123884000Y-104735328D01*
X123885795Y-104727084D01*
X123886263Y-104718014D01*
X123890566Y-104697668D01*
X123895720Y-104677940D01*
X123903358Y-104639610D01*
X123909085Y-104588864D01*
X123912802Y-104530124D01*
X123914411Y-104467811D01*
X123913813Y-104406345D01*
X123910909Y-104350148D01*
X123905601Y-104303640D01*
X123904246Y-104295907D01*
X123896231Y-104257983D01*
X123887256Y-104222422D01*
X123878952Y-104195535D01*
X123877018Y-104190537D01*
X123867616Y-104165969D01*
X123861279Y-104145695D01*
X123860587Y-104142618D01*
X123850943Y-104115790D01*
X123831999Y-104080804D01*
X123806344Y-104041560D01*
X123776566Y-104001956D01*
X123745256Y-103965894D01*
X123738840Y-103959249D01*
X123674576Y-103904420D01*
X123598591Y-103858852D01*
X123509249Y-103821598D01*
X123488500Y-103814698D01*
X123439499Y-103803098D01*
X123379175Y-103795001D01*
X123312816Y-103790614D01*
X123245707Y-103790144D01*
X123183135Y-103793796D01*
D14*
G36*
X111603840Y-100835360D02*
X111578440Y-100820120D01*
X111520020Y-100784560D01*
X111436200Y-100728680D01*
X111337140Y-100662640D01*
X111238080Y-100596600D01*
X111156800Y-100543260D01*
X111100920Y-100505160D01*
X111075520Y-100492460D01*
X111062820Y-100497540D01*
X111017100Y-100520400D01*
X110948520Y-100555960D01*
X110907880Y-100576280D01*
X110846920Y-100601680D01*
X110813900Y-100609300D01*
X110808820Y-100599140D01*
X110785960Y-100550880D01*
X110750400Y-100469600D01*
X110704680Y-100360380D01*
X110648800Y-100233380D01*
X110592920Y-100098760D01*
X110534500Y-99959060D01*
X110478620Y-99824440D01*
X110430360Y-99705060D01*
X110389720Y-99608540D01*
X110364320Y-99539960D01*
X110354160Y-99512020D01*
X110356700Y-99504400D01*
X110389720Y-99473920D01*
X110443060Y-99433280D01*
X110562440Y-99336760D01*
X110679280Y-99191980D01*
X110750400Y-99026880D01*
X110773260Y-98841460D01*
X110752940Y-98671280D01*
X110686900Y-98508720D01*
X110572600Y-98361400D01*
X110432900Y-98252180D01*
X110270340Y-98183600D01*
X110090000Y-98160740D01*
X109917280Y-98181060D01*
X109749640Y-98247100D01*
X109602320Y-98358860D01*
X109538820Y-98429980D01*
X109452460Y-98579840D01*
X109404200Y-98737320D01*
X109399120Y-98777960D01*
X109406740Y-98953220D01*
X109457540Y-99123400D01*
X109551520Y-99273260D01*
X109681060Y-99397720D01*
X109696300Y-99407880D01*
X109754720Y-99453600D01*
X109795360Y-99484080D01*
X109825840Y-99509480D01*
X109602320Y-100047960D01*
X109566760Y-100131780D01*
X109505800Y-100279100D01*
X109452460Y-100406100D01*
X109409280Y-100507700D01*
X109378800Y-100573740D01*
X109366100Y-100601680D01*
X109366100Y-100604220D01*
X109345780Y-100606760D01*
X109305140Y-100591520D01*
X109228940Y-100555960D01*
X109180680Y-100530560D01*
X109122260Y-100502620D01*
X109096860Y-100492460D01*
X109074000Y-100505160D01*
X109020660Y-100540720D01*
X108939380Y-100594060D01*
X108842860Y-100657560D01*
X108751420Y-100721060D01*
X108667600Y-100776940D01*
X108606640Y-100815040D01*
X108576160Y-100832820D01*
X108571080Y-100832820D01*
X108545680Y-100817580D01*
X108497420Y-100776940D01*
X108423760Y-100708360D01*
X108319620Y-100604220D01*
X108304380Y-100588980D01*
X108218020Y-100502620D01*
X108149440Y-100428960D01*
X108103720Y-100378160D01*
X108085940Y-100355300D01*
X108085940Y-100355300D01*
X108101180Y-100324820D01*
X108139280Y-100263860D01*
X108195160Y-100177500D01*
X108263740Y-100078440D01*
X108441540Y-99819360D01*
X108345020Y-99575520D01*
X108314540Y-99499320D01*
X108276440Y-99410420D01*
X108248500Y-99344380D01*
X108233260Y-99316440D01*
X108207860Y-99306280D01*
X108139280Y-99291040D01*
X108042760Y-99270720D01*
X107928460Y-99250400D01*
X107816700Y-99230080D01*
X107717640Y-99209760D01*
X107646520Y-99197060D01*
X107613500Y-99189440D01*
X107605880Y-99184360D01*
X107598260Y-99169120D01*
X107595720Y-99136100D01*
X107593180Y-99075140D01*
X107590640Y-98981160D01*
X107590640Y-98841460D01*
X107590640Y-98826220D01*
X107593180Y-98696680D01*
X107595720Y-98590000D01*
X107598260Y-98523960D01*
X107603340Y-98496020D01*
X107603340Y-98496020D01*
X107633820Y-98488400D01*
X107704940Y-98473160D01*
X107804000Y-98455380D01*
X107923380Y-98432520D01*
X107931000Y-98429980D01*
X108047840Y-98407120D01*
X108146900Y-98386800D01*
X108218020Y-98371560D01*
X108245960Y-98361400D01*
X108253580Y-98353780D01*
X108276440Y-98308060D01*
X108309460Y-98234400D01*
X108350100Y-98145500D01*
X108388200Y-98051520D01*
X108421220Y-97967700D01*
X108444080Y-97906740D01*
X108451700Y-97878800D01*
X108449160Y-97876260D01*
X108431380Y-97848320D01*
X108390740Y-97787360D01*
X108334860Y-97703540D01*
X108266280Y-97601940D01*
X108261200Y-97594320D01*
X108192620Y-97495260D01*
X108136740Y-97408900D01*
X108101180Y-97350480D01*
X108085940Y-97322540D01*
X108085940Y-97320000D01*
X108108800Y-97289520D01*
X108159600Y-97233640D01*
X108233260Y-97157440D01*
X108319620Y-97068540D01*
X108347560Y-97043140D01*
X108446620Y-96946620D01*
X108512660Y-96885660D01*
X108555840Y-96852640D01*
X108576160Y-96845020D01*
X108576160Y-96845020D01*
X108606640Y-96862800D01*
X108670140Y-96903440D01*
X108753960Y-96961860D01*
X108855560Y-97030440D01*
X108863180Y-97035520D01*
X108962240Y-97104100D01*
X109046060Y-97159980D01*
X109104480Y-97200620D01*
X109132420Y-97215860D01*
X109134960Y-97215860D01*
X109175600Y-97203160D01*
X109246720Y-97177760D01*
X109335620Y-97144740D01*
X109427060Y-97106640D01*
X109510880Y-97071080D01*
X109574380Y-97043140D01*
X109604860Y-97025360D01*
X109604860Y-97025360D01*
X109615020Y-96989800D01*
X109632800Y-96913600D01*
X109653120Y-96812000D01*
X109678520Y-96690080D01*
X109681060Y-96669760D01*
X109703920Y-96550380D01*
X109721700Y-96451320D01*
X109736940Y-96382740D01*
X109744560Y-96354800D01*
X109759800Y-96352260D01*
X109818220Y-96347180D01*
X109907120Y-96344640D01*
X110016340Y-96344640D01*
X110128100Y-96344640D01*
X110237320Y-96347180D01*
X110331300Y-96349720D01*
X110399880Y-96354800D01*
X110427820Y-96359880D01*
X110427820Y-96362420D01*
X110437980Y-96400520D01*
X110455760Y-96474180D01*
X110476080Y-96578320D01*
X110498940Y-96700240D01*
X110504020Y-96723100D01*
X110526880Y-96839940D01*
X110547200Y-96939000D01*
X110559900Y-97005040D01*
X110567520Y-97032980D01*
X110580220Y-97038060D01*
X110628480Y-97058380D01*
X110707220Y-97091400D01*
X110806280Y-97132040D01*
X111034880Y-97223480D01*
X111316820Y-97032980D01*
X111342220Y-97015200D01*
X111443820Y-96946620D01*
X111525100Y-96890740D01*
X111583520Y-96852640D01*
X111606380Y-96839940D01*
X111608920Y-96839940D01*
X111636860Y-96865340D01*
X111692740Y-96918680D01*
X111768940Y-96992340D01*
X111857840Y-97078700D01*
X111921340Y-97144740D01*
X112000080Y-97223480D01*
X112048340Y-97276820D01*
X112076280Y-97309840D01*
X112083900Y-97330160D01*
X112081360Y-97345400D01*
X112063580Y-97373340D01*
X112022940Y-97434300D01*
X111964520Y-97520660D01*
X111895940Y-97619720D01*
X111840060Y-97703540D01*
X111779100Y-97797520D01*
X111741000Y-97863560D01*
X111725760Y-97896580D01*
X111730840Y-97909280D01*
X111748620Y-97965160D01*
X111784180Y-98048980D01*
X111824820Y-98148040D01*
X111923880Y-98369020D01*
X112068660Y-98396960D01*
X112157560Y-98414740D01*
X112279480Y-98437600D01*
X112398860Y-98460460D01*
X112581740Y-98496020D01*
X112589360Y-99171660D01*
X112561420Y-99184360D01*
X112533480Y-99191980D01*
X112464900Y-99207220D01*
X112368380Y-99227540D01*
X112251540Y-99247860D01*
X112155020Y-99265640D01*
X112055960Y-99285960D01*
X111984840Y-99298660D01*
X111954360Y-99306280D01*
X111944200Y-99316440D01*
X111921340Y-99364700D01*
X111885780Y-99440900D01*
X111845140Y-99532340D01*
X111807040Y-99626320D01*
X111771480Y-99715220D01*
X111748620Y-99781260D01*
X111738460Y-99814280D01*
X111751160Y-99842220D01*
X111789260Y-99900640D01*
X111842600Y-99981920D01*
X111911180Y-100080980D01*
X111977220Y-100177500D01*
X112035640Y-100261320D01*
X112073740Y-100322280D01*
X112091520Y-100350220D01*
X112081360Y-100368000D01*
X112043260Y-100416260D01*
X111969600Y-100492460D01*
X111857840Y-100601680D01*
X111840060Y-100619460D01*
X111753700Y-100703280D01*
X111680040Y-100771860D01*
X111626700Y-100817580D01*
X111603840Y-100835360D01*
X111603840Y-100835360D01*
G37*
X111603840Y-100835360D02*
X111578440Y-100820120D01*
X111520020Y-100784560D01*
X111436200Y-100728680D01*
X111337140Y-100662640D01*
X111238080Y-100596600D01*
X111156800Y-100543260D01*
X111100920Y-100505160D01*
X111075520Y-100492460D01*
X111062820Y-100497540D01*
X111017100Y-100520400D01*
X110948520Y-100555960D01*
X110907880Y-100576280D01*
X110846920Y-100601680D01*
X110813900Y-100609300D01*
X110808820Y-100599140D01*
X110785960Y-100550880D01*
X110750400Y-100469600D01*
X110704680Y-100360380D01*
X110648800Y-100233380D01*
X110592920Y-100098760D01*
X110534500Y-99959060D01*
X110478620Y-99824440D01*
X110430360Y-99705060D01*
X110389720Y-99608540D01*
X110364320Y-99539960D01*
X110354160Y-99512020D01*
X110356700Y-99504400D01*
X110389720Y-99473920D01*
X110443060Y-99433280D01*
X110562440Y-99336760D01*
X110679280Y-99191980D01*
X110750400Y-99026880D01*
X110773260Y-98841460D01*
X110752940Y-98671280D01*
X110686900Y-98508720D01*
X110572600Y-98361400D01*
X110432900Y-98252180D01*
X110270340Y-98183600D01*
X110090000Y-98160740D01*
X109917280Y-98181060D01*
X109749640Y-98247100D01*
X109602320Y-98358860D01*
X109538820Y-98429980D01*
X109452460Y-98579840D01*
X109404200Y-98737320D01*
X109399120Y-98777960D01*
X109406740Y-98953220D01*
X109457540Y-99123400D01*
X109551520Y-99273260D01*
X109681060Y-99397720D01*
X109696300Y-99407880D01*
X109754720Y-99453600D01*
X109795360Y-99484080D01*
X109825840Y-99509480D01*
X109602320Y-100047960D01*
X109566760Y-100131780D01*
X109505800Y-100279100D01*
X109452460Y-100406100D01*
X109409280Y-100507700D01*
X109378800Y-100573740D01*
X109366100Y-100601680D01*
X109366100Y-100604220D01*
X109345780Y-100606760D01*
X109305140Y-100591520D01*
X109228940Y-100555960D01*
X109180680Y-100530560D01*
X109122260Y-100502620D01*
X109096860Y-100492460D01*
X109074000Y-100505160D01*
X109020660Y-100540720D01*
X108939380Y-100594060D01*
X108842860Y-100657560D01*
X108751420Y-100721060D01*
X108667600Y-100776940D01*
X108606640Y-100815040D01*
X108576160Y-100832820D01*
X108571080Y-100832820D01*
X108545680Y-100817580D01*
X108497420Y-100776940D01*
X108423760Y-100708360D01*
X108319620Y-100604220D01*
X108304380Y-100588980D01*
X108218020Y-100502620D01*
X108149440Y-100428960D01*
X108103720Y-100378160D01*
X108085940Y-100355300D01*
X108085940Y-100355300D01*
X108101180Y-100324820D01*
X108139280Y-100263860D01*
X108195160Y-100177500D01*
X108263740Y-100078440D01*
X108441540Y-99819360D01*
X108345020Y-99575520D01*
X108314540Y-99499320D01*
X108276440Y-99410420D01*
X108248500Y-99344380D01*
X108233260Y-99316440D01*
X108207860Y-99306280D01*
X108139280Y-99291040D01*
X108042760Y-99270720D01*
X107928460Y-99250400D01*
X107816700Y-99230080D01*
X107717640Y-99209760D01*
X107646520Y-99197060D01*
X107613500Y-99189440D01*
X107605880Y-99184360D01*
X107598260Y-99169120D01*
X107595720Y-99136100D01*
X107593180Y-99075140D01*
X107590640Y-98981160D01*
X107590640Y-98841460D01*
X107590640Y-98826220D01*
X107593180Y-98696680D01*
X107595720Y-98590000D01*
X107598260Y-98523960D01*
X107603340Y-98496020D01*
X107603340Y-98496020D01*
X107633820Y-98488400D01*
X107704940Y-98473160D01*
X107804000Y-98455380D01*
X107923380Y-98432520D01*
X107931000Y-98429980D01*
X108047840Y-98407120D01*
X108146900Y-98386800D01*
X108218020Y-98371560D01*
X108245960Y-98361400D01*
X108253580Y-98353780D01*
X108276440Y-98308060D01*
X108309460Y-98234400D01*
X108350100Y-98145500D01*
X108388200Y-98051520D01*
X108421220Y-97967700D01*
X108444080Y-97906740D01*
X108451700Y-97878800D01*
X108449160Y-97876260D01*
X108431380Y-97848320D01*
X108390740Y-97787360D01*
X108334860Y-97703540D01*
X108266280Y-97601940D01*
X108261200Y-97594320D01*
X108192620Y-97495260D01*
X108136740Y-97408900D01*
X108101180Y-97350480D01*
X108085940Y-97322540D01*
X108085940Y-97320000D01*
X108108800Y-97289520D01*
X108159600Y-97233640D01*
X108233260Y-97157440D01*
X108319620Y-97068540D01*
X108347560Y-97043140D01*
X108446620Y-96946620D01*
X108512660Y-96885660D01*
X108555840Y-96852640D01*
X108576160Y-96845020D01*
X108576160Y-96845020D01*
X108606640Y-96862800D01*
X108670140Y-96903440D01*
X108753960Y-96961860D01*
X108855560Y-97030440D01*
X108863180Y-97035520D01*
X108962240Y-97104100D01*
X109046060Y-97159980D01*
X109104480Y-97200620D01*
X109132420Y-97215860D01*
X109134960Y-97215860D01*
X109175600Y-97203160D01*
X109246720Y-97177760D01*
X109335620Y-97144740D01*
X109427060Y-97106640D01*
X109510880Y-97071080D01*
X109574380Y-97043140D01*
X109604860Y-97025360D01*
X109604860Y-97025360D01*
X109615020Y-96989800D01*
X109632800Y-96913600D01*
X109653120Y-96812000D01*
X109678520Y-96690080D01*
X109681060Y-96669760D01*
X109703920Y-96550380D01*
X109721700Y-96451320D01*
X109736940Y-96382740D01*
X109744560Y-96354800D01*
X109759800Y-96352260D01*
X109818220Y-96347180D01*
X109907120Y-96344640D01*
X110016340Y-96344640D01*
X110128100Y-96344640D01*
X110237320Y-96347180D01*
X110331300Y-96349720D01*
X110399880Y-96354800D01*
X110427820Y-96359880D01*
X110427820Y-96362420D01*
X110437980Y-96400520D01*
X110455760Y-96474180D01*
X110476080Y-96578320D01*
X110498940Y-96700240D01*
X110504020Y-96723100D01*
X110526880Y-96839940D01*
X110547200Y-96939000D01*
X110559900Y-97005040D01*
X110567520Y-97032980D01*
X110580220Y-97038060D01*
X110628480Y-97058380D01*
X110707220Y-97091400D01*
X110806280Y-97132040D01*
X111034880Y-97223480D01*
X111316820Y-97032980D01*
X111342220Y-97015200D01*
X111443820Y-96946620D01*
X111525100Y-96890740D01*
X111583520Y-96852640D01*
X111606380Y-96839940D01*
X111608920Y-96839940D01*
X111636860Y-96865340D01*
X111692740Y-96918680D01*
X111768940Y-96992340D01*
X111857840Y-97078700D01*
X111921340Y-97144740D01*
X112000080Y-97223480D01*
X112048340Y-97276820D01*
X112076280Y-97309840D01*
X112083900Y-97330160D01*
X112081360Y-97345400D01*
X112063580Y-97373340D01*
X112022940Y-97434300D01*
X111964520Y-97520660D01*
X111895940Y-97619720D01*
X111840060Y-97703540D01*
X111779100Y-97797520D01*
X111741000Y-97863560D01*
X111725760Y-97896580D01*
X111730840Y-97909280D01*
X111748620Y-97965160D01*
X111784180Y-98048980D01*
X111824820Y-98148040D01*
X111923880Y-98369020D01*
X112068660Y-98396960D01*
X112157560Y-98414740D01*
X112279480Y-98437600D01*
X112398860Y-98460460D01*
X112581740Y-98496020D01*
X112589360Y-99171660D01*
X112561420Y-99184360D01*
X112533480Y-99191980D01*
X112464900Y-99207220D01*
X112368380Y-99227540D01*
X112251540Y-99247860D01*
X112155020Y-99265640D01*
X112055960Y-99285960D01*
X111984840Y-99298660D01*
X111954360Y-99306280D01*
X111944200Y-99316440D01*
X111921340Y-99364700D01*
X111885780Y-99440900D01*
X111845140Y-99532340D01*
X111807040Y-99626320D01*
X111771480Y-99715220D01*
X111748620Y-99781260D01*
X111738460Y-99814280D01*
X111751160Y-99842220D01*
X111789260Y-99900640D01*
X111842600Y-99981920D01*
X111911180Y-100080980D01*
X111977220Y-100177500D01*
X112035640Y-100261320D01*
X112073740Y-100322280D01*
X112091520Y-100350220D01*
X112081360Y-100368000D01*
X112043260Y-100416260D01*
X111969600Y-100492460D01*
X111857840Y-100601680D01*
X111840060Y-100619460D01*
X111753700Y-100703280D01*
X111680040Y-100771860D01*
X111626700Y-100817580D01*
X111603840Y-100835360D01*
M02*
