G04 #@! TF.FileFunction,Copper,L2,Bot,Signal*
%FSLAX46Y46*%
G04 Gerber Fmt 4.6, Leading zero omitted, Abs format (unit mm)*
G04 Created by KiCad (PCBNEW 4.0.7-e2-6376~61~ubuntu18.04.1) date Sat Sep 28 19:31:04 2019*
%MOMM*%
%LPD*%
G01*
G04 APERTURE LIST*
%ADD10C,0.100000*%
%ADD11O,1.998980X1.998980*%
%ADD12R,1.998980X1.998980*%
%ADD13C,2.400000*%
%ADD14O,2.400000X2.400000*%
%ADD15C,4.500000*%
%ADD16R,1.727200X1.727200*%
%ADD17O,1.727200X1.727200*%
%ADD18C,0.685800*%
%ADD19C,0.381000*%
%ADD20C,0.800000*%
%ADD21C,1.000000*%
%ADD22C,0.750000*%
%ADD23C,0.254000*%
G04 APERTURE END LIST*
D10*
D11*
X164690000Y-101310000D03*
D12*
X164690000Y-106390000D03*
D11*
X164690000Y-103850000D03*
X164690000Y-94950000D03*
D12*
X164690000Y-97490000D03*
D11*
X152050000Y-110150000D03*
D12*
X146970000Y-110150000D03*
D11*
X149510000Y-110150000D03*
X117754800Y-109979200D03*
D12*
X112674800Y-109979200D03*
D11*
X115214800Y-109979200D03*
D13*
X106832800Y-107109000D03*
D14*
X106832800Y-94409000D03*
D13*
X158790000Y-112590000D03*
D14*
X158790000Y-99890000D03*
D15*
X164891100Y-88993600D03*
X164891100Y-111993600D03*
X106891100Y-111993600D03*
D16*
X111491100Y-90293600D03*
D17*
X111491100Y-87753600D03*
X114031100Y-90293600D03*
X114031100Y-87753600D03*
X116571100Y-90293600D03*
X116571100Y-87753600D03*
X119111100Y-90293600D03*
X119111100Y-87753600D03*
X121651100Y-90293600D03*
X121651100Y-87753600D03*
X124191100Y-90293600D03*
X124191100Y-87753600D03*
X126731100Y-90293600D03*
X126731100Y-87753600D03*
X129271100Y-90293600D03*
X129271100Y-87753600D03*
X131811100Y-90293600D03*
X131811100Y-87753600D03*
X134351100Y-90293600D03*
X134351100Y-87753600D03*
X136891100Y-90293600D03*
X136891100Y-87753600D03*
X139431100Y-90293600D03*
X139431100Y-87753600D03*
X141971100Y-90293600D03*
X141971100Y-87753600D03*
X144511100Y-90293600D03*
X144511100Y-87753600D03*
X147051100Y-90293600D03*
X147051100Y-87753600D03*
X149591100Y-90293600D03*
X149591100Y-87753600D03*
X152131100Y-90293600D03*
X152131100Y-87753600D03*
X154671100Y-90293600D03*
X154671100Y-87753600D03*
X157211100Y-90293600D03*
X157211100Y-87753600D03*
X159751100Y-90293600D03*
X159751100Y-87753600D03*
D15*
X106891100Y-88993600D03*
D18*
X115350000Y-96770000D03*
X123840640Y-97655120D03*
X126599080Y-95526600D03*
X156380000Y-109510000D03*
X115010000Y-94530000D03*
X111510000Y-94700000D03*
X166192600Y-108937800D03*
X142824600Y-112062000D03*
X140132200Y-97431600D03*
X135382400Y-97507800D03*
X142824600Y-94840800D03*
X139883280Y-93834960D03*
X134061600Y-93774000D03*
X121580040Y-94988120D03*
X125118260Y-100106220D03*
X132253120Y-98871780D03*
X122933860Y-113205000D03*
X119177200Y-112646200D03*
X134963300Y-92277940D03*
X160390000Y-106490000D03*
X160290000Y-102290000D03*
X160890000Y-97790000D03*
X160690000Y-92290000D03*
X143390000Y-92290000D03*
X139690000Y-92190000D03*
X135636400Y-88917520D03*
X147955400Y-97888800D03*
X146279000Y-97812600D03*
X140767200Y-96491800D03*
X142977000Y-96568000D03*
X112960000Y-95930000D03*
X113050000Y-97620000D03*
X122301400Y-97822760D03*
X123657760Y-100505000D03*
X124907440Y-102836720D03*
X126736240Y-103588560D03*
X129769000Y-107302040D03*
X128534560Y-109694720D03*
X141300600Y-97507800D03*
X136677800Y-102791000D03*
X143205600Y-98092000D03*
X142113400Y-100149400D03*
X140233800Y-101876600D03*
X140233800Y-104061000D03*
X157150200Y-102714800D03*
X157150200Y-105153200D03*
X131369200Y-96669600D03*
X138506600Y-105000800D03*
X140840000Y-106260000D03*
X142500000Y-108310000D03*
X146890000Y-106720000D03*
X120071280Y-94401380D03*
X130090000Y-93980000D03*
X148650000Y-107870000D03*
X157260000Y-107370000D03*
X125776120Y-109649000D03*
X126461920Y-106829600D03*
X123383440Y-107286800D03*
X124876960Y-110113820D03*
X143993000Y-102994200D03*
X143866000Y-106855000D03*
X138608200Y-108226600D03*
X133477400Y-108379000D03*
X138176400Y-110995200D03*
X142570600Y-110842800D03*
X150241400Y-97152200D03*
X137846200Y-97203000D03*
X135890400Y-94688400D03*
X124079400Y-94815400D03*
X129057800Y-96695000D03*
X129794400Y-103095800D03*
X145390000Y-102968800D03*
X144700000Y-109010000D03*
D19*
X115350000Y-96770000D02*
X115400800Y-96820800D01*
X115400800Y-96820800D02*
X123007520Y-96822000D01*
X123007520Y-96822000D02*
X123840640Y-97655120D01*
X123840640Y-97655120D02*
X125303680Y-96192080D01*
X125303680Y-96192080D02*
X126599080Y-95526600D01*
X156390000Y-109500000D02*
X156720000Y-109500000D01*
X156380000Y-109510000D02*
X156390000Y-109500000D01*
X115060000Y-94720000D02*
X115080000Y-94740000D01*
X115060000Y-94580000D02*
X115060000Y-94720000D01*
X115010000Y-94530000D02*
X115060000Y-94580000D01*
X111540000Y-94730000D02*
X111560000Y-94730000D01*
X111510000Y-94700000D02*
X111540000Y-94730000D01*
X142773800Y-112112800D02*
X142773800Y-112239800D01*
X142824600Y-112062000D02*
X142773800Y-112112800D01*
X142900800Y-94917000D02*
X142900800Y-94993200D01*
X142824600Y-94840800D02*
X142900800Y-94917000D01*
X139883280Y-94038160D02*
X139903600Y-94038160D01*
X139883280Y-93834960D02*
X139883280Y-94038160D01*
X125118260Y-100106220D02*
X124843940Y-100106220D01*
X132253120Y-98871780D02*
X132392820Y-99011480D01*
X132392820Y-99011480D02*
X132392820Y-99598220D01*
X122956720Y-113227860D02*
X123048160Y-113227860D01*
X122933860Y-113205000D02*
X122956720Y-113227860D01*
X119121320Y-112590320D02*
X118925740Y-112590320D01*
X119177200Y-112646200D02*
X119121320Y-112590320D01*
D20*
X164690000Y-101310000D02*
X164690000Y-99899400D01*
X164690000Y-99899400D02*
X164694000Y-99895400D01*
X164690000Y-101310000D02*
X162847600Y-101310000D01*
X162847600Y-101310000D02*
X162839800Y-101317800D01*
D19*
X126731100Y-87753600D02*
X126731100Y-87629800D01*
X126731100Y-87629800D02*
X128145940Y-86214960D01*
X134351100Y-86832120D02*
X134351100Y-87753600D01*
X133733940Y-86214960D02*
X134351100Y-86832120D01*
X128145940Y-86214960D02*
X133733940Y-86214960D01*
X126731100Y-87753600D02*
X126731100Y-87698260D01*
X126731100Y-87698260D02*
X126065680Y-87032840D01*
X126065680Y-87032840D02*
X126065680Y-87170000D01*
X126731100Y-87753600D02*
X126649280Y-87753600D01*
X126649280Y-87753600D02*
X126065680Y-87170000D01*
X126065680Y-87170000D02*
X125110640Y-86214960D01*
X125110640Y-86214960D02*
X119075600Y-86214960D01*
X147051100Y-87753600D02*
X147051100Y-87185300D01*
X147051100Y-87185300D02*
X148018900Y-86217500D01*
X161201500Y-86217500D02*
X161430100Y-86446100D01*
X148018900Y-86217500D02*
X161201500Y-86217500D01*
X147051100Y-87753600D02*
X146863800Y-87753600D01*
X146863800Y-87753600D02*
X145603360Y-89014040D01*
X145603360Y-89014040D02*
X143250660Y-89014040D01*
X143250660Y-89014040D02*
X141971100Y-90293600D01*
D21*
X141971100Y-90293600D02*
X141971100Y-91308900D01*
X141490000Y-91790000D02*
X141490000Y-92690000D01*
X141971100Y-91308900D02*
X141490000Y-91790000D01*
X161265000Y-100784400D02*
X160290000Y-102290000D01*
X161442800Y-99184200D02*
X161265000Y-100784400D01*
X160890000Y-97790000D02*
X161442800Y-99184200D01*
X143390000Y-92290000D02*
X160690000Y-92290000D01*
D22*
X134963300Y-92277940D02*
X110102060Y-92277940D01*
D21*
X109953600Y-87778600D02*
X109890000Y-87842200D01*
X109890000Y-87842200D02*
X109890000Y-91615000D01*
X109890000Y-91615000D02*
X110090000Y-92290000D01*
X109953600Y-87778600D02*
X111491100Y-87753600D01*
D22*
X110102060Y-92277940D02*
X110090000Y-92290000D01*
X134963300Y-92277940D02*
X134963300Y-92290000D01*
X134963300Y-92290000D02*
X134963300Y-92277940D01*
X134963300Y-92277940D02*
X134963300Y-92290000D01*
D21*
X160490000Y-106390000D02*
X164690000Y-106390000D01*
X160390000Y-106490000D02*
X160490000Y-106390000D01*
X138290000Y-92290000D02*
X139590000Y-92290000D01*
X134963300Y-92290000D02*
X137590000Y-92290000D01*
X137590000Y-92290000D02*
X138290000Y-92290000D01*
X139590000Y-92290000D02*
X139690000Y-92190000D01*
D19*
X131811100Y-90293600D02*
X131790240Y-90293600D01*
X131790240Y-90293600D02*
X130556400Y-89059760D01*
X112724940Y-89059760D02*
X111491100Y-90293600D01*
X130556400Y-89059760D02*
X112724940Y-89059760D01*
X133085580Y-89019120D02*
X131811100Y-90293600D01*
X135534800Y-89019120D02*
X133085580Y-89019120D01*
X135636400Y-88917520D02*
X135534800Y-89019120D01*
X147955400Y-97888800D02*
X147879200Y-97812600D01*
X147879200Y-97812600D02*
X146279000Y-97812600D01*
X142900800Y-96491800D02*
X140767200Y-96491800D01*
X142977000Y-96568000D02*
X142900800Y-96491800D01*
X112960000Y-97530000D02*
X112960000Y-95930000D01*
X113050000Y-97620000D02*
X112960000Y-97530000D01*
X123673000Y-99194360D02*
X122301400Y-97822760D01*
X123673000Y-100489760D02*
X123673000Y-99194360D01*
X123657760Y-100505000D02*
X123673000Y-100489760D01*
X125984400Y-102836720D02*
X124907440Y-102836720D01*
X126736240Y-103588560D02*
X125984400Y-102836720D01*
X129769000Y-107363000D02*
X129769000Y-107302040D01*
X128534560Y-109694720D02*
X129769000Y-107363000D01*
X141300600Y-100149400D02*
X141300600Y-97507800D01*
X140716400Y-100149400D02*
X141300600Y-100149400D01*
X139827400Y-100149400D02*
X140716400Y-100149400D01*
X136677800Y-102791000D02*
X139827400Y-100149400D01*
X143205600Y-99057200D02*
X143205600Y-98092000D01*
X142113400Y-100149400D02*
X143205600Y-99057200D01*
X140233800Y-104061000D02*
X140233800Y-101876600D01*
X149555600Y-105508800D02*
X148101200Y-105508800D01*
X157150200Y-105153200D02*
X156794600Y-105508800D01*
X156794600Y-105508800D02*
X149555600Y-105508800D01*
X134849000Y-99641400D02*
X131369200Y-96669600D01*
X134849000Y-102892600D02*
X134849000Y-99641400D01*
X136652400Y-104696000D02*
X134849000Y-102892600D01*
X138201800Y-104696000D02*
X136652400Y-104696000D01*
X138506600Y-105000800D02*
X138201800Y-104696000D01*
X140763800Y-106260000D02*
X140840000Y-106260000D01*
X142500000Y-108310000D02*
X140763800Y-106260000D01*
X148101200Y-105508800D02*
X146890000Y-106720000D01*
X123060860Y-93786700D02*
X120685960Y-93786700D01*
X120685960Y-93786700D02*
X120071280Y-94401380D01*
X130062060Y-94007940D02*
X123060860Y-93786700D01*
X123060860Y-93786700D02*
X123032920Y-93786700D01*
X130090000Y-93980000D02*
X130062060Y-94007940D01*
X159182200Y-103850000D02*
X157150200Y-102714800D01*
X164690000Y-103850000D02*
X159182200Y-103850000D01*
X148650000Y-107870000D02*
X149106200Y-107413800D01*
X149106200Y-107413800D02*
X157260000Y-107370000D01*
X112674800Y-109979200D02*
X112090000Y-108962600D01*
X105308800Y-95933000D02*
X106832800Y-94409000D01*
X105308800Y-102181400D02*
X105308800Y-95933000D01*
X112090000Y-108962600D02*
X105308800Y-102181400D01*
X125776120Y-109649000D02*
X126512720Y-108790480D01*
X126512720Y-108790480D02*
X126461920Y-106829600D01*
X123383440Y-107286800D02*
X123281840Y-107286800D01*
X124876960Y-110113820D02*
X123383440Y-107286800D01*
X143993000Y-106728000D02*
X143993000Y-102994200D01*
X143866000Y-106855000D02*
X143993000Y-106728000D01*
X133629800Y-108226600D02*
X138608200Y-108226600D01*
X133477400Y-108379000D02*
X133629800Y-108226600D01*
X142418200Y-110995200D02*
X138176400Y-110995200D01*
X142570600Y-110842800D02*
X142418200Y-110995200D01*
X148971400Y-97152200D02*
X150241400Y-97152200D01*
X148565000Y-96745800D02*
X148971400Y-97152200D01*
X146507600Y-96745800D02*
X148565000Y-96745800D01*
X145593200Y-95679000D02*
X146507600Y-96745800D01*
X139720720Y-95674680D02*
X145593200Y-95679000D01*
X137846200Y-97203000D02*
X139720720Y-95674680D01*
X124206400Y-94688400D02*
X135890400Y-94688400D01*
X124079400Y-94815400D02*
X124206400Y-94688400D01*
X129769000Y-103045000D02*
X129057800Y-98981000D01*
X129057800Y-98981000D02*
X129057800Y-96695000D01*
X129769000Y-103070400D02*
X129769000Y-103045000D01*
X129794400Y-103095800D02*
X129769000Y-103070400D01*
X145415400Y-106829600D02*
X145390000Y-106804200D01*
X145390000Y-106804200D02*
X145390000Y-102968800D01*
X145460000Y-106874200D02*
X145415400Y-106829600D01*
X145460000Y-107670000D02*
X145460000Y-106874200D01*
X144710000Y-108420000D02*
X145460000Y-107670000D01*
X144710000Y-109000000D02*
X144710000Y-108420000D01*
X144700000Y-109010000D02*
X144710000Y-109000000D01*
D23*
G36*
X105920658Y-86233050D02*
X105640025Y-86507917D01*
X106891100Y-87758992D01*
X108142175Y-86507917D01*
X107865062Y-86236498D01*
X119074837Y-86256373D01*
X118508252Y-86369074D01*
X118022071Y-86693930D01*
X117841100Y-86964772D01*
X117660129Y-86693930D01*
X117173948Y-86369074D01*
X116600459Y-86255000D01*
X116541741Y-86255000D01*
X115968252Y-86369074D01*
X115482071Y-86693930D01*
X115301100Y-86964772D01*
X115120129Y-86693930D01*
X114633948Y-86369074D01*
X114060459Y-86255000D01*
X114001741Y-86255000D01*
X113428252Y-86369074D01*
X112942071Y-86693930D01*
X112761100Y-86964772D01*
X112580129Y-86693930D01*
X112093948Y-86369074D01*
X111520459Y-86255000D01*
X111461741Y-86255000D01*
X110888252Y-86369074D01*
X110490690Y-86634717D01*
X109935147Y-86643750D01*
X109727536Y-86688567D01*
X109519255Y-86729997D01*
X109511446Y-86735215D01*
X109502263Y-86737197D01*
X109327595Y-86858060D01*
X109151034Y-86976034D01*
X109087434Y-87039634D01*
X108841397Y-87407854D01*
X108755000Y-87842200D01*
X108755000Y-88364308D01*
X108125708Y-88993600D01*
X108139851Y-89007743D01*
X106905243Y-90242351D01*
X106891100Y-90228208D01*
X105640025Y-91479283D01*
X105946290Y-91779255D01*
X107084233Y-91928773D01*
X107835910Y-91779255D01*
X108142173Y-91479284D01*
X108352004Y-91689115D01*
X108755000Y-91286119D01*
X108755000Y-91615000D01*
X108786825Y-91774996D01*
X108801764Y-91937440D01*
X109001764Y-92612440D01*
X109207994Y-93004346D01*
X109548501Y-93287498D01*
X109971446Y-93418791D01*
X110412440Y-93378235D01*
X110584032Y-93287940D01*
X120017286Y-93287940D01*
X119881911Y-93423315D01*
X119877617Y-93423311D01*
X119518068Y-93571873D01*
X119242740Y-93846721D01*
X119093550Y-94206010D01*
X119093211Y-94595043D01*
X119241773Y-94954592D01*
X119516621Y-95229920D01*
X119875910Y-95379110D01*
X120264943Y-95379449D01*
X120624492Y-95230887D01*
X120899820Y-94956039D01*
X121042595Y-94612200D01*
X123047825Y-94612200D01*
X123104182Y-94613981D01*
X123101670Y-94620030D01*
X123101331Y-95009063D01*
X123249893Y-95368612D01*
X123524741Y-95643940D01*
X123884030Y-95793130D01*
X124273063Y-95793469D01*
X124632612Y-95644907D01*
X124763848Y-95513900D01*
X124855795Y-95513900D01*
X124826307Y-95537306D01*
X124719963Y-95608363D01*
X123840640Y-96487686D01*
X123591237Y-96238283D01*
X123455176Y-96147370D01*
X123323545Y-96059387D01*
X123323482Y-96059374D01*
X123323426Y-96059337D01*
X123164171Y-96027660D01*
X123007650Y-95996500D01*
X115958493Y-95995388D01*
X115904659Y-95941460D01*
X115545370Y-95792270D01*
X115156337Y-95791931D01*
X114796788Y-95940493D01*
X114521460Y-96215341D01*
X114372270Y-96574630D01*
X114371931Y-96963663D01*
X114520493Y-97323212D01*
X114795341Y-97598540D01*
X115154630Y-97747730D01*
X115543663Y-97748069D01*
X115789815Y-97646361D01*
X121323653Y-97647234D01*
X121323331Y-98016423D01*
X121471893Y-98375972D01*
X121746741Y-98651300D01*
X122106030Y-98800490D01*
X122111701Y-98800495D01*
X122847500Y-99536293D01*
X122847500Y-99932093D01*
X122829220Y-99950341D01*
X122680030Y-100309630D01*
X122679691Y-100698663D01*
X122828253Y-101058212D01*
X123103101Y-101333540D01*
X123462390Y-101482730D01*
X123851423Y-101483069D01*
X124210972Y-101334507D01*
X124486300Y-101059659D01*
X124635490Y-100700370D01*
X124635829Y-100311337D01*
X124498500Y-99978974D01*
X124498500Y-99194360D01*
X124471548Y-99058861D01*
X124435663Y-98878454D01*
X124361679Y-98767730D01*
X124256717Y-98610643D01*
X124256714Y-98610641D01*
X124207641Y-98561568D01*
X124393852Y-98484627D01*
X124669180Y-98209779D01*
X124818370Y-97850490D01*
X124818375Y-97844819D01*
X125774531Y-96888663D01*
X128079731Y-96888663D01*
X128228293Y-97248212D01*
X128232300Y-97252226D01*
X128232300Y-98981000D01*
X128246317Y-99051468D01*
X128244657Y-99123300D01*
X128879272Y-102749669D01*
X128816670Y-102900430D01*
X128816331Y-103289463D01*
X128964893Y-103649012D01*
X129239741Y-103924340D01*
X129599030Y-104073530D01*
X129988063Y-104073869D01*
X130347612Y-103925307D01*
X130622940Y-103650459D01*
X130772130Y-103291170D01*
X130772469Y-102902137D01*
X130623907Y-102542588D01*
X130496850Y-102415309D01*
X129883300Y-98909311D01*
X129883300Y-97252694D01*
X129886340Y-97249659D01*
X130035530Y-96890370D01*
X130035553Y-96863263D01*
X130391131Y-96863263D01*
X130539693Y-97222812D01*
X130814541Y-97498140D01*
X131173830Y-97647330D01*
X131242998Y-97647390D01*
X134023500Y-100021980D01*
X134023500Y-102892600D01*
X134086337Y-103208506D01*
X134265283Y-103476317D01*
X136068681Y-105279714D01*
X136068683Y-105279717D01*
X136304553Y-105437320D01*
X136336495Y-105458663D01*
X136652400Y-105521501D01*
X136652405Y-105521500D01*
X137663659Y-105521500D01*
X137677093Y-105554012D01*
X137951941Y-105829340D01*
X138311230Y-105978530D01*
X138700263Y-105978869D01*
X139059812Y-105830307D01*
X139335140Y-105555459D01*
X139484330Y-105196170D01*
X139484669Y-104807137D01*
X139405421Y-104615342D01*
X139679141Y-104889540D01*
X140038430Y-105038730D01*
X140427463Y-105039069D01*
X140787012Y-104890507D01*
X141062340Y-104615659D01*
X141211530Y-104256370D01*
X141211869Y-103867337D01*
X141063307Y-103507788D01*
X141059300Y-103503774D01*
X141059300Y-102434294D01*
X141062340Y-102431259D01*
X141211530Y-102071970D01*
X141211869Y-101682937D01*
X141063307Y-101323388D01*
X140788459Y-101048060D01*
X140612270Y-100974900D01*
X141300600Y-100974900D01*
X141513443Y-100932563D01*
X141558741Y-100977940D01*
X141918030Y-101127130D01*
X142307063Y-101127469D01*
X142666612Y-100978907D01*
X142941940Y-100704059D01*
X143091130Y-100344770D01*
X143091135Y-100339099D01*
X143789317Y-99640917D01*
X143968263Y-99373106D01*
X144031100Y-99057200D01*
X144031100Y-98649694D01*
X144034140Y-98646659D01*
X144183330Y-98287370D01*
X144183669Y-97898337D01*
X144035107Y-97538788D01*
X143760259Y-97263460D01*
X143692626Y-97235376D01*
X143805540Y-97122659D01*
X143954730Y-96763370D01*
X143954957Y-96503295D01*
X145213285Y-96504221D01*
X145670798Y-97037987D01*
X145450460Y-97257941D01*
X145301270Y-97617230D01*
X145300931Y-98006263D01*
X145449493Y-98365812D01*
X145724341Y-98641140D01*
X146083630Y-98790330D01*
X146472663Y-98790669D01*
X146832212Y-98642107D01*
X146836226Y-98638100D01*
X147321639Y-98638100D01*
X147400741Y-98717340D01*
X147760030Y-98866530D01*
X148149063Y-98866869D01*
X148508612Y-98718307D01*
X148783940Y-98443459D01*
X148933130Y-98084170D01*
X148933229Y-97970107D01*
X148971400Y-97977700D01*
X149683706Y-97977700D01*
X149686741Y-97980740D01*
X150046030Y-98129930D01*
X150435063Y-98130269D01*
X150794612Y-97981707D01*
X151069940Y-97706859D01*
X151219130Y-97347570D01*
X151219469Y-96958537D01*
X151070907Y-96598988D01*
X150796059Y-96323660D01*
X150436770Y-96174470D01*
X150047737Y-96174131D01*
X149688188Y-96322693D01*
X149684174Y-96326700D01*
X149313334Y-96326700D01*
X149148717Y-96162083D01*
X148880906Y-95983137D01*
X148565000Y-95920300D01*
X146887276Y-95920300D01*
X146219966Y-95141772D01*
X146194982Y-95122148D01*
X146177347Y-95095713D01*
X146069096Y-95023267D01*
X145966669Y-94942813D01*
X145936072Y-94934242D01*
X145909666Y-94916570D01*
X145781938Y-94891065D01*
X145656513Y-94855931D01*
X145624966Y-94859721D01*
X145593808Y-94853500D01*
X139721327Y-94849180D01*
X139603357Y-94872556D01*
X139483630Y-94883959D01*
X139446548Y-94903627D01*
X139405376Y-94911785D01*
X139305327Y-94978529D01*
X139199083Y-95034880D01*
X137739365Y-96225007D01*
X137652537Y-96224931D01*
X137292988Y-96373493D01*
X137017660Y-96648341D01*
X136868470Y-97007630D01*
X136868131Y-97396663D01*
X137016693Y-97756212D01*
X137291541Y-98031540D01*
X137650830Y-98180730D01*
X138039863Y-98181069D01*
X138399412Y-98032507D01*
X138674740Y-97757659D01*
X138778372Y-97508086D01*
X139789132Y-96684000D01*
X139789131Y-96685463D01*
X139937693Y-97045012D01*
X140212541Y-97320340D01*
X140322823Y-97366133D01*
X140322531Y-97701463D01*
X140471093Y-98061012D01*
X140475100Y-98065026D01*
X140475100Y-99323900D01*
X139827400Y-99323900D01*
X139704206Y-99348405D01*
X139579347Y-99362050D01*
X139547320Y-99379611D01*
X139511495Y-99386737D01*
X139407056Y-99456521D01*
X139296923Y-99516909D01*
X136559281Y-101812996D01*
X136484137Y-101812931D01*
X136124588Y-101961493D01*
X135849260Y-102236341D01*
X135705760Y-102581926D01*
X135674500Y-102550666D01*
X135674500Y-99641400D01*
X135668096Y-99609202D01*
X135671953Y-99576600D01*
X135636873Y-99452235D01*
X135611663Y-99325495D01*
X135593423Y-99298197D01*
X135584511Y-99266602D01*
X135504511Y-99165131D01*
X135432717Y-99057683D01*
X135405419Y-99039443D01*
X135385095Y-99013664D01*
X132311117Y-96388442D01*
X132198707Y-96116388D01*
X131923859Y-95841060D01*
X131564570Y-95691870D01*
X131175537Y-95691531D01*
X130815988Y-95840093D01*
X130540660Y-96114941D01*
X130391470Y-96474230D01*
X130391131Y-96863263D01*
X130035553Y-96863263D01*
X130035869Y-96501337D01*
X129887307Y-96141788D01*
X129612459Y-95866460D01*
X129253170Y-95717270D01*
X128864137Y-95716931D01*
X128504588Y-95865493D01*
X128229260Y-96140341D01*
X128080070Y-96499630D01*
X128079731Y-96888663D01*
X125774531Y-96888663D01*
X125795943Y-96867251D01*
X126502226Y-96504416D01*
X126792743Y-96504669D01*
X127152292Y-96356107D01*
X127427620Y-96081259D01*
X127576810Y-95721970D01*
X127576991Y-95513900D01*
X135332706Y-95513900D01*
X135335741Y-95516940D01*
X135695030Y-95666130D01*
X136084063Y-95666469D01*
X136443612Y-95517907D01*
X136718940Y-95243059D01*
X136868130Y-94883770D01*
X136868469Y-94494737D01*
X136719907Y-94135188D01*
X136445059Y-93859860D01*
X136085770Y-93710670D01*
X135696737Y-93710331D01*
X135337188Y-93858893D01*
X135333174Y-93862900D01*
X131068002Y-93862900D01*
X131068069Y-93786337D01*
X130919507Y-93426788D01*
X130780901Y-93287940D01*
X134453132Y-93287940D01*
X134528954Y-93338603D01*
X134963300Y-93425000D01*
X139590000Y-93425000D01*
X140024346Y-93338603D01*
X140392566Y-93092566D01*
X140492566Y-92992566D01*
X140738603Y-92624346D01*
X140824999Y-92190000D01*
X140738603Y-91755655D01*
X140492566Y-91387434D01*
X140480782Y-91379561D01*
X140520129Y-91353270D01*
X140644857Y-91166602D01*
X140769603Y-91166602D01*
X140853104Y-91291590D01*
X141320121Y-91643461D01*
X141539300Y-91569928D01*
X141539300Y-90725400D01*
X141107500Y-90725400D01*
X141107500Y-89861800D01*
X141539300Y-89861800D01*
X141539300Y-89430000D01*
X142402900Y-89430000D01*
X142402900Y-89861800D01*
X142834700Y-89861800D01*
X142834700Y-90725400D01*
X142402900Y-90725400D01*
X142402900Y-91569928D01*
X142508615Y-91605395D01*
X142341397Y-91855654D01*
X142255000Y-92290000D01*
X142341397Y-92724346D01*
X142587434Y-93092566D01*
X142955654Y-93338603D01*
X143390000Y-93425000D01*
X160690000Y-93425000D01*
X161124346Y-93338603D01*
X161492566Y-93092566D01*
X161738603Y-92724346D01*
X161825000Y-92290000D01*
X161738603Y-91855654D01*
X161492566Y-91487434D01*
X161480368Y-91479283D01*
X163640025Y-91479283D01*
X163946290Y-91779255D01*
X165084233Y-91928773D01*
X165835910Y-91779255D01*
X166142175Y-91479283D01*
X164891100Y-90228208D01*
X163640025Y-91479283D01*
X161480368Y-91479283D01*
X161124346Y-91241397D01*
X160928636Y-91202468D01*
X161100928Y-90944574D01*
X161019464Y-90725400D01*
X160182900Y-90725400D01*
X160182900Y-91155000D01*
X159319300Y-91155000D01*
X159319300Y-90725400D01*
X158887500Y-90725400D01*
X158887500Y-89861800D01*
X159319300Y-89861800D01*
X159319300Y-89430000D01*
X160182900Y-89430000D01*
X160182900Y-89861800D01*
X161019464Y-89861800D01*
X161100928Y-89642626D01*
X160869096Y-89295610D01*
X160724591Y-89186733D01*
X161955927Y-89186733D01*
X162105445Y-89938410D01*
X162405417Y-90244675D01*
X163656492Y-88993600D01*
X162405417Y-87742525D01*
X162105445Y-88048790D01*
X161955927Y-89186733D01*
X160724591Y-89186733D01*
X160624102Y-89111020D01*
X160624102Y-88957615D01*
X160840129Y-88813270D01*
X161164985Y-88327089D01*
X161279059Y-87753600D01*
X161164985Y-87180111D01*
X160840129Y-86693930D01*
X160353948Y-86369074D01*
X160153528Y-86329208D01*
X163815853Y-86335701D01*
X163640025Y-86507917D01*
X164891100Y-87758992D01*
X166142175Y-86507917D01*
X165970247Y-86339521D01*
X167218760Y-86341735D01*
X167218760Y-87900548D01*
X166125708Y-88993600D01*
X167218760Y-90086652D01*
X167218760Y-93764989D01*
X166995323Y-93764794D01*
X166559628Y-93944820D01*
X166446409Y-94057841D01*
X166084761Y-93516596D01*
X165444839Y-93089014D01*
X164690000Y-92938867D01*
X163935161Y-93089014D01*
X163295239Y-93516596D01*
X162867657Y-94156518D01*
X162717510Y-94911357D01*
X162717510Y-94988643D01*
X162867657Y-95743482D01*
X162944614Y-95858657D01*
X162776608Y-96104542D01*
X162698448Y-96490510D01*
X162698448Y-98489490D01*
X162766294Y-98850062D01*
X162979392Y-99181226D01*
X163304542Y-99403392D01*
X163690510Y-99481552D01*
X165689490Y-99481552D01*
X166050062Y-99413706D01*
X166381226Y-99200608D01*
X166603392Y-98875458D01*
X166671115Y-98541030D01*
X166993255Y-98674794D01*
X167218760Y-98674991D01*
X167218760Y-100124989D01*
X166995323Y-100124794D01*
X166559628Y-100304820D01*
X166324490Y-100539548D01*
X166324490Y-100436998D01*
X166042492Y-100436998D01*
X165755808Y-100070757D01*
X165427038Y-99851120D01*
X165189745Y-99921453D01*
X165189745Y-100810255D01*
X165583000Y-100810255D01*
X165583000Y-101809745D01*
X165189745Y-101809745D01*
X165189745Y-102203000D01*
X164788094Y-102203000D01*
X164690000Y-102183488D01*
X164591906Y-102203000D01*
X164190255Y-102203000D01*
X164190255Y-101809745D01*
X163292497Y-101809745D01*
X163231084Y-102047044D01*
X163624192Y-102549243D01*
X163663760Y-102575677D01*
X163534241Y-102662219D01*
X163292173Y-103024500D01*
X161128459Y-103024500D01*
X161242685Y-102906942D01*
X162217685Y-101401342D01*
X162232827Y-101363247D01*
X162259224Y-101331888D01*
X162314139Y-101158672D01*
X162381259Y-100989803D01*
X162380670Y-100948816D01*
X162393058Y-100909740D01*
X162430478Y-100572956D01*
X163231084Y-100572956D01*
X163292497Y-100810255D01*
X164190255Y-100810255D01*
X164190255Y-99921453D01*
X163952962Y-99851120D01*
X163624192Y-100070757D01*
X163231084Y-100572956D01*
X162430478Y-100572956D01*
X162570858Y-99309540D01*
X162566172Y-99254995D01*
X162577669Y-99201468D01*
X162547356Y-99035952D01*
X162532955Y-98868310D01*
X162507753Y-98819711D01*
X162497890Y-98765857D01*
X161945090Y-97371657D01*
X161704683Y-96999736D01*
X161340248Y-96748126D01*
X160907267Y-96655131D01*
X160471657Y-96734910D01*
X160099736Y-96975317D01*
X159848126Y-97339752D01*
X159755131Y-97772733D01*
X159787757Y-97950880D01*
X159621571Y-97839838D01*
X158790000Y-97674428D01*
X157958429Y-97839838D01*
X157253457Y-98310885D01*
X156782410Y-99015857D01*
X156617000Y-99847428D01*
X156617000Y-99932572D01*
X156782410Y-100764143D01*
X157253457Y-101469115D01*
X157958429Y-101940162D01*
X158790000Y-102105572D01*
X159197632Y-102024489D01*
X159173741Y-102084597D01*
X159180107Y-102527406D01*
X159355443Y-102934072D01*
X159448509Y-103024500D01*
X159397154Y-103024500D01*
X158017869Y-102253946D01*
X157979707Y-102161588D01*
X157704859Y-101886260D01*
X157345570Y-101737070D01*
X156956537Y-101736731D01*
X156596988Y-101885293D01*
X156321660Y-102160141D01*
X156172470Y-102519430D01*
X156172131Y-102908463D01*
X156320693Y-103268012D01*
X156595541Y-103543340D01*
X156954830Y-103692530D01*
X157208132Y-103692751D01*
X158779593Y-104570665D01*
X158825859Y-104585645D01*
X158866295Y-104612663D01*
X158977830Y-104634849D01*
X159086025Y-104669879D01*
X159134505Y-104666013D01*
X159182200Y-104675500D01*
X163292173Y-104675500D01*
X163393453Y-104827077D01*
X163239069Y-104926420D01*
X163094079Y-105138620D01*
X163070511Y-105255000D01*
X160490000Y-105255000D01*
X160055654Y-105341397D01*
X159687434Y-105587434D01*
X159587434Y-105687434D01*
X159341397Y-106055655D01*
X159255000Y-106490000D01*
X159341397Y-106924345D01*
X159587434Y-107292566D01*
X159955655Y-107538603D01*
X160390000Y-107625000D01*
X160824345Y-107538603D01*
X160844703Y-107525000D01*
X163068568Y-107525000D01*
X163087348Y-107624807D01*
X163226420Y-107840931D01*
X163438620Y-107985921D01*
X163690510Y-108036930D01*
X165689490Y-108036930D01*
X165924807Y-107992652D01*
X166140931Y-107853580D01*
X166285921Y-107641380D01*
X166336930Y-107389490D01*
X166336930Y-107172678D01*
X166557875Y-107394009D01*
X166993255Y-107574794D01*
X167218760Y-107574991D01*
X167218760Y-110900548D01*
X166125708Y-111993600D01*
X167218760Y-113086652D01*
X167218760Y-114800000D01*
X165731618Y-114800000D01*
X165835910Y-114779255D01*
X166142175Y-114479283D01*
X164891100Y-113228208D01*
X163640025Y-114479283D01*
X163946290Y-114779255D01*
X164104175Y-114800000D01*
X129965672Y-114800000D01*
X107854685Y-114760865D01*
X108142175Y-114479283D01*
X106891100Y-113228208D01*
X105640025Y-114479283D01*
X105924026Y-114757448D01*
X104328360Y-114754624D01*
X104328360Y-113166001D01*
X104405417Y-113244675D01*
X105656492Y-111993600D01*
X108125708Y-111993600D01*
X109376783Y-113244675D01*
X109676755Y-112938410D01*
X109826273Y-111800467D01*
X109676755Y-111048790D01*
X109376783Y-110742525D01*
X108125708Y-111993600D01*
X105656492Y-111993600D01*
X104405417Y-110742525D01*
X104328360Y-110821199D01*
X104328360Y-102768072D01*
X104486081Y-103004119D01*
X106417598Y-104935636D01*
X106402460Y-104935623D01*
X105603502Y-105265746D01*
X104991694Y-105876487D01*
X104660178Y-106674867D01*
X104659423Y-107539340D01*
X104989546Y-108338298D01*
X105600287Y-108950106D01*
X106132183Y-109170968D01*
X105946290Y-109207945D01*
X105640025Y-109507917D01*
X106891100Y-110758992D01*
X108142175Y-109507917D01*
X107835910Y-109207945D01*
X107538010Y-109168803D01*
X108062098Y-108952254D01*
X108673906Y-108341513D01*
X109005422Y-107543133D01*
X109005439Y-107523477D01*
X110683248Y-109201286D01*
X110683248Y-110978690D01*
X110751094Y-111339262D01*
X110964192Y-111670426D01*
X111289342Y-111892592D01*
X111623770Y-111960315D01*
X111490006Y-112282455D01*
X111489594Y-112753877D01*
X111669620Y-113189572D01*
X112002675Y-113523209D01*
X112438055Y-113703994D01*
X112909477Y-113704406D01*
X113345172Y-113524380D01*
X113678809Y-113191325D01*
X113859594Y-112755945D01*
X113860006Y-112284523D01*
X113726313Y-111960963D01*
X114034862Y-111902906D01*
X114309007Y-111726499D01*
X114322528Y-111735533D01*
X114210791Y-111847075D01*
X114030006Y-112282455D01*
X114029594Y-112753877D01*
X114209620Y-113189572D01*
X114542675Y-113523209D01*
X114978055Y-113703994D01*
X115449477Y-113704406D01*
X115885172Y-113524380D01*
X116218809Y-113191325D01*
X116399594Y-112755945D01*
X116400006Y-112284523D01*
X116219980Y-111848828D01*
X116106959Y-111735609D01*
X116484800Y-111483144D01*
X116862528Y-111735533D01*
X116750791Y-111847075D01*
X116570006Y-112282455D01*
X116569594Y-112753877D01*
X116749620Y-113189572D01*
X117082675Y-113523209D01*
X117518055Y-113703994D01*
X117989477Y-113704406D01*
X118425172Y-113524380D01*
X118758809Y-113191325D01*
X118939594Y-112755945D01*
X118940006Y-112284523D01*
X118759980Y-111848828D01*
X118646959Y-111735609D01*
X119188204Y-111373961D01*
X119311882Y-111188863D01*
X137198331Y-111188863D01*
X137346893Y-111548412D01*
X137621741Y-111823740D01*
X137981030Y-111972930D01*
X138370063Y-111973269D01*
X138729612Y-111824707D01*
X138733626Y-111820700D01*
X142418200Y-111820700D01*
X142418864Y-111820568D01*
X142764263Y-111820869D01*
X143123812Y-111672307D01*
X143399140Y-111397459D01*
X143548330Y-111038170D01*
X143548669Y-110649137D01*
X143400107Y-110289588D01*
X143125259Y-110014260D01*
X142765970Y-109865070D01*
X142376937Y-109864731D01*
X142017388Y-110013293D01*
X141860708Y-110169700D01*
X138734094Y-110169700D01*
X138731059Y-110166660D01*
X138371770Y-110017470D01*
X137982737Y-110017131D01*
X137623188Y-110165693D01*
X137347860Y-110440541D01*
X137198670Y-110799830D01*
X137198331Y-111188863D01*
X119311882Y-111188863D01*
X119615786Y-110734039D01*
X119765933Y-109979200D01*
X119615786Y-109224361D01*
X119188204Y-108584439D01*
X118548282Y-108156857D01*
X117793443Y-108006710D01*
X117716157Y-108006710D01*
X116961318Y-108156857D01*
X116484800Y-108475256D01*
X116008282Y-108156857D01*
X115253443Y-108006710D01*
X115176157Y-108006710D01*
X114421318Y-108156857D01*
X114306143Y-108233814D01*
X114060258Y-108065808D01*
X113674290Y-107987648D01*
X112760486Y-107987648D01*
X112253301Y-107480463D01*
X122405371Y-107480463D01*
X122553933Y-107840012D01*
X122828781Y-108115340D01*
X122904052Y-108146595D01*
X123899133Y-110030141D01*
X123898891Y-110307483D01*
X124047453Y-110667032D01*
X124322301Y-110942360D01*
X124681590Y-111091550D01*
X125070623Y-111091889D01*
X125430172Y-110943327D01*
X125705500Y-110668479D01*
X125722784Y-110626854D01*
X125969783Y-110627069D01*
X126329332Y-110478507D01*
X126604660Y-110203659D01*
X126735574Y-109888383D01*
X127556491Y-109888383D01*
X127705053Y-110247932D01*
X127979901Y-110523260D01*
X128339190Y-110672450D01*
X128728223Y-110672789D01*
X129087772Y-110524227D01*
X129363100Y-110249379D01*
X129512290Y-109890090D01*
X129512533Y-109611751D01*
X130062638Y-108572663D01*
X132499331Y-108572663D01*
X132647893Y-108932212D01*
X132922741Y-109207540D01*
X133282030Y-109356730D01*
X133671063Y-109357069D01*
X134030612Y-109208507D01*
X134187292Y-109052100D01*
X138050506Y-109052100D01*
X138053541Y-109055140D01*
X138412830Y-109204330D01*
X138801863Y-109204669D01*
X139161412Y-109056107D01*
X139436740Y-108781259D01*
X139585930Y-108421970D01*
X139586269Y-108032937D01*
X139437707Y-107673388D01*
X139162859Y-107398060D01*
X138803570Y-107248870D01*
X138414537Y-107248531D01*
X138054988Y-107397093D01*
X138050974Y-107401100D01*
X133629800Y-107401100D01*
X133629136Y-107401232D01*
X133283737Y-107400931D01*
X132924188Y-107549493D01*
X132648860Y-107824341D01*
X132499670Y-108183630D01*
X132499331Y-108572663D01*
X130062638Y-108572663D01*
X130288879Y-108145320D01*
X130322212Y-108131547D01*
X130597540Y-107856699D01*
X130746730Y-107497410D01*
X130747069Y-107108377D01*
X130598507Y-106748828D01*
X130323659Y-106473500D01*
X130275887Y-106453663D01*
X139861931Y-106453663D01*
X140010493Y-106813212D01*
X140285341Y-107088540D01*
X140437107Y-107151559D01*
X141521993Y-108432527D01*
X141521931Y-108503663D01*
X141670493Y-108863212D01*
X141945341Y-109138540D01*
X142304630Y-109287730D01*
X142693663Y-109288069D01*
X143053212Y-109139507D01*
X143328540Y-108864659D01*
X143477730Y-108505370D01*
X143478069Y-108116337D01*
X143329507Y-107756788D01*
X143054659Y-107481460D01*
X142785359Y-107369637D01*
X142513518Y-107048663D01*
X142887931Y-107048663D01*
X143036493Y-107408212D01*
X143311341Y-107683540D01*
X143670630Y-107832730D01*
X144059663Y-107833069D01*
X144178669Y-107783897D01*
X144126283Y-107836283D01*
X143947337Y-108104094D01*
X143902868Y-108327657D01*
X143884500Y-108420000D01*
X143884500Y-108442324D01*
X143871460Y-108455341D01*
X143722270Y-108814630D01*
X143721931Y-109203663D01*
X143870493Y-109563212D01*
X144145341Y-109838540D01*
X144504630Y-109987730D01*
X144893663Y-109988069D01*
X144978448Y-109953037D01*
X144978448Y-111149490D01*
X145046294Y-111510062D01*
X145259392Y-111841226D01*
X145584542Y-112063392D01*
X145918970Y-112131115D01*
X145785206Y-112453255D01*
X145784794Y-112924677D01*
X145964820Y-113360372D01*
X146297875Y-113694009D01*
X146733255Y-113874794D01*
X147204677Y-113875206D01*
X147640372Y-113695180D01*
X147974009Y-113362125D01*
X148154794Y-112926745D01*
X148155206Y-112455323D01*
X148021513Y-112131763D01*
X148330062Y-112073706D01*
X148604207Y-111897299D01*
X148617728Y-111906333D01*
X148505991Y-112017875D01*
X148325206Y-112453255D01*
X148324794Y-112924677D01*
X148504820Y-113360372D01*
X148837875Y-113694009D01*
X149273255Y-113874794D01*
X149744677Y-113875206D01*
X150180372Y-113695180D01*
X150514009Y-113362125D01*
X150694794Y-112926745D01*
X150695206Y-112455323D01*
X150515180Y-112019628D01*
X150402159Y-111906409D01*
X150780000Y-111653944D01*
X151157728Y-111906333D01*
X151045991Y-112017875D01*
X150865206Y-112453255D01*
X150864794Y-112924677D01*
X151044820Y-113360372D01*
X151377875Y-113694009D01*
X151813255Y-113874794D01*
X152284677Y-113875206D01*
X152720372Y-113695180D01*
X153054009Y-113362125D01*
X153195930Y-113020340D01*
X156616623Y-113020340D01*
X156946746Y-113819298D01*
X157557487Y-114431106D01*
X158355867Y-114762622D01*
X159220340Y-114763377D01*
X160019298Y-114433254D01*
X160631106Y-113822513D01*
X160962622Y-113024133D01*
X160963353Y-112186733D01*
X161955927Y-112186733D01*
X162105445Y-112938410D01*
X162405417Y-113244675D01*
X163656492Y-111993600D01*
X162405417Y-110742525D01*
X162105445Y-111048790D01*
X161955927Y-112186733D01*
X160963353Y-112186733D01*
X160963377Y-112159660D01*
X160633254Y-111360702D01*
X160022513Y-110748894D01*
X159224133Y-110417378D01*
X158359660Y-110416623D01*
X157560702Y-110746746D01*
X156948894Y-111357487D01*
X156617378Y-112155867D01*
X156616623Y-113020340D01*
X153195930Y-113020340D01*
X153234794Y-112926745D01*
X153235206Y-112455323D01*
X153055180Y-112019628D01*
X152942159Y-111906409D01*
X153483404Y-111544761D01*
X153910986Y-110904839D01*
X154061133Y-110150000D01*
X153933415Y-109507917D01*
X163640025Y-109507917D01*
X164891100Y-110758992D01*
X166142175Y-109507917D01*
X165835910Y-109207945D01*
X164697967Y-109058427D01*
X163946290Y-109207945D01*
X163640025Y-109507917D01*
X153933415Y-109507917D01*
X153910986Y-109395161D01*
X153483404Y-108755239D01*
X153184339Y-108555410D01*
X156638712Y-108536854D01*
X156997103Y-108685671D01*
X157520600Y-108686128D01*
X158004424Y-108486216D01*
X158374915Y-108116371D01*
X158575671Y-107632897D01*
X158576128Y-107109400D01*
X158376216Y-106625576D01*
X158006371Y-106255085D01*
X157526476Y-106055815D01*
X157703412Y-105982707D01*
X157978740Y-105707859D01*
X158127930Y-105348570D01*
X158128269Y-104959537D01*
X157979707Y-104599988D01*
X157704859Y-104324660D01*
X157345570Y-104175470D01*
X156956537Y-104175131D01*
X156596988Y-104323693D01*
X156321660Y-104598541D01*
X156286465Y-104683300D01*
X148101200Y-104683300D01*
X147785295Y-104746137D01*
X147517483Y-104925083D01*
X147517481Y-104925086D01*
X146700632Y-105741935D01*
X146696337Y-105741931D01*
X146336788Y-105890493D01*
X146215500Y-106011570D01*
X146215500Y-103526494D01*
X146218540Y-103523459D01*
X146367730Y-103164170D01*
X146368069Y-102775137D01*
X146219507Y-102415588D01*
X145944659Y-102140260D01*
X145585370Y-101991070D01*
X145196337Y-101990731D01*
X144836788Y-102139293D01*
X144678788Y-102297018D01*
X144547659Y-102165660D01*
X144188370Y-102016470D01*
X143799337Y-102016131D01*
X143439788Y-102164693D01*
X143164460Y-102439541D01*
X143015270Y-102798830D01*
X143014931Y-103187863D01*
X143163493Y-103547412D01*
X143167500Y-103551426D01*
X143167500Y-106170528D01*
X143037460Y-106300341D01*
X142888270Y-106659630D01*
X142887931Y-107048663D01*
X142513518Y-107048663D01*
X141817929Y-106227353D01*
X141818069Y-106066337D01*
X141669507Y-105706788D01*
X141394659Y-105431460D01*
X141035370Y-105282270D01*
X140646337Y-105281931D01*
X140286788Y-105430493D01*
X140011460Y-105705341D01*
X139862270Y-106064630D01*
X139861931Y-106453663D01*
X130275887Y-106453663D01*
X129964370Y-106324310D01*
X129575337Y-106323971D01*
X129215788Y-106472533D01*
X128940460Y-106747381D01*
X128791270Y-107106670D01*
X128790974Y-107446070D01*
X128055991Y-108834371D01*
X127981348Y-108865213D01*
X127706020Y-109140061D01*
X127556830Y-109499350D01*
X127556491Y-109888383D01*
X126735574Y-109888383D01*
X126753850Y-109844370D01*
X126753909Y-109777107D01*
X127139225Y-109328014D01*
X127208224Y-109205457D01*
X127283309Y-109086528D01*
X127286889Y-109065730D01*
X127297240Y-109047344D01*
X127314087Y-108907708D01*
X127337943Y-108769101D01*
X127301385Y-107357950D01*
X127439650Y-107024970D01*
X127439989Y-106635937D01*
X127291427Y-106276388D01*
X127016579Y-106001060D01*
X126657290Y-105851870D01*
X126268257Y-105851531D01*
X125908708Y-106000093D01*
X125633380Y-106274941D01*
X125484190Y-106634230D01*
X125483851Y-107023263D01*
X125632413Y-107382812D01*
X125650956Y-107401388D01*
X125679266Y-108494149D01*
X125497455Y-108706053D01*
X125222908Y-108819493D01*
X125159974Y-108882317D01*
X124361267Y-107370479D01*
X124361509Y-107093137D01*
X124212947Y-106733588D01*
X123938099Y-106458260D01*
X123578810Y-106309070D01*
X123189777Y-106308731D01*
X122830228Y-106457293D01*
X122554900Y-106732141D01*
X122405710Y-107091430D01*
X122405371Y-107480463D01*
X112253301Y-107480463D01*
X107803221Y-103030383D01*
X123929371Y-103030383D01*
X124077933Y-103389932D01*
X124352781Y-103665260D01*
X124712070Y-103814450D01*
X125101103Y-103814789D01*
X125460652Y-103666227D01*
X125464666Y-103662220D01*
X125642466Y-103662220D01*
X125758175Y-103777928D01*
X125758171Y-103782223D01*
X125906733Y-104141772D01*
X126181581Y-104417100D01*
X126540870Y-104566290D01*
X126929903Y-104566629D01*
X127289452Y-104418067D01*
X127564780Y-104143219D01*
X127713970Y-103783930D01*
X127714309Y-103394897D01*
X127565747Y-103035348D01*
X127290899Y-102760020D01*
X126931610Y-102610830D01*
X126925939Y-102610825D01*
X126568117Y-102253003D01*
X126300306Y-102074057D01*
X125984400Y-102011220D01*
X125465134Y-102011220D01*
X125462099Y-102008180D01*
X125102810Y-101858990D01*
X124713777Y-101858651D01*
X124354228Y-102007213D01*
X124078900Y-102282061D01*
X123929710Y-102641350D01*
X123929371Y-103030383D01*
X107803221Y-103030383D01*
X106472300Y-101699462D01*
X106472300Y-96552864D01*
X106832800Y-96624572D01*
X107664371Y-96459162D01*
X108166480Y-96123663D01*
X111981931Y-96123663D01*
X112130493Y-96483212D01*
X112134500Y-96487226D01*
X112134500Y-97274764D01*
X112072270Y-97424630D01*
X112071931Y-97813663D01*
X112220493Y-98173212D01*
X112495341Y-98448540D01*
X112854630Y-98597730D01*
X113243663Y-98598069D01*
X113603212Y-98449507D01*
X113878540Y-98174659D01*
X114027730Y-97815370D01*
X114028069Y-97426337D01*
X113879507Y-97066788D01*
X113785500Y-96972617D01*
X113785500Y-96487694D01*
X113788540Y-96484659D01*
X113937730Y-96125370D01*
X113938069Y-95736337D01*
X113789507Y-95376788D01*
X113514659Y-95101460D01*
X113155370Y-94952270D01*
X112766337Y-94951931D01*
X112406788Y-95100493D01*
X112131460Y-95375341D01*
X111982270Y-95734630D01*
X111981931Y-96123663D01*
X108166480Y-96123663D01*
X108369343Y-95988115D01*
X108840390Y-95283143D01*
X109005800Y-94451572D01*
X109005800Y-94366428D01*
X108840390Y-93534857D01*
X108369343Y-92829885D01*
X107664371Y-92358838D01*
X106832800Y-92193428D01*
X106001229Y-92358838D01*
X105296257Y-92829885D01*
X104825210Y-93534857D01*
X104659800Y-94366428D01*
X104659800Y-94451572D01*
X104740265Y-94856097D01*
X104486081Y-95110281D01*
X104328360Y-95346328D01*
X104328360Y-90166001D01*
X104405417Y-90244675D01*
X105656492Y-88993600D01*
X104405417Y-87742525D01*
X104328360Y-87821199D01*
X104328360Y-86237570D01*
X104342993Y-86230253D01*
X105920658Y-86233050D01*
X105920658Y-86233050D01*
G37*
X105920658Y-86233050D02*
X105640025Y-86507917D01*
X106891100Y-87758992D01*
X108142175Y-86507917D01*
X107865062Y-86236498D01*
X119074837Y-86256373D01*
X118508252Y-86369074D01*
X118022071Y-86693930D01*
X117841100Y-86964772D01*
X117660129Y-86693930D01*
X117173948Y-86369074D01*
X116600459Y-86255000D01*
X116541741Y-86255000D01*
X115968252Y-86369074D01*
X115482071Y-86693930D01*
X115301100Y-86964772D01*
X115120129Y-86693930D01*
X114633948Y-86369074D01*
X114060459Y-86255000D01*
X114001741Y-86255000D01*
X113428252Y-86369074D01*
X112942071Y-86693930D01*
X112761100Y-86964772D01*
X112580129Y-86693930D01*
X112093948Y-86369074D01*
X111520459Y-86255000D01*
X111461741Y-86255000D01*
X110888252Y-86369074D01*
X110490690Y-86634717D01*
X109935147Y-86643750D01*
X109727536Y-86688567D01*
X109519255Y-86729997D01*
X109511446Y-86735215D01*
X109502263Y-86737197D01*
X109327595Y-86858060D01*
X109151034Y-86976034D01*
X109087434Y-87039634D01*
X108841397Y-87407854D01*
X108755000Y-87842200D01*
X108755000Y-88364308D01*
X108125708Y-88993600D01*
X108139851Y-89007743D01*
X106905243Y-90242351D01*
X106891100Y-90228208D01*
X105640025Y-91479283D01*
X105946290Y-91779255D01*
X107084233Y-91928773D01*
X107835910Y-91779255D01*
X108142173Y-91479284D01*
X108352004Y-91689115D01*
X108755000Y-91286119D01*
X108755000Y-91615000D01*
X108786825Y-91774996D01*
X108801764Y-91937440D01*
X109001764Y-92612440D01*
X109207994Y-93004346D01*
X109548501Y-93287498D01*
X109971446Y-93418791D01*
X110412440Y-93378235D01*
X110584032Y-93287940D01*
X120017286Y-93287940D01*
X119881911Y-93423315D01*
X119877617Y-93423311D01*
X119518068Y-93571873D01*
X119242740Y-93846721D01*
X119093550Y-94206010D01*
X119093211Y-94595043D01*
X119241773Y-94954592D01*
X119516621Y-95229920D01*
X119875910Y-95379110D01*
X120264943Y-95379449D01*
X120624492Y-95230887D01*
X120899820Y-94956039D01*
X121042595Y-94612200D01*
X123047825Y-94612200D01*
X123104182Y-94613981D01*
X123101670Y-94620030D01*
X123101331Y-95009063D01*
X123249893Y-95368612D01*
X123524741Y-95643940D01*
X123884030Y-95793130D01*
X124273063Y-95793469D01*
X124632612Y-95644907D01*
X124763848Y-95513900D01*
X124855795Y-95513900D01*
X124826307Y-95537306D01*
X124719963Y-95608363D01*
X123840640Y-96487686D01*
X123591237Y-96238283D01*
X123455176Y-96147370D01*
X123323545Y-96059387D01*
X123323482Y-96059374D01*
X123323426Y-96059337D01*
X123164171Y-96027660D01*
X123007650Y-95996500D01*
X115958493Y-95995388D01*
X115904659Y-95941460D01*
X115545370Y-95792270D01*
X115156337Y-95791931D01*
X114796788Y-95940493D01*
X114521460Y-96215341D01*
X114372270Y-96574630D01*
X114371931Y-96963663D01*
X114520493Y-97323212D01*
X114795341Y-97598540D01*
X115154630Y-97747730D01*
X115543663Y-97748069D01*
X115789815Y-97646361D01*
X121323653Y-97647234D01*
X121323331Y-98016423D01*
X121471893Y-98375972D01*
X121746741Y-98651300D01*
X122106030Y-98800490D01*
X122111701Y-98800495D01*
X122847500Y-99536293D01*
X122847500Y-99932093D01*
X122829220Y-99950341D01*
X122680030Y-100309630D01*
X122679691Y-100698663D01*
X122828253Y-101058212D01*
X123103101Y-101333540D01*
X123462390Y-101482730D01*
X123851423Y-101483069D01*
X124210972Y-101334507D01*
X124486300Y-101059659D01*
X124635490Y-100700370D01*
X124635829Y-100311337D01*
X124498500Y-99978974D01*
X124498500Y-99194360D01*
X124471548Y-99058861D01*
X124435663Y-98878454D01*
X124361679Y-98767730D01*
X124256717Y-98610643D01*
X124256714Y-98610641D01*
X124207641Y-98561568D01*
X124393852Y-98484627D01*
X124669180Y-98209779D01*
X124818370Y-97850490D01*
X124818375Y-97844819D01*
X125774531Y-96888663D01*
X128079731Y-96888663D01*
X128228293Y-97248212D01*
X128232300Y-97252226D01*
X128232300Y-98981000D01*
X128246317Y-99051468D01*
X128244657Y-99123300D01*
X128879272Y-102749669D01*
X128816670Y-102900430D01*
X128816331Y-103289463D01*
X128964893Y-103649012D01*
X129239741Y-103924340D01*
X129599030Y-104073530D01*
X129988063Y-104073869D01*
X130347612Y-103925307D01*
X130622940Y-103650459D01*
X130772130Y-103291170D01*
X130772469Y-102902137D01*
X130623907Y-102542588D01*
X130496850Y-102415309D01*
X129883300Y-98909311D01*
X129883300Y-97252694D01*
X129886340Y-97249659D01*
X130035530Y-96890370D01*
X130035553Y-96863263D01*
X130391131Y-96863263D01*
X130539693Y-97222812D01*
X130814541Y-97498140D01*
X131173830Y-97647330D01*
X131242998Y-97647390D01*
X134023500Y-100021980D01*
X134023500Y-102892600D01*
X134086337Y-103208506D01*
X134265283Y-103476317D01*
X136068681Y-105279714D01*
X136068683Y-105279717D01*
X136304553Y-105437320D01*
X136336495Y-105458663D01*
X136652400Y-105521501D01*
X136652405Y-105521500D01*
X137663659Y-105521500D01*
X137677093Y-105554012D01*
X137951941Y-105829340D01*
X138311230Y-105978530D01*
X138700263Y-105978869D01*
X139059812Y-105830307D01*
X139335140Y-105555459D01*
X139484330Y-105196170D01*
X139484669Y-104807137D01*
X139405421Y-104615342D01*
X139679141Y-104889540D01*
X140038430Y-105038730D01*
X140427463Y-105039069D01*
X140787012Y-104890507D01*
X141062340Y-104615659D01*
X141211530Y-104256370D01*
X141211869Y-103867337D01*
X141063307Y-103507788D01*
X141059300Y-103503774D01*
X141059300Y-102434294D01*
X141062340Y-102431259D01*
X141211530Y-102071970D01*
X141211869Y-101682937D01*
X141063307Y-101323388D01*
X140788459Y-101048060D01*
X140612270Y-100974900D01*
X141300600Y-100974900D01*
X141513443Y-100932563D01*
X141558741Y-100977940D01*
X141918030Y-101127130D01*
X142307063Y-101127469D01*
X142666612Y-100978907D01*
X142941940Y-100704059D01*
X143091130Y-100344770D01*
X143091135Y-100339099D01*
X143789317Y-99640917D01*
X143968263Y-99373106D01*
X144031100Y-99057200D01*
X144031100Y-98649694D01*
X144034140Y-98646659D01*
X144183330Y-98287370D01*
X144183669Y-97898337D01*
X144035107Y-97538788D01*
X143760259Y-97263460D01*
X143692626Y-97235376D01*
X143805540Y-97122659D01*
X143954730Y-96763370D01*
X143954957Y-96503295D01*
X145213285Y-96504221D01*
X145670798Y-97037987D01*
X145450460Y-97257941D01*
X145301270Y-97617230D01*
X145300931Y-98006263D01*
X145449493Y-98365812D01*
X145724341Y-98641140D01*
X146083630Y-98790330D01*
X146472663Y-98790669D01*
X146832212Y-98642107D01*
X146836226Y-98638100D01*
X147321639Y-98638100D01*
X147400741Y-98717340D01*
X147760030Y-98866530D01*
X148149063Y-98866869D01*
X148508612Y-98718307D01*
X148783940Y-98443459D01*
X148933130Y-98084170D01*
X148933229Y-97970107D01*
X148971400Y-97977700D01*
X149683706Y-97977700D01*
X149686741Y-97980740D01*
X150046030Y-98129930D01*
X150435063Y-98130269D01*
X150794612Y-97981707D01*
X151069940Y-97706859D01*
X151219130Y-97347570D01*
X151219469Y-96958537D01*
X151070907Y-96598988D01*
X150796059Y-96323660D01*
X150436770Y-96174470D01*
X150047737Y-96174131D01*
X149688188Y-96322693D01*
X149684174Y-96326700D01*
X149313334Y-96326700D01*
X149148717Y-96162083D01*
X148880906Y-95983137D01*
X148565000Y-95920300D01*
X146887276Y-95920300D01*
X146219966Y-95141772D01*
X146194982Y-95122148D01*
X146177347Y-95095713D01*
X146069096Y-95023267D01*
X145966669Y-94942813D01*
X145936072Y-94934242D01*
X145909666Y-94916570D01*
X145781938Y-94891065D01*
X145656513Y-94855931D01*
X145624966Y-94859721D01*
X145593808Y-94853500D01*
X139721327Y-94849180D01*
X139603357Y-94872556D01*
X139483630Y-94883959D01*
X139446548Y-94903627D01*
X139405376Y-94911785D01*
X139305327Y-94978529D01*
X139199083Y-95034880D01*
X137739365Y-96225007D01*
X137652537Y-96224931D01*
X137292988Y-96373493D01*
X137017660Y-96648341D01*
X136868470Y-97007630D01*
X136868131Y-97396663D01*
X137016693Y-97756212D01*
X137291541Y-98031540D01*
X137650830Y-98180730D01*
X138039863Y-98181069D01*
X138399412Y-98032507D01*
X138674740Y-97757659D01*
X138778372Y-97508086D01*
X139789132Y-96684000D01*
X139789131Y-96685463D01*
X139937693Y-97045012D01*
X140212541Y-97320340D01*
X140322823Y-97366133D01*
X140322531Y-97701463D01*
X140471093Y-98061012D01*
X140475100Y-98065026D01*
X140475100Y-99323900D01*
X139827400Y-99323900D01*
X139704206Y-99348405D01*
X139579347Y-99362050D01*
X139547320Y-99379611D01*
X139511495Y-99386737D01*
X139407056Y-99456521D01*
X139296923Y-99516909D01*
X136559281Y-101812996D01*
X136484137Y-101812931D01*
X136124588Y-101961493D01*
X135849260Y-102236341D01*
X135705760Y-102581926D01*
X135674500Y-102550666D01*
X135674500Y-99641400D01*
X135668096Y-99609202D01*
X135671953Y-99576600D01*
X135636873Y-99452235D01*
X135611663Y-99325495D01*
X135593423Y-99298197D01*
X135584511Y-99266602D01*
X135504511Y-99165131D01*
X135432717Y-99057683D01*
X135405419Y-99039443D01*
X135385095Y-99013664D01*
X132311117Y-96388442D01*
X132198707Y-96116388D01*
X131923859Y-95841060D01*
X131564570Y-95691870D01*
X131175537Y-95691531D01*
X130815988Y-95840093D01*
X130540660Y-96114941D01*
X130391470Y-96474230D01*
X130391131Y-96863263D01*
X130035553Y-96863263D01*
X130035869Y-96501337D01*
X129887307Y-96141788D01*
X129612459Y-95866460D01*
X129253170Y-95717270D01*
X128864137Y-95716931D01*
X128504588Y-95865493D01*
X128229260Y-96140341D01*
X128080070Y-96499630D01*
X128079731Y-96888663D01*
X125774531Y-96888663D01*
X125795943Y-96867251D01*
X126502226Y-96504416D01*
X126792743Y-96504669D01*
X127152292Y-96356107D01*
X127427620Y-96081259D01*
X127576810Y-95721970D01*
X127576991Y-95513900D01*
X135332706Y-95513900D01*
X135335741Y-95516940D01*
X135695030Y-95666130D01*
X136084063Y-95666469D01*
X136443612Y-95517907D01*
X136718940Y-95243059D01*
X136868130Y-94883770D01*
X136868469Y-94494737D01*
X136719907Y-94135188D01*
X136445059Y-93859860D01*
X136085770Y-93710670D01*
X135696737Y-93710331D01*
X135337188Y-93858893D01*
X135333174Y-93862900D01*
X131068002Y-93862900D01*
X131068069Y-93786337D01*
X130919507Y-93426788D01*
X130780901Y-93287940D01*
X134453132Y-93287940D01*
X134528954Y-93338603D01*
X134963300Y-93425000D01*
X139590000Y-93425000D01*
X140024346Y-93338603D01*
X140392566Y-93092566D01*
X140492566Y-92992566D01*
X140738603Y-92624346D01*
X140824999Y-92190000D01*
X140738603Y-91755655D01*
X140492566Y-91387434D01*
X140480782Y-91379561D01*
X140520129Y-91353270D01*
X140644857Y-91166602D01*
X140769603Y-91166602D01*
X140853104Y-91291590D01*
X141320121Y-91643461D01*
X141539300Y-91569928D01*
X141539300Y-90725400D01*
X141107500Y-90725400D01*
X141107500Y-89861800D01*
X141539300Y-89861800D01*
X141539300Y-89430000D01*
X142402900Y-89430000D01*
X142402900Y-89861800D01*
X142834700Y-89861800D01*
X142834700Y-90725400D01*
X142402900Y-90725400D01*
X142402900Y-91569928D01*
X142508615Y-91605395D01*
X142341397Y-91855654D01*
X142255000Y-92290000D01*
X142341397Y-92724346D01*
X142587434Y-93092566D01*
X142955654Y-93338603D01*
X143390000Y-93425000D01*
X160690000Y-93425000D01*
X161124346Y-93338603D01*
X161492566Y-93092566D01*
X161738603Y-92724346D01*
X161825000Y-92290000D01*
X161738603Y-91855654D01*
X161492566Y-91487434D01*
X161480368Y-91479283D01*
X163640025Y-91479283D01*
X163946290Y-91779255D01*
X165084233Y-91928773D01*
X165835910Y-91779255D01*
X166142175Y-91479283D01*
X164891100Y-90228208D01*
X163640025Y-91479283D01*
X161480368Y-91479283D01*
X161124346Y-91241397D01*
X160928636Y-91202468D01*
X161100928Y-90944574D01*
X161019464Y-90725400D01*
X160182900Y-90725400D01*
X160182900Y-91155000D01*
X159319300Y-91155000D01*
X159319300Y-90725400D01*
X158887500Y-90725400D01*
X158887500Y-89861800D01*
X159319300Y-89861800D01*
X159319300Y-89430000D01*
X160182900Y-89430000D01*
X160182900Y-89861800D01*
X161019464Y-89861800D01*
X161100928Y-89642626D01*
X160869096Y-89295610D01*
X160724591Y-89186733D01*
X161955927Y-89186733D01*
X162105445Y-89938410D01*
X162405417Y-90244675D01*
X163656492Y-88993600D01*
X162405417Y-87742525D01*
X162105445Y-88048790D01*
X161955927Y-89186733D01*
X160724591Y-89186733D01*
X160624102Y-89111020D01*
X160624102Y-88957615D01*
X160840129Y-88813270D01*
X161164985Y-88327089D01*
X161279059Y-87753600D01*
X161164985Y-87180111D01*
X160840129Y-86693930D01*
X160353948Y-86369074D01*
X160153528Y-86329208D01*
X163815853Y-86335701D01*
X163640025Y-86507917D01*
X164891100Y-87758992D01*
X166142175Y-86507917D01*
X165970247Y-86339521D01*
X167218760Y-86341735D01*
X167218760Y-87900548D01*
X166125708Y-88993600D01*
X167218760Y-90086652D01*
X167218760Y-93764989D01*
X166995323Y-93764794D01*
X166559628Y-93944820D01*
X166446409Y-94057841D01*
X166084761Y-93516596D01*
X165444839Y-93089014D01*
X164690000Y-92938867D01*
X163935161Y-93089014D01*
X163295239Y-93516596D01*
X162867657Y-94156518D01*
X162717510Y-94911357D01*
X162717510Y-94988643D01*
X162867657Y-95743482D01*
X162944614Y-95858657D01*
X162776608Y-96104542D01*
X162698448Y-96490510D01*
X162698448Y-98489490D01*
X162766294Y-98850062D01*
X162979392Y-99181226D01*
X163304542Y-99403392D01*
X163690510Y-99481552D01*
X165689490Y-99481552D01*
X166050062Y-99413706D01*
X166381226Y-99200608D01*
X166603392Y-98875458D01*
X166671115Y-98541030D01*
X166993255Y-98674794D01*
X167218760Y-98674991D01*
X167218760Y-100124989D01*
X166995323Y-100124794D01*
X166559628Y-100304820D01*
X166324490Y-100539548D01*
X166324490Y-100436998D01*
X166042492Y-100436998D01*
X165755808Y-100070757D01*
X165427038Y-99851120D01*
X165189745Y-99921453D01*
X165189745Y-100810255D01*
X165583000Y-100810255D01*
X165583000Y-101809745D01*
X165189745Y-101809745D01*
X165189745Y-102203000D01*
X164788094Y-102203000D01*
X164690000Y-102183488D01*
X164591906Y-102203000D01*
X164190255Y-102203000D01*
X164190255Y-101809745D01*
X163292497Y-101809745D01*
X163231084Y-102047044D01*
X163624192Y-102549243D01*
X163663760Y-102575677D01*
X163534241Y-102662219D01*
X163292173Y-103024500D01*
X161128459Y-103024500D01*
X161242685Y-102906942D01*
X162217685Y-101401342D01*
X162232827Y-101363247D01*
X162259224Y-101331888D01*
X162314139Y-101158672D01*
X162381259Y-100989803D01*
X162380670Y-100948816D01*
X162393058Y-100909740D01*
X162430478Y-100572956D01*
X163231084Y-100572956D01*
X163292497Y-100810255D01*
X164190255Y-100810255D01*
X164190255Y-99921453D01*
X163952962Y-99851120D01*
X163624192Y-100070757D01*
X163231084Y-100572956D01*
X162430478Y-100572956D01*
X162570858Y-99309540D01*
X162566172Y-99254995D01*
X162577669Y-99201468D01*
X162547356Y-99035952D01*
X162532955Y-98868310D01*
X162507753Y-98819711D01*
X162497890Y-98765857D01*
X161945090Y-97371657D01*
X161704683Y-96999736D01*
X161340248Y-96748126D01*
X160907267Y-96655131D01*
X160471657Y-96734910D01*
X160099736Y-96975317D01*
X159848126Y-97339752D01*
X159755131Y-97772733D01*
X159787757Y-97950880D01*
X159621571Y-97839838D01*
X158790000Y-97674428D01*
X157958429Y-97839838D01*
X157253457Y-98310885D01*
X156782410Y-99015857D01*
X156617000Y-99847428D01*
X156617000Y-99932572D01*
X156782410Y-100764143D01*
X157253457Y-101469115D01*
X157958429Y-101940162D01*
X158790000Y-102105572D01*
X159197632Y-102024489D01*
X159173741Y-102084597D01*
X159180107Y-102527406D01*
X159355443Y-102934072D01*
X159448509Y-103024500D01*
X159397154Y-103024500D01*
X158017869Y-102253946D01*
X157979707Y-102161588D01*
X157704859Y-101886260D01*
X157345570Y-101737070D01*
X156956537Y-101736731D01*
X156596988Y-101885293D01*
X156321660Y-102160141D01*
X156172470Y-102519430D01*
X156172131Y-102908463D01*
X156320693Y-103268012D01*
X156595541Y-103543340D01*
X156954830Y-103692530D01*
X157208132Y-103692751D01*
X158779593Y-104570665D01*
X158825859Y-104585645D01*
X158866295Y-104612663D01*
X158977830Y-104634849D01*
X159086025Y-104669879D01*
X159134505Y-104666013D01*
X159182200Y-104675500D01*
X163292173Y-104675500D01*
X163393453Y-104827077D01*
X163239069Y-104926420D01*
X163094079Y-105138620D01*
X163070511Y-105255000D01*
X160490000Y-105255000D01*
X160055654Y-105341397D01*
X159687434Y-105587434D01*
X159587434Y-105687434D01*
X159341397Y-106055655D01*
X159255000Y-106490000D01*
X159341397Y-106924345D01*
X159587434Y-107292566D01*
X159955655Y-107538603D01*
X160390000Y-107625000D01*
X160824345Y-107538603D01*
X160844703Y-107525000D01*
X163068568Y-107525000D01*
X163087348Y-107624807D01*
X163226420Y-107840931D01*
X163438620Y-107985921D01*
X163690510Y-108036930D01*
X165689490Y-108036930D01*
X165924807Y-107992652D01*
X166140931Y-107853580D01*
X166285921Y-107641380D01*
X166336930Y-107389490D01*
X166336930Y-107172678D01*
X166557875Y-107394009D01*
X166993255Y-107574794D01*
X167218760Y-107574991D01*
X167218760Y-110900548D01*
X166125708Y-111993600D01*
X167218760Y-113086652D01*
X167218760Y-114800000D01*
X165731618Y-114800000D01*
X165835910Y-114779255D01*
X166142175Y-114479283D01*
X164891100Y-113228208D01*
X163640025Y-114479283D01*
X163946290Y-114779255D01*
X164104175Y-114800000D01*
X129965672Y-114800000D01*
X107854685Y-114760865D01*
X108142175Y-114479283D01*
X106891100Y-113228208D01*
X105640025Y-114479283D01*
X105924026Y-114757448D01*
X104328360Y-114754624D01*
X104328360Y-113166001D01*
X104405417Y-113244675D01*
X105656492Y-111993600D01*
X108125708Y-111993600D01*
X109376783Y-113244675D01*
X109676755Y-112938410D01*
X109826273Y-111800467D01*
X109676755Y-111048790D01*
X109376783Y-110742525D01*
X108125708Y-111993600D01*
X105656492Y-111993600D01*
X104405417Y-110742525D01*
X104328360Y-110821199D01*
X104328360Y-102768072D01*
X104486081Y-103004119D01*
X106417598Y-104935636D01*
X106402460Y-104935623D01*
X105603502Y-105265746D01*
X104991694Y-105876487D01*
X104660178Y-106674867D01*
X104659423Y-107539340D01*
X104989546Y-108338298D01*
X105600287Y-108950106D01*
X106132183Y-109170968D01*
X105946290Y-109207945D01*
X105640025Y-109507917D01*
X106891100Y-110758992D01*
X108142175Y-109507917D01*
X107835910Y-109207945D01*
X107538010Y-109168803D01*
X108062098Y-108952254D01*
X108673906Y-108341513D01*
X109005422Y-107543133D01*
X109005439Y-107523477D01*
X110683248Y-109201286D01*
X110683248Y-110978690D01*
X110751094Y-111339262D01*
X110964192Y-111670426D01*
X111289342Y-111892592D01*
X111623770Y-111960315D01*
X111490006Y-112282455D01*
X111489594Y-112753877D01*
X111669620Y-113189572D01*
X112002675Y-113523209D01*
X112438055Y-113703994D01*
X112909477Y-113704406D01*
X113345172Y-113524380D01*
X113678809Y-113191325D01*
X113859594Y-112755945D01*
X113860006Y-112284523D01*
X113726313Y-111960963D01*
X114034862Y-111902906D01*
X114309007Y-111726499D01*
X114322528Y-111735533D01*
X114210791Y-111847075D01*
X114030006Y-112282455D01*
X114029594Y-112753877D01*
X114209620Y-113189572D01*
X114542675Y-113523209D01*
X114978055Y-113703994D01*
X115449477Y-113704406D01*
X115885172Y-113524380D01*
X116218809Y-113191325D01*
X116399594Y-112755945D01*
X116400006Y-112284523D01*
X116219980Y-111848828D01*
X116106959Y-111735609D01*
X116484800Y-111483144D01*
X116862528Y-111735533D01*
X116750791Y-111847075D01*
X116570006Y-112282455D01*
X116569594Y-112753877D01*
X116749620Y-113189572D01*
X117082675Y-113523209D01*
X117518055Y-113703994D01*
X117989477Y-113704406D01*
X118425172Y-113524380D01*
X118758809Y-113191325D01*
X118939594Y-112755945D01*
X118940006Y-112284523D01*
X118759980Y-111848828D01*
X118646959Y-111735609D01*
X119188204Y-111373961D01*
X119311882Y-111188863D01*
X137198331Y-111188863D01*
X137346893Y-111548412D01*
X137621741Y-111823740D01*
X137981030Y-111972930D01*
X138370063Y-111973269D01*
X138729612Y-111824707D01*
X138733626Y-111820700D01*
X142418200Y-111820700D01*
X142418864Y-111820568D01*
X142764263Y-111820869D01*
X143123812Y-111672307D01*
X143399140Y-111397459D01*
X143548330Y-111038170D01*
X143548669Y-110649137D01*
X143400107Y-110289588D01*
X143125259Y-110014260D01*
X142765970Y-109865070D01*
X142376937Y-109864731D01*
X142017388Y-110013293D01*
X141860708Y-110169700D01*
X138734094Y-110169700D01*
X138731059Y-110166660D01*
X138371770Y-110017470D01*
X137982737Y-110017131D01*
X137623188Y-110165693D01*
X137347860Y-110440541D01*
X137198670Y-110799830D01*
X137198331Y-111188863D01*
X119311882Y-111188863D01*
X119615786Y-110734039D01*
X119765933Y-109979200D01*
X119615786Y-109224361D01*
X119188204Y-108584439D01*
X118548282Y-108156857D01*
X117793443Y-108006710D01*
X117716157Y-108006710D01*
X116961318Y-108156857D01*
X116484800Y-108475256D01*
X116008282Y-108156857D01*
X115253443Y-108006710D01*
X115176157Y-108006710D01*
X114421318Y-108156857D01*
X114306143Y-108233814D01*
X114060258Y-108065808D01*
X113674290Y-107987648D01*
X112760486Y-107987648D01*
X112253301Y-107480463D01*
X122405371Y-107480463D01*
X122553933Y-107840012D01*
X122828781Y-108115340D01*
X122904052Y-108146595D01*
X123899133Y-110030141D01*
X123898891Y-110307483D01*
X124047453Y-110667032D01*
X124322301Y-110942360D01*
X124681590Y-111091550D01*
X125070623Y-111091889D01*
X125430172Y-110943327D01*
X125705500Y-110668479D01*
X125722784Y-110626854D01*
X125969783Y-110627069D01*
X126329332Y-110478507D01*
X126604660Y-110203659D01*
X126735574Y-109888383D01*
X127556491Y-109888383D01*
X127705053Y-110247932D01*
X127979901Y-110523260D01*
X128339190Y-110672450D01*
X128728223Y-110672789D01*
X129087772Y-110524227D01*
X129363100Y-110249379D01*
X129512290Y-109890090D01*
X129512533Y-109611751D01*
X130062638Y-108572663D01*
X132499331Y-108572663D01*
X132647893Y-108932212D01*
X132922741Y-109207540D01*
X133282030Y-109356730D01*
X133671063Y-109357069D01*
X134030612Y-109208507D01*
X134187292Y-109052100D01*
X138050506Y-109052100D01*
X138053541Y-109055140D01*
X138412830Y-109204330D01*
X138801863Y-109204669D01*
X139161412Y-109056107D01*
X139436740Y-108781259D01*
X139585930Y-108421970D01*
X139586269Y-108032937D01*
X139437707Y-107673388D01*
X139162859Y-107398060D01*
X138803570Y-107248870D01*
X138414537Y-107248531D01*
X138054988Y-107397093D01*
X138050974Y-107401100D01*
X133629800Y-107401100D01*
X133629136Y-107401232D01*
X133283737Y-107400931D01*
X132924188Y-107549493D01*
X132648860Y-107824341D01*
X132499670Y-108183630D01*
X132499331Y-108572663D01*
X130062638Y-108572663D01*
X130288879Y-108145320D01*
X130322212Y-108131547D01*
X130597540Y-107856699D01*
X130746730Y-107497410D01*
X130747069Y-107108377D01*
X130598507Y-106748828D01*
X130323659Y-106473500D01*
X130275887Y-106453663D01*
X139861931Y-106453663D01*
X140010493Y-106813212D01*
X140285341Y-107088540D01*
X140437107Y-107151559D01*
X141521993Y-108432527D01*
X141521931Y-108503663D01*
X141670493Y-108863212D01*
X141945341Y-109138540D01*
X142304630Y-109287730D01*
X142693663Y-109288069D01*
X143053212Y-109139507D01*
X143328540Y-108864659D01*
X143477730Y-108505370D01*
X143478069Y-108116337D01*
X143329507Y-107756788D01*
X143054659Y-107481460D01*
X142785359Y-107369637D01*
X142513518Y-107048663D01*
X142887931Y-107048663D01*
X143036493Y-107408212D01*
X143311341Y-107683540D01*
X143670630Y-107832730D01*
X144059663Y-107833069D01*
X144178669Y-107783897D01*
X144126283Y-107836283D01*
X143947337Y-108104094D01*
X143902868Y-108327657D01*
X143884500Y-108420000D01*
X143884500Y-108442324D01*
X143871460Y-108455341D01*
X143722270Y-108814630D01*
X143721931Y-109203663D01*
X143870493Y-109563212D01*
X144145341Y-109838540D01*
X144504630Y-109987730D01*
X144893663Y-109988069D01*
X144978448Y-109953037D01*
X144978448Y-111149490D01*
X145046294Y-111510062D01*
X145259392Y-111841226D01*
X145584542Y-112063392D01*
X145918970Y-112131115D01*
X145785206Y-112453255D01*
X145784794Y-112924677D01*
X145964820Y-113360372D01*
X146297875Y-113694009D01*
X146733255Y-113874794D01*
X147204677Y-113875206D01*
X147640372Y-113695180D01*
X147974009Y-113362125D01*
X148154794Y-112926745D01*
X148155206Y-112455323D01*
X148021513Y-112131763D01*
X148330062Y-112073706D01*
X148604207Y-111897299D01*
X148617728Y-111906333D01*
X148505991Y-112017875D01*
X148325206Y-112453255D01*
X148324794Y-112924677D01*
X148504820Y-113360372D01*
X148837875Y-113694009D01*
X149273255Y-113874794D01*
X149744677Y-113875206D01*
X150180372Y-113695180D01*
X150514009Y-113362125D01*
X150694794Y-112926745D01*
X150695206Y-112455323D01*
X150515180Y-112019628D01*
X150402159Y-111906409D01*
X150780000Y-111653944D01*
X151157728Y-111906333D01*
X151045991Y-112017875D01*
X150865206Y-112453255D01*
X150864794Y-112924677D01*
X151044820Y-113360372D01*
X151377875Y-113694009D01*
X151813255Y-113874794D01*
X152284677Y-113875206D01*
X152720372Y-113695180D01*
X153054009Y-113362125D01*
X153195930Y-113020340D01*
X156616623Y-113020340D01*
X156946746Y-113819298D01*
X157557487Y-114431106D01*
X158355867Y-114762622D01*
X159220340Y-114763377D01*
X160019298Y-114433254D01*
X160631106Y-113822513D01*
X160962622Y-113024133D01*
X160963353Y-112186733D01*
X161955927Y-112186733D01*
X162105445Y-112938410D01*
X162405417Y-113244675D01*
X163656492Y-111993600D01*
X162405417Y-110742525D01*
X162105445Y-111048790D01*
X161955927Y-112186733D01*
X160963353Y-112186733D01*
X160963377Y-112159660D01*
X160633254Y-111360702D01*
X160022513Y-110748894D01*
X159224133Y-110417378D01*
X158359660Y-110416623D01*
X157560702Y-110746746D01*
X156948894Y-111357487D01*
X156617378Y-112155867D01*
X156616623Y-113020340D01*
X153195930Y-113020340D01*
X153234794Y-112926745D01*
X153235206Y-112455323D01*
X153055180Y-112019628D01*
X152942159Y-111906409D01*
X153483404Y-111544761D01*
X153910986Y-110904839D01*
X154061133Y-110150000D01*
X153933415Y-109507917D01*
X163640025Y-109507917D01*
X164891100Y-110758992D01*
X166142175Y-109507917D01*
X165835910Y-109207945D01*
X164697967Y-109058427D01*
X163946290Y-109207945D01*
X163640025Y-109507917D01*
X153933415Y-109507917D01*
X153910986Y-109395161D01*
X153483404Y-108755239D01*
X153184339Y-108555410D01*
X156638712Y-108536854D01*
X156997103Y-108685671D01*
X157520600Y-108686128D01*
X158004424Y-108486216D01*
X158374915Y-108116371D01*
X158575671Y-107632897D01*
X158576128Y-107109400D01*
X158376216Y-106625576D01*
X158006371Y-106255085D01*
X157526476Y-106055815D01*
X157703412Y-105982707D01*
X157978740Y-105707859D01*
X158127930Y-105348570D01*
X158128269Y-104959537D01*
X157979707Y-104599988D01*
X157704859Y-104324660D01*
X157345570Y-104175470D01*
X156956537Y-104175131D01*
X156596988Y-104323693D01*
X156321660Y-104598541D01*
X156286465Y-104683300D01*
X148101200Y-104683300D01*
X147785295Y-104746137D01*
X147517483Y-104925083D01*
X147517481Y-104925086D01*
X146700632Y-105741935D01*
X146696337Y-105741931D01*
X146336788Y-105890493D01*
X146215500Y-106011570D01*
X146215500Y-103526494D01*
X146218540Y-103523459D01*
X146367730Y-103164170D01*
X146368069Y-102775137D01*
X146219507Y-102415588D01*
X145944659Y-102140260D01*
X145585370Y-101991070D01*
X145196337Y-101990731D01*
X144836788Y-102139293D01*
X144678788Y-102297018D01*
X144547659Y-102165660D01*
X144188370Y-102016470D01*
X143799337Y-102016131D01*
X143439788Y-102164693D01*
X143164460Y-102439541D01*
X143015270Y-102798830D01*
X143014931Y-103187863D01*
X143163493Y-103547412D01*
X143167500Y-103551426D01*
X143167500Y-106170528D01*
X143037460Y-106300341D01*
X142888270Y-106659630D01*
X142887931Y-107048663D01*
X142513518Y-107048663D01*
X141817929Y-106227353D01*
X141818069Y-106066337D01*
X141669507Y-105706788D01*
X141394659Y-105431460D01*
X141035370Y-105282270D01*
X140646337Y-105281931D01*
X140286788Y-105430493D01*
X140011460Y-105705341D01*
X139862270Y-106064630D01*
X139861931Y-106453663D01*
X130275887Y-106453663D01*
X129964370Y-106324310D01*
X129575337Y-106323971D01*
X129215788Y-106472533D01*
X128940460Y-106747381D01*
X128791270Y-107106670D01*
X128790974Y-107446070D01*
X128055991Y-108834371D01*
X127981348Y-108865213D01*
X127706020Y-109140061D01*
X127556830Y-109499350D01*
X127556491Y-109888383D01*
X126735574Y-109888383D01*
X126753850Y-109844370D01*
X126753909Y-109777107D01*
X127139225Y-109328014D01*
X127208224Y-109205457D01*
X127283309Y-109086528D01*
X127286889Y-109065730D01*
X127297240Y-109047344D01*
X127314087Y-108907708D01*
X127337943Y-108769101D01*
X127301385Y-107357950D01*
X127439650Y-107024970D01*
X127439989Y-106635937D01*
X127291427Y-106276388D01*
X127016579Y-106001060D01*
X126657290Y-105851870D01*
X126268257Y-105851531D01*
X125908708Y-106000093D01*
X125633380Y-106274941D01*
X125484190Y-106634230D01*
X125483851Y-107023263D01*
X125632413Y-107382812D01*
X125650956Y-107401388D01*
X125679266Y-108494149D01*
X125497455Y-108706053D01*
X125222908Y-108819493D01*
X125159974Y-108882317D01*
X124361267Y-107370479D01*
X124361509Y-107093137D01*
X124212947Y-106733588D01*
X123938099Y-106458260D01*
X123578810Y-106309070D01*
X123189777Y-106308731D01*
X122830228Y-106457293D01*
X122554900Y-106732141D01*
X122405710Y-107091430D01*
X122405371Y-107480463D01*
X112253301Y-107480463D01*
X107803221Y-103030383D01*
X123929371Y-103030383D01*
X124077933Y-103389932D01*
X124352781Y-103665260D01*
X124712070Y-103814450D01*
X125101103Y-103814789D01*
X125460652Y-103666227D01*
X125464666Y-103662220D01*
X125642466Y-103662220D01*
X125758175Y-103777928D01*
X125758171Y-103782223D01*
X125906733Y-104141772D01*
X126181581Y-104417100D01*
X126540870Y-104566290D01*
X126929903Y-104566629D01*
X127289452Y-104418067D01*
X127564780Y-104143219D01*
X127713970Y-103783930D01*
X127714309Y-103394897D01*
X127565747Y-103035348D01*
X127290899Y-102760020D01*
X126931610Y-102610830D01*
X126925939Y-102610825D01*
X126568117Y-102253003D01*
X126300306Y-102074057D01*
X125984400Y-102011220D01*
X125465134Y-102011220D01*
X125462099Y-102008180D01*
X125102810Y-101858990D01*
X124713777Y-101858651D01*
X124354228Y-102007213D01*
X124078900Y-102282061D01*
X123929710Y-102641350D01*
X123929371Y-103030383D01*
X107803221Y-103030383D01*
X106472300Y-101699462D01*
X106472300Y-96552864D01*
X106832800Y-96624572D01*
X107664371Y-96459162D01*
X108166480Y-96123663D01*
X111981931Y-96123663D01*
X112130493Y-96483212D01*
X112134500Y-96487226D01*
X112134500Y-97274764D01*
X112072270Y-97424630D01*
X112071931Y-97813663D01*
X112220493Y-98173212D01*
X112495341Y-98448540D01*
X112854630Y-98597730D01*
X113243663Y-98598069D01*
X113603212Y-98449507D01*
X113878540Y-98174659D01*
X114027730Y-97815370D01*
X114028069Y-97426337D01*
X113879507Y-97066788D01*
X113785500Y-96972617D01*
X113785500Y-96487694D01*
X113788540Y-96484659D01*
X113937730Y-96125370D01*
X113938069Y-95736337D01*
X113789507Y-95376788D01*
X113514659Y-95101460D01*
X113155370Y-94952270D01*
X112766337Y-94951931D01*
X112406788Y-95100493D01*
X112131460Y-95375341D01*
X111982270Y-95734630D01*
X111981931Y-96123663D01*
X108166480Y-96123663D01*
X108369343Y-95988115D01*
X108840390Y-95283143D01*
X109005800Y-94451572D01*
X109005800Y-94366428D01*
X108840390Y-93534857D01*
X108369343Y-92829885D01*
X107664371Y-92358838D01*
X106832800Y-92193428D01*
X106001229Y-92358838D01*
X105296257Y-92829885D01*
X104825210Y-93534857D01*
X104659800Y-94366428D01*
X104659800Y-94451572D01*
X104740265Y-94856097D01*
X104486081Y-95110281D01*
X104328360Y-95346328D01*
X104328360Y-90166001D01*
X104405417Y-90244675D01*
X105656492Y-88993600D01*
X104405417Y-87742525D01*
X104328360Y-87821199D01*
X104328360Y-86237570D01*
X104342993Y-86230253D01*
X105920658Y-86233050D01*
G36*
X122514700Y-90725400D02*
X122082900Y-90725400D01*
X122082900Y-91157200D01*
X121219300Y-91157200D01*
X121219300Y-90725400D01*
X120787500Y-90725400D01*
X120787500Y-89885260D01*
X122514700Y-89885260D01*
X122514700Y-90725400D01*
X122514700Y-90725400D01*
G37*
X122514700Y-90725400D02*
X122082900Y-90725400D01*
X122082900Y-91157200D01*
X121219300Y-91157200D01*
X121219300Y-90725400D01*
X120787500Y-90725400D01*
X120787500Y-89885260D01*
X122514700Y-89885260D01*
X122514700Y-90725400D01*
G36*
X145933104Y-88751590D02*
X146178098Y-88936180D01*
X146178098Y-89089585D01*
X145962071Y-89233930D01*
X145781100Y-89504772D01*
X145600129Y-89233930D01*
X145285348Y-89023600D01*
X145600129Y-88813270D01*
X145724857Y-88626602D01*
X145849603Y-88626602D01*
X145933104Y-88751590D01*
X145933104Y-88751590D01*
G37*
X145933104Y-88751590D02*
X146178098Y-88936180D01*
X146178098Y-89089585D01*
X145962071Y-89233930D01*
X145781100Y-89504772D01*
X145600129Y-89233930D01*
X145285348Y-89023600D01*
X145600129Y-88813270D01*
X145724857Y-88626602D01*
X145849603Y-88626602D01*
X145933104Y-88751590D01*
G36*
X143422071Y-88813270D02*
X143736852Y-89023600D01*
X143422071Y-89233930D01*
X143297343Y-89420598D01*
X143172597Y-89420598D01*
X143089096Y-89295610D01*
X142844102Y-89111020D01*
X142844102Y-88957615D01*
X143060129Y-88813270D01*
X143241100Y-88542428D01*
X143422071Y-88813270D01*
X143422071Y-88813270D01*
G37*
X143422071Y-88813270D02*
X143736852Y-89023600D01*
X143422071Y-89233930D01*
X143297343Y-89420598D01*
X143172597Y-89420598D01*
X143089096Y-89295610D01*
X142844102Y-89111020D01*
X142844102Y-88957615D01*
X143060129Y-88813270D01*
X143241100Y-88542428D01*
X143422071Y-88813270D01*
G36*
X147482900Y-87321800D02*
X147914700Y-87321800D01*
X147914700Y-88185400D01*
X147482900Y-88185400D01*
X147482900Y-88617200D01*
X146619300Y-88617200D01*
X146619300Y-88185400D01*
X146187500Y-88185400D01*
X146187500Y-87321800D01*
X146619300Y-87321800D01*
X146619300Y-86890000D01*
X147482900Y-86890000D01*
X147482900Y-87321800D01*
X147482900Y-87321800D01*
G37*
X147482900Y-87321800D02*
X147914700Y-87321800D01*
X147914700Y-88185400D01*
X147482900Y-88185400D01*
X147482900Y-88617200D01*
X146619300Y-88617200D01*
X146619300Y-88185400D01*
X146187500Y-88185400D01*
X146187500Y-87321800D01*
X146619300Y-87321800D01*
X146619300Y-86890000D01*
X147482900Y-86890000D01*
X147482900Y-87321800D01*
G36*
X127162900Y-87321800D02*
X127594700Y-87321800D01*
X127594700Y-88185400D01*
X127162900Y-88185400D01*
X127162900Y-88234260D01*
X126299300Y-88234260D01*
X126299300Y-88185400D01*
X125867500Y-88185400D01*
X125867500Y-87321800D01*
X126299300Y-87321800D01*
X126299300Y-86890000D01*
X127162900Y-86890000D01*
X127162900Y-87321800D01*
X127162900Y-87321800D01*
G37*
X127162900Y-87321800D02*
X127594700Y-87321800D01*
X127594700Y-88185400D01*
X127162900Y-88185400D01*
X127162900Y-88234260D01*
X126299300Y-88234260D01*
X126299300Y-88185400D01*
X125867500Y-88185400D01*
X125867500Y-87321800D01*
X126299300Y-87321800D01*
X126299300Y-86890000D01*
X127162900Y-86890000D01*
X127162900Y-87321800D01*
G36*
X134782900Y-87321800D02*
X135214700Y-87321800D01*
X135214700Y-88033674D01*
X135083188Y-88088013D01*
X134985631Y-88185400D01*
X134782900Y-88185400D01*
X134782900Y-88193620D01*
X133919300Y-88193620D01*
X133919300Y-88185400D01*
X133487500Y-88185400D01*
X133487500Y-87321800D01*
X133919300Y-87321800D01*
X133919300Y-86890000D01*
X134782900Y-86890000D01*
X134782900Y-87321800D01*
X134782900Y-87321800D01*
G37*
X134782900Y-87321800D02*
X135214700Y-87321800D01*
X135214700Y-88033674D01*
X135083188Y-88088013D01*
X134985631Y-88185400D01*
X134782900Y-88185400D01*
X134782900Y-88193620D01*
X133919300Y-88193620D01*
X133919300Y-88185400D01*
X133487500Y-88185400D01*
X133487500Y-87321800D01*
X133919300Y-87321800D01*
X133919300Y-86890000D01*
X134782900Y-86890000D01*
X134782900Y-87321800D01*
M02*
